<mxfile host="Electron" modified="2023-11-02T18:16:02.981Z" agent="Mozilla/5.0 (Windows NT 10.0; Win64; x64) AppleWebKit/537.36 (KHTML, like Gecko) draw.io/22.0.3 Chrome/114.0.5735.289 Electron/25.8.4 Safari/537.36" etag="vuP1_u-sMT-PKEnINVZs" version="22.0.3" type="device">
  <diagram name="Страница — 1" id="OTbjZxErCAMpDAKsl1yi">
    <mxGraphModel dx="1117" dy="711" grid="1" gridSize="10" guides="1" tooltips="1" connect="1" arrows="1" fold="1" page="1" pageScale="1" pageWidth="827" pageHeight="1169" math="0" shadow="0">
      <root>
        <mxCell id="0" />
        <mxCell id="1" parent="0" />
        <mxCell id="iybK_Iyhg3pvKeD9KzFa-1" style="edgeStyle=orthogonalEdgeStyle;rounded=0;orthogonalLoop=1;jettySize=auto;html=1;" parent="1" source="6N_h9HD6Hvu1JnVX5KQS-2" target="iybK_Iyhg3pvKeD9KzFa-6" edge="1">
          <mxGeometry relative="1" as="geometry">
            <mxPoint x="440" y="802" as="targetPoint" />
          </mxGeometry>
        </mxCell>
        <mxCell id="iybK_Iyhg3pvKeD9KzFa-2" value="&lt;font style=&quot;font-size: 14px;&quot;&gt;При нажатии кнопки&amp;nbsp; Start&amp;nbsp;&lt;br&gt;&amp;nbsp;выводиться главное меню с поисковой строкой&amp;nbsp;&lt;/font&gt;" style="edgeLabel;html=1;align=center;verticalAlign=middle;resizable=0;points=[];" parent="iybK_Iyhg3pvKeD9KzFa-1" vertex="1" connectable="0">
          <mxGeometry x="0.0632" y="-1" relative="1" as="geometry">
            <mxPoint as="offset" />
          </mxGeometry>
        </mxCell>
        <mxCell id="6N_h9HD6Hvu1JnVX5KQS-2" value="" style="rounded=1;whiteSpace=wrap;html=1;" parent="1" vertex="1">
          <mxGeometry x="240" y="120" width="400" height="210" as="geometry" />
        </mxCell>
        <mxCell id="6N_h9HD6Hvu1JnVX5KQS-4" value="&lt;font style=&quot;font-size: 16px;&quot;&gt;/Start&lt;/font&gt;" style="rounded=1;whiteSpace=wrap;html=1;" parent="1" vertex="1">
          <mxGeometry x="315" y="140" width="255" height="60" as="geometry" />
        </mxCell>
        <mxCell id="6N_h9HD6Hvu1JnVX5KQS-6" value="Начать&amp;nbsp;" style="rounded=1;whiteSpace=wrap;html=1;fillColor=#1ba1e2;fontColor=#ffffff;strokeColor=#006EAF;" parent="1" vertex="1">
          <mxGeometry x="310" y="220" width="270" height="50" as="geometry" />
        </mxCell>
        <mxCell id="iybK_Iyhg3pvKeD9KzFa-6" value="" style="rounded=1;whiteSpace=wrap;html=1;" parent="1" vertex="1">
          <mxGeometry x="140" y="884" width="610" height="530" as="geometry" />
        </mxCell>
        <mxCell id="iybK_Iyhg3pvKeD9KzFa-7" value="&lt;div style=&quot;font-size: 14px;&quot;&gt;&lt;font style=&quot;font-size: 14px;&quot;&gt;Добро пожаловать!&lt;/font&gt;&lt;/div&gt;&lt;div style=&quot;font-size: 14px;&quot;&gt;&lt;span style=&quot;background-color: initial;&quot;&gt;&lt;br&gt;&lt;/span&gt;&lt;/div&gt;&lt;div style=&quot;font-size: 14px;&quot;&gt;&lt;span style=&quot;background-color: initial;&quot;&gt;Я бот фонда ОРБИ.&lt;/span&gt;&lt;/div&gt;&lt;div style=&quot;font-size: 14px;&quot;&gt;&lt;font style=&quot;font-size: 14px;&quot;&gt;Вы можете ввести ваш вопрос или выбрать из предложенных вариантов&lt;/font&gt;&lt;/div&gt;" style="rounded=1;whiteSpace=wrap;html=1;" parent="1" vertex="1">
          <mxGeometry x="240" y="920" width="440" height="80" as="geometry" />
        </mxCell>
        <mxCell id="iybK_Iyhg3pvKeD9KzFa-8" value="&lt;font style=&quot;font-size: 14px;&quot;&gt;Если Вы подозреваете, что у Вас или у другого человека случился инсульт, как можно скорее звоните на номер 103&lt;/font&gt;" style="rounded=1;whiteSpace=wrap;html=1;" parent="1" vertex="1">
          <mxGeometry x="240" y="1020" width="440" height="90" as="geometry" />
        </mxCell>
        <mxCell id="iybK_Iyhg3pvKeD9KzFa-9" value="Сообщение&amp;nbsp;" style="rounded=1;whiteSpace=wrap;html=1;fillColor=#dae8fc;strokeColor=#6c8ebf;" parent="1" vertex="1">
          <mxGeometry x="240" y="1129" width="445" height="40" as="geometry" />
        </mxCell>
        <mxCell id="iybK_Iyhg3pvKeD9KzFa-10" value="&lt;font style=&quot;font-size: 16px;&quot;&gt;Работа фонда&amp;nbsp;&lt;/font&gt;" style="rounded=1;whiteSpace=wrap;html=1;fillColor=#60a917;fontColor=#ffffff;strokeColor=#2D7600;" parent="1" vertex="1">
          <mxGeometry x="240" y="1200" width="160" height="60" as="geometry" />
        </mxCell>
        <mxCell id="iybK_Iyhg3pvKeD9KzFa-11" value="&lt;font style=&quot;font-size: 16px;&quot;&gt;Информация об инсульте&amp;nbsp;&lt;/font&gt;" style="rounded=1;whiteSpace=wrap;html=1;fillColor=#60a917;fontColor=#ffffff;strokeColor=#2D7600;" parent="1" vertex="1">
          <mxGeometry x="510" y="1200" width="160" height="60" as="geometry" />
        </mxCell>
        <mxCell id="iybK_Iyhg3pvKeD9KzFa-12" value="&lt;font style=&quot;font-size: 16px;&quot;&gt;Нужна помощь&lt;/font&gt;" style="rounded=1;whiteSpace=wrap;html=1;fillColor=#60a917;fontColor=#ffffff;strokeColor=#2D7600;" parent="1" vertex="1">
          <mxGeometry x="240" y="1300" width="160" height="60" as="geometry" />
        </mxCell>
        <mxCell id="iybK_Iyhg3pvKeD9KzFa-13" value="&lt;font style=&quot;font-size: 16px;&quot;&gt;Звонок на горячию линию&amp;nbsp;&lt;/font&gt;" style="rounded=1;whiteSpace=wrap;html=1;fillColor=#e51400;fontColor=#ffffff;strokeColor=#B20000;" parent="1" vertex="1">
          <mxGeometry x="510" y="1300" width="160" height="60" as="geometry" />
        </mxCell>
        <mxCell id="iybK_Iyhg3pvKeD9KzFa-23" value="" style="edgeStyle=orthogonalEdgeStyle;rounded=0;orthogonalLoop=1;jettySize=auto;html=1;" parent="1" source="iybK_Iyhg3pvKeD9KzFa-9" target="iybK_Iyhg3pvKeD9KzFa-16" edge="1">
          <mxGeometry relative="1" as="geometry">
            <mxPoint x="1580" y="1149" as="targetPoint" />
            <mxPoint x="685" y="1149" as="sourcePoint" />
          </mxGeometry>
        </mxCell>
        <mxCell id="iybK_Iyhg3pvKeD9KzFa-26" value="&lt;font color=&quot;#ff8000&quot; style=&quot;font-size: 16px;&quot;&gt;Вводим Валидный запрос в поисковоую строку&amp;nbsp; и нажимаем кнопку ENTER&lt;/font&gt;" style="edgeLabel;html=1;align=center;verticalAlign=middle;resizable=0;points=[];" parent="iybK_Iyhg3pvKeD9KzFa-23" vertex="1" connectable="0">
          <mxGeometry x="0.2748" y="2" relative="1" as="geometry">
            <mxPoint as="offset" />
          </mxGeometry>
        </mxCell>
        <mxCell id="iybK_Iyhg3pvKeD9KzFa-16" value="Запросы:" style="rounded=1;whiteSpace=wrap;html=1;" parent="1" vertex="1">
          <mxGeometry x="1750" y="1119" width="120" height="60" as="geometry" />
        </mxCell>
        <mxCell id="iybK_Iyhg3pvKeD9KzFa-41" value="" style="childLayout=tableLayout;recursiveResize=0;strokeColor=#98bf21;fillColor=#A7C942;shadow=1;align=left;spacing=10;verticalAlign=top;" parent="1" vertex="1">
          <mxGeometry x="2680" y="1030" width="1010" height="16638.99999999997" as="geometry" />
        </mxCell>
        <mxCell id="iybK_Iyhg3pvKeD9KzFa-42" style="shape=tableRow;horizontal=0;startSize=0;swimlaneHead=0;swimlaneBody=0;top=0;left=0;bottom=0;right=0;dropTarget=0;collapsible=0;recursiveResize=0;expand=0;fontStyle=0;strokeColor=inherit;fillColor=#ffffff;" parent="iybK_Iyhg3pvKeD9KzFa-41" vertex="1">
          <mxGeometry width="1010" height="140" as="geometry" />
        </mxCell>
        <mxCell id="iybK_Iyhg3pvKeD9KzFa-43" value="Запросы :" style="connectable=0;recursiveResize=0;strokeColor=inherit;fillColor=#A7C942;align=center;fontStyle=1;fontColor=#FFFFFF;html=1;container=1;" parent="iybK_Iyhg3pvKeD9KzFa-42" vertex="1">
          <mxGeometry width="400" height="140" as="geometry">
            <mxRectangle width="400" height="140" as="alternateBounds" />
          </mxGeometry>
        </mxCell>
        <mxCell id="iybK_Iyhg3pvKeD9KzFa-44" value="Ответы:" style="connectable=0;recursiveResize=0;strokeColor=inherit;fillColor=#A7C942;align=center;fontStyle=1;fontColor=#FFFFFF;html=1;" parent="iybK_Iyhg3pvKeD9KzFa-42" vertex="1">
          <mxGeometry x="400" width="610" height="140" as="geometry">
            <mxRectangle width="610" height="140" as="alternateBounds" />
          </mxGeometry>
        </mxCell>
        <mxCell id="iybK_Iyhg3pvKeD9KzFa-46" value="" style="shape=tableRow;horizontal=0;startSize=0;swimlaneHead=0;swimlaneBody=0;top=0;left=0;bottom=0;right=0;dropTarget=0;collapsible=0;recursiveResize=0;expand=0;fontStyle=0;strokeColor=inherit;fillColor=#ffffff;verticalAlign=bottom;spacing=10;" parent="iybK_Iyhg3pvKeD9KzFa-41" vertex="1">
          <mxGeometry y="140" width="1010" height="330" as="geometry" />
        </mxCell>
        <mxCell id="iybK_Iyhg3pvKeD9KzFa-47" value="&lt;div style=&quot;color: rgb(26, 26, 26); font-family: &amp;quot;YS Text&amp;quot;, &amp;quot;Helvetica Neue&amp;quot;, Helvetica, Arial, sans-serif; font-size: 15px; background-color: rgb(255, 255, 255);&quot;&gt;&amp;nbsp; &amp;nbsp; &amp;nbsp; Блок запроса № 1&lt;/div&gt;&lt;div style=&quot;color: rgb(26, 26, 26); font-family: &amp;quot;YS Text&amp;quot;, &amp;quot;Helvetica Neue&amp;quot;, Helvetica, Arial, sans-serif; font-size: 15px; background-color: rgb(255, 255, 255);&quot;&gt;&lt;br&gt;&lt;/div&gt;&lt;div style=&quot;color: rgb(26, 26, 26); font-family: &amp;quot;YS Text&amp;quot;, &amp;quot;Helvetica Neue&amp;quot;, Helvetica, Arial, sans-serif; font-size: 15px; background-color: rgb(255, 255, 255);&quot;&gt;&lt;ol&gt;&lt;li&gt;Болит голова. Это инсульт&lt;/li&gt;&lt;li&gt;Какие симптомы инсульта&lt;/li&gt;&lt;li&gt;Какие признаки инсульта&lt;/li&gt;&lt;li&gt;Как понять, что у меня инсульт&lt;/li&gt;&lt;li&gt;Как понять, что у близкого инсульт&lt;/li&gt;&lt;li&gt;Человек не может улыбнуться&lt;/li&gt;&lt;li&gt;Человек не может поднять руку&lt;/li&gt;&lt;li&gt;Что делать, если случился инсульт&lt;/li&gt;&lt;li&gt;Куда звонить, если случился инсульт&lt;/li&gt;&lt;li&gt;Что делать, если подозреваешь инсульт&lt;/li&gt;&lt;li&gt;Признаки инсульта&lt;/li&gt;&lt;li&gt;Симптомы инсульта&lt;/li&gt;&lt;/ol&gt;&lt;/div&gt;" style="connectable=0;recursiveResize=0;strokeColor=inherit;fillColor=inherit;align=left;whiteSpace=wrap;html=1;verticalAlign=top;spacing=10;" parent="iybK_Iyhg3pvKeD9KzFa-46" vertex="1">
          <mxGeometry width="400" height="330" as="geometry">
            <mxRectangle width="400" height="330" as="alternateBounds" />
          </mxGeometry>
        </mxCell>
        <mxCell id="iybK_Iyhg3pvKeD9KzFa-48" value="&lt;div style=&quot;font-size: 15px;&quot;&gt;&lt;font style=&quot;font-size: 15px;&quot;&gt;Вот основные симптомы инсульта. Надо срочно позвонить на номер 103 и вызвать скорую, если человек:&lt;/font&gt;&lt;/div&gt;&lt;div style=&quot;font-size: 15px;&quot;&gt;&lt;font style=&quot;font-size: 15px;&quot;&gt;&lt;br&gt;&lt;/font&gt;&lt;/div&gt;&lt;div style=&quot;font-size: 15px;&quot;&gt;&lt;font style=&quot;font-size: 15px;&quot;&gt;&amp;nbsp; &amp;nbsp; •&amp;nbsp; Не может улыбнуться, уголок рта опущен&lt;/font&gt;&lt;/div&gt;&lt;div style=&quot;font-size: 15px;&quot;&gt;&lt;font style=&quot;font-size: 15px;&quot;&gt;&amp;nbsp; &amp;nbsp; •&amp;nbsp; Не может поднять обе руки или одна из них слаба&lt;/font&gt;&lt;/div&gt;&lt;div style=&quot;font-size: 15px;&quot;&gt;&lt;font style=&quot;font-size: 15px;&quot;&gt;&amp;nbsp; &amp;nbsp; •&amp;nbsp; Не может разборчиво произнести свое имя&lt;/font&gt;&lt;/div&gt;&lt;div style=&quot;font-size: 15px;&quot;&gt;&lt;font style=&quot;font-size: 15px;&quot;&gt;&lt;br&gt;&lt;/font&gt;&lt;/div&gt;&lt;div style=&quot;font-size: 15px;&quot;&gt;&lt;font style=&quot;font-size: 15px;&quot;&gt;Острая нестерпимая головная боль, онемение губы или половины лица и экстремально высокое артериальное давление тоже могут быть симптомами инсульта. И нужно как можно скорее вызвать скорую.&lt;/font&gt;&lt;/div&gt;&lt;div style=&quot;font-size: 15px;&quot;&gt;&lt;font style=&quot;font-size: 15px;&quot;&gt;&lt;br&gt;&lt;/font&gt;&lt;/div&gt;&lt;div style=&quot;font-size: 15px;&quot;&gt;&lt;font style=&quot;font-size: 15px;&quot;&gt;До приезда врачей человека следует уложить на горизонтальную поверхность, расстегнуть одежду, вынуть зубные протезы, если таковые имеются, обеспечить приток свежего воздуха.&lt;/font&gt;&lt;/div&gt;" style="connectable=0;recursiveResize=0;strokeColor=inherit;fillColor=inherit;align=left;whiteSpace=wrap;html=1;verticalAlign=middle;spacingTop=10;spacing=10;" parent="iybK_Iyhg3pvKeD9KzFa-46" vertex="1">
          <mxGeometry x="400" width="610" height="330" as="geometry">
            <mxRectangle width="610" height="330" as="alternateBounds" />
          </mxGeometry>
        </mxCell>
        <mxCell id="iybK_Iyhg3pvKeD9KzFa-50" value="" style="shape=tableRow;horizontal=0;startSize=0;swimlaneHead=0;swimlaneBody=0;top=0;left=0;bottom=0;right=0;dropTarget=0;collapsible=0;recursiveResize=0;expand=0;fontStyle=1;strokeColor=inherit;fillColor=#EAF2D3;align=left;" parent="iybK_Iyhg3pvKeD9KzFa-41" vertex="1">
          <mxGeometry y="470" width="1010" height="410" as="geometry" />
        </mxCell>
        <mxCell id="iybK_Iyhg3pvKeD9KzFa-51" value="&lt;div style=&quot;color: rgb(26, 26, 26); font-family: &amp;quot;YS Text&amp;quot;, &amp;quot;Helvetica Neue&amp;quot;, Helvetica, Arial, sans-serif; font-size: 15px; background-color: rgb(255, 255, 255);&quot;&gt;&amp;nbsp; &amp;nbsp; &amp;nbsp; &amp;nbsp;Блок запроса № 2&lt;/div&gt;&lt;div style=&quot;color: rgb(26, 26, 26); font-family: &amp;quot;YS Text&amp;quot;, &amp;quot;Helvetica Neue&amp;quot;, Helvetica, Arial, sans-serif; font-size: 15px; background-color: rgb(255, 255, 255);&quot;&gt;&lt;ol&gt;&lt;li&gt;Что делать, если случился инсульт&lt;/li&gt;&lt;li&gt;С чего начать лечение после инсульта&lt;/li&gt;&lt;li&gt;Какое лечение после инсульта&lt;/li&gt;&lt;li&gt;Как лечат после инсульта&lt;/li&gt;&lt;/ol&gt;&lt;/div&gt;" style="connectable=0;recursiveResize=0;strokeColor=inherit;fillColor=inherit;whiteSpace=wrap;html=1;spacing=10;align=left;verticalAlign=middle;" parent="iybK_Iyhg3pvKeD9KzFa-50" vertex="1">
          <mxGeometry width="400" height="410" as="geometry">
            <mxRectangle width="400" height="410" as="alternateBounds" />
          </mxGeometry>
        </mxCell>
        <mxCell id="iybK_Iyhg3pvKeD9KzFa-52" value="&lt;div style=&quot;font-size: 15px;&quot;&gt;&lt;font style=&quot;font-size: 15px;&quot;&gt;Когда близкий человек столкнулся с инсультом, возникает очень много вопросов, и легко почувствовать растерянность. Не переживайте, вы не одни, мы поможем вам найти основную информацию:&lt;/font&gt;&lt;/div&gt;&lt;div style=&quot;font-size: 15px;&quot;&gt;&lt;font style=&quot;font-size: 15px;&quot;&gt;&lt;br&gt;&lt;/font&gt;&lt;/div&gt;&lt;div style=&quot;font-size: 15px;&quot;&gt;&lt;font style=&quot;font-size: 15px;&quot;&gt;&amp;nbsp; &amp;nbsp; •&amp;nbsp; Если человек еще лежит в больнице, спросите про его состояние и прогнозы у лечащего врача. Используйте для этого наш чек-лист (https://orbifond.ru/about-stroke/questions-to-doctor/).&lt;/font&gt;&lt;/div&gt;&lt;div style=&quot;font-size: 15px;&quot;&gt;&lt;font style=&quot;font-size: 15px;&quot;&gt;&lt;a href=&quot;https://orbifond.ru/about-stroke/questions-to-doctor/&quot;&gt;https://orbifond.ru/about-stroke/questions-to-doctor/&lt;/a&gt;&amp;nbsp; &amp;nbsp; •&amp;nbsp; Подготовьтесь к выписке (&lt;a href=&quot;https://orbifond.ru/about-stroke/questions-to-doctor/&quot;&gt;https://orbifond.ru/about-stroke/questions-to-doctor/&lt;/a&gt;) — обустройте дом, адаптируйте бытовые предметы и продумайте, как вы организуете реабилитацию.&lt;/font&gt;&lt;/div&gt;&lt;div style=&quot;font-size: 15px;&quot;&gt;&lt;font style=&quot;font-size: 15px;&quot;&gt;&amp;nbsp; &amp;nbsp; •&amp;nbsp; Очень важно, чтобы реабилитация после инсульта началась как можно раньше. Почитайте (https://orbifond.ru/about-stroke/rehabilitation-methods/) про сроки и методы реабилитации и выберите (&lt;a href=&quot;https://orbifond.ru/about-stroke/rehabilitation-center/&quot;&gt;https://orbifond.ru/about-stroke/rehabilitation-center/&lt;/a&gt;) реабилитационный центр.&lt;/font&gt;&lt;/div&gt;&lt;div style=&quot;font-size: 15px;&quot;&gt;&lt;font style=&quot;font-size: 15px;&quot;&gt;&amp;nbsp; &amp;nbsp; •&amp;nbsp; Риск повторного инсульта весьма велик. Внимательно следите (&lt;a href=&quot;https://orbifond.ru/about-stroke/rehabilitation-center/&quot;&gt;https://orbifond.ru/about-stroke/rehabilitation-center/&lt;/a&gt;) за состоянием близкого.&lt;/font&gt;&lt;/div&gt;&lt;div style=&quot;font-size: 15px;&quot;&gt;&lt;font style=&quot;font-size: 15px;&quot;&gt;&lt;br&gt;&lt;/font&gt;&lt;/div&gt;&lt;div style=&quot;font-size: 15px;&quot;&gt;&lt;font style=&quot;font-size: 15px;&quot;&gt;Если у вас остались вопросы, позвоните на бесплатную горячую линию по инсульту 8 800 707 52 29.&lt;/font&gt;&lt;/div&gt;" style="connectable=0;recursiveResize=0;strokeColor=inherit;fillColor=inherit;whiteSpace=wrap;html=1;align=left;spacing=10;" parent="iybK_Iyhg3pvKeD9KzFa-50" vertex="1">
          <mxGeometry x="400" width="610" height="410" as="geometry">
            <mxRectangle width="610" height="410" as="alternateBounds" />
          </mxGeometry>
        </mxCell>
        <mxCell id="iybK_Iyhg3pvKeD9KzFa-54" value="" style="shape=tableRow;horizontal=0;startSize=0;swimlaneHead=0;swimlaneBody=0;top=0;left=0;bottom=0;right=0;dropTarget=0;collapsible=0;recursiveResize=0;expand=0;fontStyle=0;strokeColor=inherit;fillColor=#ffffff;" parent="iybK_Iyhg3pvKeD9KzFa-41" vertex="1">
          <mxGeometry y="880" width="1010" height="310" as="geometry" />
        </mxCell>
        <mxCell id="iybK_Iyhg3pvKeD9KzFa-55" value="&lt;div style=&quot;color: rgb(26, 26, 26); font-family: &amp;quot;YS Text&amp;quot;, &amp;quot;Helvetica Neue&amp;quot;, Helvetica, Arial, sans-serif; font-size: 15px; background-color: rgb(255, 255, 255);&quot;&gt;&amp;nbsp; &amp;nbsp; &amp;nbsp; &amp;nbsp;Блок запроса № 3&lt;/div&gt;&lt;div style=&quot;color: rgb(26, 26, 26); font-family: &amp;quot;YS Text&amp;quot;, &amp;quot;Helvetica Neue&amp;quot;, Helvetica, Arial, sans-serif; font-size: 15px; background-color: rgb(255, 255, 255);&quot;&gt;&lt;br&gt;&lt;/div&gt;&lt;div style=&quot;color: rgb(26, 26, 26); font-family: &amp;quot;YS Text&amp;quot;, &amp;quot;Helvetica Neue&amp;quot;, Helvetica, Arial, sans-serif; font-size: 15px; background-color: rgb(255, 255, 255);&quot;&gt;&lt;ol&gt;&lt;li&gt;Что такое ишемический инсульт&lt;/li&gt;&lt;li&gt;Симптомы ишемического инсульта&lt;/li&gt;&lt;li&gt;Чем опасен ишемический инсульт&lt;/li&gt;&lt;/ol&gt;&lt;/div&gt;" style="connectable=0;recursiveResize=0;strokeColor=inherit;fillColor=inherit;fontStyle=0;align=left;whiteSpace=wrap;html=1;spacing=10;" parent="iybK_Iyhg3pvKeD9KzFa-54" vertex="1">
          <mxGeometry width="400" height="310" as="geometry">
            <mxRectangle width="400" height="310" as="alternateBounds" />
          </mxGeometry>
        </mxCell>
        <mxCell id="iybK_Iyhg3pvKeD9KzFa-56" value="&lt;div style=&quot;font-size: 15px;&quot;&gt;&lt;font style=&quot;font-size: 15px;&quot;&gt;Ишемический инсульт случается в результате нарушения проходимости мозговых артерий. При этом прекращается поступление крови к мозгу. Без питания наступает некроз клеток, развивается инфаркт органа.&lt;/font&gt;&lt;/div&gt;&lt;div style=&quot;font-size: 15px;&quot;&gt;&lt;font style=&quot;font-size: 15px;&quot;&gt;&lt;br&gt;&lt;/font&gt;&lt;/div&gt;&lt;div style=&quot;font-size: 15px;&quot;&gt;&lt;font style=&quot;font-size: 15px;&quot;&gt;Последствия ишемического инсульта зависят от объема поражения головного мозга, а также от расположения поврежденного участка. Даже если помощь оказали вовремя, дальше обязательно нужно как можно быстрее перейти к реабилитации.&lt;/font&gt;&lt;/div&gt;&lt;div style=&quot;font-size: 15px;&quot;&gt;&lt;font style=&quot;font-size: 15px;&quot;&gt;&lt;br&gt;&lt;/font&gt;&lt;/div&gt;&lt;div style=&quot;font-size: 15px;&quot;&gt;&lt;font style=&quot;font-size: 15px;&quot;&gt;Подробнее про ишемический инсульт вы можете почитать здесь (&lt;a href=&quot;https://orbifond.ru/about-stroke/ischemic-stroke/&quot;&gt;https://orbifond.ru/about-stroke/ischemic-stroke/&lt;/a&gt;) или задать вопросы специалистам на бесплатной горячей линии по инсульту 8 800 707 52 29.&lt;/font&gt;&lt;/div&gt;" style="connectable=0;recursiveResize=0;strokeColor=inherit;fillColor=inherit;fontStyle=0;align=left;whiteSpace=wrap;html=1;spacing=10;" parent="iybK_Iyhg3pvKeD9KzFa-54" vertex="1">
          <mxGeometry x="400" width="610" height="310" as="geometry">
            <mxRectangle width="610" height="310" as="alternateBounds" />
          </mxGeometry>
        </mxCell>
        <mxCell id="iybK_Iyhg3pvKeD9KzFa-58" value="" style="shape=tableRow;horizontal=0;startSize=0;swimlaneHead=0;swimlaneBody=0;top=0;left=0;bottom=0;right=0;dropTarget=0;collapsible=0;recursiveResize=0;expand=0;fontStyle=1;strokeColor=inherit;fillColor=#EAF2D3;" parent="iybK_Iyhg3pvKeD9KzFa-41" vertex="1">
          <mxGeometry y="1190" width="1010" height="350" as="geometry" />
        </mxCell>
        <mxCell id="iybK_Iyhg3pvKeD9KzFa-59" value="&lt;div style=&quot;color: rgb(26, 26, 26); font-family: &amp;quot;YS Text&amp;quot;, &amp;quot;Helvetica Neue&amp;quot;, Helvetica, Arial, sans-serif; font-size: 15px; background-color: rgb(255, 255, 255);&quot;&gt;&amp;nbsp; &amp;nbsp; &amp;nbsp; Блок запроса № 4&lt;br&gt;&lt;/div&gt;&lt;div style=&quot;color: rgb(26, 26, 26); font-family: &amp;quot;YS Text&amp;quot;, &amp;quot;Helvetica Neue&amp;quot;, Helvetica, Arial, sans-serif; font-size: 15px; background-color: rgb(255, 255, 255);&quot;&gt;&lt;br&gt;&lt;/div&gt;&lt;div style=&quot;color: rgb(26, 26, 26); font-family: &amp;quot;YS Text&amp;quot;, &amp;quot;Helvetica Neue&amp;quot;, Helvetica, Arial, sans-serif; font-size: 15px; background-color: rgb(255, 255, 255);&quot;&gt;&lt;ol&gt;&lt;li&gt;Что такое геморрагический инсульт&lt;/li&gt;&lt;li&gt;Симптомы геморрагического инсульта&lt;/li&gt;&lt;li&gt;Чем опасен геморрагический инсульт&lt;/li&gt;&lt;/ol&gt;&lt;/div&gt;" style="connectable=0;recursiveResize=0;strokeColor=inherit;fillColor=inherit;whiteSpace=wrap;html=1;align=left;spacing=10;" parent="iybK_Iyhg3pvKeD9KzFa-58" vertex="1">
          <mxGeometry width="400" height="350" as="geometry">
            <mxRectangle width="400" height="350" as="alternateBounds" />
          </mxGeometry>
        </mxCell>
        <mxCell id="iybK_Iyhg3pvKeD9KzFa-60" value="&lt;div style=&quot;font-size: 15px;&quot;&gt;&lt;font style=&quot;font-size: 15px;&quot;&gt;Геморрагический инсульт — это кровоизлияние в мозгу, которое образуется чаще всего из-за разрыва патологически измененного сосуда.&lt;/font&gt;&lt;/div&gt;&lt;div style=&quot;font-size: 15px;&quot;&gt;&lt;font style=&quot;font-size: 15px;&quot;&gt;&lt;br&gt;&lt;/font&gt;&lt;/div&gt;&lt;div style=&quot;font-size: 15px;&quot;&gt;&lt;font style=&quot;font-size: 15px;&quot;&gt;Стенка его рвется, кровь свободно изливается в полость черепа, участки мозга испытывают дефицит питания.&lt;/font&gt;&lt;/div&gt;&lt;div style=&quot;font-size: 15px;&quot;&gt;&lt;font style=&quot;font-size: 15px;&quot;&gt;&lt;br&gt;&lt;/font&gt;&lt;/div&gt;&lt;div style=&quot;font-size: 15px;&quot;&gt;&lt;font style=&quot;font-size: 15px;&quot;&gt;Геморрагический инсульт встречается реже, чем ишемический — в 10-15% случаев всех инсультов, но он более опасен для жизни и здоровья.&lt;/font&gt;&lt;/div&gt;&lt;div style=&quot;font-size: 15px;&quot;&gt;&lt;font style=&quot;font-size: 15px;&quot;&gt;&lt;br&gt;&lt;/font&gt;&lt;/div&gt;&lt;div style=&quot;font-size: 15px;&quot;&gt;&lt;font style=&quot;font-size: 15px;&quot;&gt;Подробнее про геморрагический инсульт вы можете почитать здесь (&lt;a href=&quot;https://orbifond.ru/about-stroke/hemorrhagic-stroke/&quot;&gt;https://orbifond.ru/about-stroke/hemorrhagic-stroke/&lt;/a&gt;) или задать вопросы специалистам на бесплатной горячей линии по инсульту 8 800 707 52 29.&lt;/font&gt;&lt;/div&gt;" style="connectable=0;recursiveResize=0;strokeColor=inherit;fillColor=inherit;whiteSpace=wrap;html=1;align=left;spacing=10;" parent="iybK_Iyhg3pvKeD9KzFa-58" vertex="1">
          <mxGeometry x="400" width="610" height="350" as="geometry">
            <mxRectangle width="610" height="350" as="alternateBounds" />
          </mxGeometry>
        </mxCell>
        <mxCell id="iybK_Iyhg3pvKeD9KzFa-78" style="shape=tableRow;horizontal=0;startSize=0;swimlaneHead=0;swimlaneBody=0;top=0;left=0;bottom=0;right=0;dropTarget=0;collapsible=0;recursiveResize=0;expand=0;fontStyle=1;strokeColor=inherit;fillColor=#EAF2D3;" parent="iybK_Iyhg3pvKeD9KzFa-41" vertex="1">
          <mxGeometry y="1540" width="1010" height="340" as="geometry" />
        </mxCell>
        <mxCell id="iybK_Iyhg3pvKeD9KzFa-79" value="&lt;div style=&quot;&quot;&gt;&lt;span style=&quot;font-size: 15px; background-color: initial;&quot;&gt;&lt;br&gt;&lt;/span&gt;&lt;/div&gt;&lt;div style=&quot;font-size: 14px;&quot;&gt;&lt;font style=&quot;font-size: 14px;&quot;&gt;&amp;nbsp; &amp;nbsp; &amp;nbsp; &amp;nbsp; Блок запроса № 5&lt;/font&gt;&lt;/div&gt;&lt;div style=&quot;font-size: 14px;&quot;&gt;&lt;br&gt;&lt;/div&gt;&lt;div style=&quot;&quot;&gt;&lt;ol&gt;&lt;li&gt;&lt;span style=&quot;font-size: 15px; background-color: initial;&quot;&gt;Что такое микроинсульт&lt;/span&gt;&lt;/li&gt;&lt;li&gt;&lt;font style=&quot;font-size: 15px;&quot;&gt;Симптомы микроинсульта&lt;/font&gt;&lt;/li&gt;&lt;li&gt;&lt;font style=&quot;font-size: 15px;&quot;&gt;Что делать после микроинсульта&lt;/font&gt;&lt;/li&gt;&lt;li&gt;&lt;font style=&quot;font-size: 15px;&quot;&gt;Что такое транзиторная ишемическая атака&lt;/font&gt;&lt;/li&gt;&lt;li&gt;&lt;font style=&quot;font-size: 15px;&quot;&gt;Что делать после транзиторной&lt;/font&gt;&lt;/li&gt;&lt;li&gt;&lt;font style=&quot;font-size: 15px;&quot;&gt;ишемической атаки&lt;/font&gt;&lt;/li&gt;&lt;li&gt;&lt;font style=&quot;font-size: 15px;&quot;&gt;Что такое ТИА&lt;/font&gt;&lt;/li&gt;&lt;li&gt;&lt;font style=&quot;font-size: 15px;&quot;&gt;Симптомы инсульта прошли&lt;/font&gt;&lt;/li&gt;&lt;li&gt;&lt;font style=&quot;font-size: 15px;&quot;&gt;Симптомы ТИА&lt;/font&gt;&lt;/li&gt;&lt;li&gt;&lt;font style=&quot;font-size: 15px;&quot;&gt;Симптомы транзиторной ишемической атаки&lt;/font&gt;&lt;/li&gt;&lt;/ol&gt;&lt;/div&gt;" style="connectable=0;recursiveResize=0;strokeColor=inherit;fillColor=inherit;whiteSpace=wrap;html=1;align=left;spacing=10;" parent="iybK_Iyhg3pvKeD9KzFa-78" vertex="1">
          <mxGeometry width="400" height="340" as="geometry">
            <mxRectangle width="400" height="340" as="alternateBounds" />
          </mxGeometry>
        </mxCell>
        <mxCell id="iybK_Iyhg3pvKeD9KzFa-80" value="&lt;div style=&quot;font-size: 15px;&quot;&gt;Если симптоматика инсульта полностью проходит не позже чем через 24 часа от начала, такое нарушение мозгового кровообращения называют транзиторной ишемической атакой — ТИА.&lt;/div&gt;&lt;div style=&quot;font-size: 15px;&quot;&gt;&lt;br style=&quot;font-size: 15px;&quot;&gt;&lt;/div&gt;&lt;div style=&quot;font-size: 15px;&quot;&gt;ТИА получила народное название «микроинсульт». Но это некорректное определение, оно может вводить в заблуждение, что ТИА — это что-то незначительное. На самом деле это очень тревожный «звонок».&lt;/div&gt;&lt;div style=&quot;font-size: 15px;&quot;&gt;&lt;br style=&quot;font-size: 15px;&quot;&gt;&lt;/div&gt;&lt;div style=&quot;font-size: 15px;&quot;&gt;Нельзя оставлять ТИА без внимания и лечения. После транзиторной ишемической атаки надо обязательно и как можно быстрее обратиться к врачам. Не игнорируйте тревожные симптомы.&lt;/div&gt;&lt;div style=&quot;font-size: 15px;&quot;&gt;&lt;br style=&quot;font-size: 15px;&quot;&gt;&lt;/div&gt;&lt;div style=&quot;font-size: 15px;&quot;&gt;Подробнее про ТИА вы можете почитать здесь (&lt;a href=&quot;https://orbifond.ru/about-stroke/transient-ischemic-attack/&quot;&gt;https://orbifond.ru/about-stroke/transient-ischemic-attack/&lt;/a&gt;) или задать вопросы специалистам на бесплатной горячей линии по инсульту 8 800 707 52 29.&lt;/div&gt;" style="connectable=0;recursiveResize=0;strokeColor=inherit;fillColor=inherit;whiteSpace=wrap;html=1;align=left;fontSize=15;spacing=10;" parent="iybK_Iyhg3pvKeD9KzFa-78" vertex="1">
          <mxGeometry x="400" width="610" height="340" as="geometry">
            <mxRectangle width="610" height="340" as="alternateBounds" />
          </mxGeometry>
        </mxCell>
        <mxCell id="iybK_Iyhg3pvKeD9KzFa-81" style="shape=tableRow;horizontal=0;startSize=0;swimlaneHead=0;swimlaneBody=0;top=0;left=0;bottom=0;right=0;dropTarget=0;collapsible=0;recursiveResize=0;expand=0;fontStyle=1;strokeColor=inherit;fillColor=#EAF2D3;align=left;spacing=10;" parent="iybK_Iyhg3pvKeD9KzFa-41" vertex="1">
          <mxGeometry y="1880" width="1010" height="360" as="geometry" />
        </mxCell>
        <mxCell id="iybK_Iyhg3pvKeD9KzFa-82" value="&lt;div style=&quot;color: rgb(26, 26, 26); font-family: &amp;quot;YS Text&amp;quot;, &amp;quot;Helvetica Neue&amp;quot;, Helvetica, Arial, sans-serif; font-size: 15px; background-color: rgb(255, 255, 255);&quot;&gt;&amp;nbsp; &amp;nbsp; &amp;nbsp; Блок запроса № 6&lt;br&gt;&lt;/div&gt;&lt;div style=&quot;color: rgb(26, 26, 26); font-family: &amp;quot;YS Text&amp;quot;, &amp;quot;Helvetica Neue&amp;quot;, Helvetica, Arial, sans-serif; font-size: 15px; background-color: rgb(255, 255, 255);&quot;&gt;&lt;br&gt;&lt;/div&gt;&lt;div style=&quot;color: rgb(26, 26, 26); font-family: &amp;quot;YS Text&amp;quot;, &amp;quot;Helvetica Neue&amp;quot;, Helvetica, Arial, sans-serif; font-size: 15px; background-color: rgb(255, 255, 255);&quot;&gt;&lt;ol&gt;&lt;li&gt;Инсульт у ребенка&lt;/li&gt;&lt;li&gt;Инсульт у детей&lt;/li&gt;&lt;li&gt;Может быть инсульт у ребенка&lt;/li&gt;&lt;li&gt;Почему случается инсульт у детей&lt;/li&gt;&lt;li&gt;Почему случился инсульт у ребенка&lt;/li&gt;&lt;li&gt;Причины инсульта у детей&lt;/li&gt;&lt;li&gt;Причины инсульта у ребенка&lt;/li&gt;&lt;li&gt;Симптомы инсульта у детей&lt;/li&gt;&lt;li&gt;Симптомы инсульта у ребенка&lt;/li&gt;&lt;/ol&gt;&lt;/div&gt;" style="connectable=0;recursiveResize=0;strokeColor=inherit;fillColor=inherit;whiteSpace=wrap;html=1;align=left;spacing=10;" parent="iybK_Iyhg3pvKeD9KzFa-81" vertex="1">
          <mxGeometry width="400" height="360" as="geometry">
            <mxRectangle width="400" height="360" as="alternateBounds" />
          </mxGeometry>
        </mxCell>
        <mxCell id="iybK_Iyhg3pvKeD9KzFa-83" value="&lt;div style=&quot;font-size: 15px;&quot;&gt;&lt;font style=&quot;font-size: 15px;&quot;&gt;У детей тоже бывает инсульт. В зависимости от времени возникновения различают:&lt;/font&gt;&lt;/div&gt;&lt;div style=&quot;font-size: 15px;&quot;&gt;&lt;font style=&quot;font-size: 15px;&quot;&gt;&lt;br&gt;&lt;/font&gt;&lt;/div&gt;&lt;div style=&quot;font-size: 15px;&quot;&gt;&lt;font style=&quot;font-size: 15px;&quot;&gt;&amp;nbsp; &amp;nbsp; •&amp;nbsp; перинатальный инсульт (&lt;a href=&quot;https://orbifond.ru/about-stroke/perinatal-stroke/&quot;&gt;https://orbifond.ru/about-stroke/perinatal-stroke/&lt;/a&gt;), который возникает во время беременности и период новорожденности;&lt;/font&gt;&lt;/div&gt;&lt;div style=&quot;font-size: 15px;&quot;&gt;&lt;font style=&quot;font-size: 15px;&quot;&gt;&amp;nbsp; &amp;nbsp; •&amp;nbsp; детский инсульт (&lt;a href=&quot;https://orbifond.ru/about-stroke/children-s-stroke/&quot;&gt;https://orbifond.ru/about-stroke/children-s-stroke/&lt;/a&gt;), который возникает после 28 дня жизни и до окончания периода детства, то есть 18 лет.&lt;/font&gt;&lt;/div&gt;&lt;div style=&quot;font-size: 15px;&quot;&gt;&lt;font style=&quot;font-size: 15px;&quot;&gt;&lt;br&gt;&lt;/font&gt;&lt;/div&gt;&lt;div style=&quot;font-size: 15px;&quot;&gt;&lt;font style=&quot;font-size: 15px;&quot;&gt;Хотя принято считать, что растущий мозг ребенка имеет больше шансов на восстановление после инсульта, чем мозг взрослого, в восстановлении после инсульта у детей есть целый ряд особенностей. Перед ребенком стоит больше задач, связанных с обучением и освоением самых разных навыков.&lt;/font&gt;&lt;/div&gt;&lt;div style=&quot;font-size: 15px;&quot;&gt;&lt;font style=&quot;font-size: 15px;&quot;&gt;&lt;br&gt;&lt;/font&gt;&lt;/div&gt;&lt;div style=&quot;font-size: 15px;&quot;&gt;&lt;font style=&quot;font-size: 15px;&quot;&gt;Реабилитация ребенка после инсульта должна начинаться немедленно.&lt;/font&gt;&lt;/div&gt;&lt;div style=&quot;font-size: 15px;&quot;&gt;&lt;font style=&quot;font-size: 15px;&quot;&gt;&lt;br&gt;&lt;/font&gt;&lt;/div&gt;&lt;div style=&quot;font-size: 15px;&quot;&gt;&lt;font style=&quot;font-size: 15px;&quot;&gt;Если у вас есть вопросы, связанные с детским инсультом, позвоните на бесплатную горячую линию по инсульту 8 800 707 52 29.&lt;/font&gt;&lt;/div&gt;" style="connectable=0;recursiveResize=0;strokeColor=inherit;fillColor=inherit;whiteSpace=wrap;html=1;align=left;spacing=10;" parent="iybK_Iyhg3pvKeD9KzFa-81" vertex="1">
          <mxGeometry x="400" width="610" height="360" as="geometry">
            <mxRectangle width="610" height="360" as="alternateBounds" />
          </mxGeometry>
        </mxCell>
        <mxCell id="iybK_Iyhg3pvKeD9KzFa-85" style="shape=tableRow;horizontal=0;startSize=0;swimlaneHead=0;swimlaneBody=0;top=0;left=0;bottom=0;right=0;dropTarget=0;collapsible=0;recursiveResize=0;expand=0;fontStyle=1;strokeColor=inherit;fillColor=#EAF2D3;align=left;" parent="iybK_Iyhg3pvKeD9KzFa-41" vertex="1">
          <mxGeometry y="2240" width="1010" height="370" as="geometry" />
        </mxCell>
        <mxCell id="iybK_Iyhg3pvKeD9KzFa-86" value="&lt;div style=&quot;color: rgb(26, 26, 26); font-family: &amp;quot;YS Text&amp;quot;, &amp;quot;Helvetica Neue&amp;quot;, Helvetica, Arial, sans-serif; font-size: 15px; background-color: rgb(255, 255, 255);&quot;&gt;&amp;nbsp; &amp;nbsp; &amp;nbsp; Блок запроса № 7&lt;br&gt;&lt;/div&gt;&lt;div style=&quot;color: rgb(26, 26, 26); font-family: &amp;quot;YS Text&amp;quot;, &amp;quot;Helvetica Neue&amp;quot;, Helvetica, Arial, sans-serif; font-size: 15px; background-color: rgb(255, 255, 255);&quot;&gt;&lt;br&gt;&lt;/div&gt;&lt;div style=&quot;color: rgb(26, 26, 26); font-family: &amp;quot;YS Text&amp;quot;, &amp;quot;Helvetica Neue&amp;quot;, Helvetica, Arial, sans-serif; font-size: 15px; background-color: rgb(255, 255, 255);&quot;&gt;&lt;ol&gt;&lt;li&gt;Не лечат после инсульта&lt;/li&gt;&lt;li&gt;Отказывают в лечении&lt;/li&gt;&lt;/ol&gt;&lt;/div&gt;" style="connectable=0;recursiveResize=0;strokeColor=inherit;fillColor=inherit;whiteSpace=wrap;html=1;align=left;spacing=10;" parent="iybK_Iyhg3pvKeD9KzFa-85" vertex="1">
          <mxGeometry width="400" height="370" as="geometry">
            <mxRectangle width="400" height="370" as="alternateBounds" />
          </mxGeometry>
        </mxCell>
        <mxCell id="iybK_Iyhg3pvKeD9KzFa-87" value="&lt;div style=&quot;font-size: 15px;&quot;&gt;Когда близкий человек столкнулся с инсультом, возникает очень много вопросов, и легко почувствовать растерянность. Не переживайте, вы не одни, мы поможем вам найти основную информацию:&lt;/div&gt;&lt;div style=&quot;font-size: 15px;&quot;&gt;&lt;br style=&quot;font-size: 15px;&quot;&gt;&lt;/div&gt;&lt;div style=&quot;font-size: 15px;&quot;&gt;&amp;nbsp; &amp;nbsp; •&amp;nbsp; Если человек еще лежит в больнице, спросите про его состояние и прогнозы у лечащего врача. Используйте для этого наш чек-лист (&lt;a href=&quot;https://orbifond.ru/about-stroke/questions-to-doctor/&quot;&gt;https://orbifond.ru/about-stroke/questions-to-doctor/&lt;/a&gt;).&lt;/div&gt;&lt;div style=&quot;font-size: 15px;&quot;&gt;&amp;nbsp; &amp;nbsp; •&amp;nbsp; Подготовьтесь к выписке (&lt;a href=&quot;https://orbifond.ru/about-stroke/hospital-discharge/&quot;&gt;https://orbifond.ru/about-stroke/hospital-discharge/&lt;/a&gt;) — обустройте дом, адаптируйте бытовые предметы и продумайте, как вы организуете реабилитацию.&lt;/div&gt;&lt;div style=&quot;font-size: 15px;&quot;&gt;&amp;nbsp; &amp;nbsp; •&amp;nbsp; Очень важно, чтобы реабилитация после инсульта началась как можно раньше. Почитайте (&lt;a href=&quot;https://orbifond.ru/about-stroke/rehabilitation-methods/&quot;&gt;https://orbifond.ru/about-stroke/rehabilitation-methods/&lt;/a&gt;) про сроки и методы реабилитации и выберите (&lt;a href=&quot;https://orbifond.ru/about-stroke/rehabilitation-center/&quot;&gt;https://orbifond.ru/about-stroke/rehabilitation-center/&lt;/a&gt;) реабилитационный центр.&lt;/div&gt;&lt;div style=&quot;font-size: 15px;&quot;&gt;&amp;nbsp; &amp;nbsp; •&amp;nbsp; Риск повторного инсульта весьма велик. Внимательно следите (&lt;a href=&quot;https://orbifond.ru/about-stroke/checkup-after-stroke/&quot;&gt;https://orbifond.ru/about-stroke/checkup-after-stroke/&lt;/a&gt;) за состоянием близкого.&lt;/div&gt;&lt;div style=&quot;font-size: 15px;&quot;&gt;&lt;br style=&quot;font-size: 15px;&quot;&gt;&lt;/div&gt;&lt;div style=&quot;font-size: 15px;&quot;&gt;Если у вас остались вопросы, позвоните на бесплатную горячую линию по инсульту 8 800 707 52 29.&lt;/div&gt;" style="connectable=0;recursiveResize=0;strokeColor=inherit;fillColor=inherit;whiteSpace=wrap;html=1;spacing=10;align=left;fontSize=15;" parent="iybK_Iyhg3pvKeD9KzFa-85" vertex="1">
          <mxGeometry x="400" width="610" height="370" as="geometry">
            <mxRectangle width="610" height="370" as="alternateBounds" />
          </mxGeometry>
        </mxCell>
        <mxCell id="nhxSbMsK15WyxhYmptND-1" style="shape=tableRow;horizontal=0;startSize=0;swimlaneHead=0;swimlaneBody=0;top=0;left=0;bottom=0;right=0;dropTarget=0;collapsible=0;recursiveResize=0;expand=0;fontStyle=1;strokeColor=inherit;fillColor=#EAF2D3;align=left;" vertex="1" parent="iybK_Iyhg3pvKeD9KzFa-41">
          <mxGeometry y="2610" width="1010" height="370" as="geometry" />
        </mxCell>
        <mxCell id="nhxSbMsK15WyxhYmptND-2" value="&lt;div style=&quot;color: rgb(26, 26, 26); font-family: &amp;quot;YS Text&amp;quot;, &amp;quot;Helvetica Neue&amp;quot;, Helvetica, Arial, sans-serif; font-size: 15px; background-color: rgb(255, 255, 255);&quot;&gt;&amp;nbsp; &amp;nbsp; &amp;nbsp; Блок запроса № 8&lt;br style=&quot;font-size: 15px;&quot;&gt;&lt;/div&gt;&lt;div style=&quot;color: rgb(26, 26, 26); font-family: &amp;quot;YS Text&amp;quot;, &amp;quot;Helvetica Neue&amp;quot;, Helvetica, Arial, sans-serif; font-size: 15px; background-color: rgb(255, 255, 255);&quot;&gt;&lt;br style=&quot;font-size: 15px;&quot;&gt;&lt;/div&gt;&lt;div style=&quot;color: rgb(26, 26, 26); font-family: &amp;quot;YS Text&amp;quot;, &amp;quot;Helvetica Neue&amp;quot;, Helvetica, Arial, sans-serif; font-size: 15px; background-color: rgb(255, 255, 255);&quot;&gt;&lt;ol style=&quot;font-size: 15px;&quot;&gt;&lt;li style=&quot;font-size: 15px;&quot;&gt;В больнице после инсульта&lt;/li&gt;&lt;li style=&quot;font-size: 15px;&quot;&gt;Что делать в больнице после инсульта&lt;/li&gt;&lt;li style=&quot;font-size: 15px;&quot;&gt;Что спросить у врача&lt;/li&gt;&lt;/ol&gt;&lt;/div&gt;" style="connectable=0;recursiveResize=0;strokeColor=inherit;fillColor=inherit;whiteSpace=wrap;html=1;align=left;spacing=10;fontSize=15;" vertex="1" parent="nhxSbMsK15WyxhYmptND-1">
          <mxGeometry width="400" height="370" as="geometry">
            <mxRectangle width="400" height="370" as="alternateBounds" />
          </mxGeometry>
        </mxCell>
        <mxCell id="nhxSbMsK15WyxhYmptND-3" value="&lt;div&gt;Когда ваш близкий оказался с инсультом в больнице, возникает очень много вопросов, и легко почувствовать растерянность. Не переживайте, мы подскажем, как лучше действовать:&lt;/div&gt;&lt;div&gt;&lt;br&gt;&lt;/div&gt;&lt;div&gt;&amp;nbsp; &amp;nbsp; •&amp;nbsp; Спросите у врача про состояние близкого. Посмотрите список вопросов (&lt;a href=&quot;https://orbifond.ru/about-stroke/questions-to-doctor/&quot;&gt;https://orbifond.ru/about-stroke/questions-to-doctor/&lt;/a&gt;), которые лучше задать.&lt;/div&gt;&lt;div&gt;&amp;nbsp; &amp;nbsp; •&amp;nbsp; Не привозите близкому все подряд. Выберете те предметы (&lt;a href=&quot;https://orbifond.ru/about-stroke/chto-privezti-v-bolnitsu/&quot;&gt;https://orbifond.ru/about-stroke/chto-privezti-v-bolnitsu/&lt;/a&gt;), которые действительно могут пригодится.&lt;/div&gt;&lt;div&gt;&amp;nbsp; &amp;nbsp; •&amp;nbsp; Подготовьтесь (&lt;a href=&quot;https://orbifond.ru/about-stroke/hospital-discharge/&quot;&gt;https://orbifond.ru/about-stroke/hospital-discharge/&lt;/a&gt;) к выписке и узнайте как можно больше (&lt;a href=&quot;https://orbifond.ru/about-stroke/improper-rehabilitation/&quot;&gt;https://orbifond.ru/about-stroke/improper-rehabilitation/&lt;/a&gt;) про реабилитацию после инсульта.&lt;/div&gt;&lt;div&gt;&lt;br&gt;&lt;/div&gt;&lt;div&gt;Если у вас будут вопросы, позвоните на бесплатную горячую линию по инсульту 8 800 707 52 29&lt;/div&gt;" style="connectable=0;recursiveResize=0;strokeColor=inherit;fillColor=inherit;whiteSpace=wrap;html=1;spacing=10;align=left;fontSize=15;" vertex="1" parent="nhxSbMsK15WyxhYmptND-1">
          <mxGeometry x="400" width="610" height="370" as="geometry">
            <mxRectangle width="610" height="370" as="alternateBounds" />
          </mxGeometry>
        </mxCell>
        <mxCell id="iybK_Iyhg3pvKeD9KzFa-88" style="shape=tableRow;horizontal=0;startSize=0;swimlaneHead=0;swimlaneBody=0;top=0;left=0;bottom=0;right=0;dropTarget=0;collapsible=0;recursiveResize=0;expand=0;fontStyle=1;strokeColor=inherit;fillColor=#EAF2D3;" parent="iybK_Iyhg3pvKeD9KzFa-41" vertex="1">
          <mxGeometry y="2980" width="1010" height="340" as="geometry" />
        </mxCell>
        <mxCell id="iybK_Iyhg3pvKeD9KzFa-89" value="&lt;div style=&quot;color: rgb(26, 26, 26); font-family: &amp;quot;YS Text&amp;quot;, &amp;quot;Helvetica Neue&amp;quot;, Helvetica, Arial, sans-serif; font-size: 15px; background-color: rgb(255, 255, 255);&quot;&gt;&amp;nbsp; &amp;nbsp; &amp;nbsp; Блок запроса № 9&lt;br&gt;&lt;/div&gt;&lt;div style=&quot;color: rgb(26, 26, 26); font-family: &amp;quot;YS Text&amp;quot;, &amp;quot;Helvetica Neue&amp;quot;, Helvetica, Arial, sans-serif; font-size: 15px; background-color: rgb(255, 255, 255);&quot;&gt;&lt;br&gt;&lt;/div&gt;&lt;div style=&quot;color: rgb(26, 26, 26); font-family: &amp;quot;YS Text&amp;quot;, &amp;quot;Helvetica Neue&amp;quot;, Helvetica, Arial, sans-serif; font-size: 15px; background-color: rgb(255, 255, 255);&quot;&gt;&lt;ol&gt;&lt;li&gt;Что нельзя после инсульта&lt;/li&gt;&lt;li&gt;Запреты после инсульта&lt;/li&gt;&lt;/ol&gt;&lt;/div&gt;" style="connectable=0;recursiveResize=0;strokeColor=inherit;fillColor=inherit;whiteSpace=wrap;html=1;align=left;spacing=10;" parent="iybK_Iyhg3pvKeD9KzFa-88" vertex="1">
          <mxGeometry width="400" height="340" as="geometry">
            <mxRectangle width="400" height="340" as="alternateBounds" />
          </mxGeometry>
        </mxCell>
        <mxCell id="iybK_Iyhg3pvKeD9KzFa-90" value="&lt;div style=&quot;color: rgb(26, 26, 26); font-family: &amp;quot;YS Text&amp;quot;, &amp;quot;Helvetica Neue&amp;quot;, Helvetica, Arial, sans-serif; font-size: 15px; background-color: rgb(255, 255, 255);&quot;&gt;Запреты и ограничения нужно обсуждать с лечащим врачом. Человек должен быть&lt;/div&gt;&lt;div style=&quot;color: rgb(26, 26, 26); font-family: &amp;quot;YS Text&amp;quot;, &amp;quot;Helvetica Neue&amp;quot;, Helvetica, Arial, sans-serif; font-size: 15px; background-color: rgb(255, 255, 255);&quot;&gt;активен в том объеме, в котором он может, и этот объем движений необходимо&lt;/div&gt;&lt;div style=&quot;color: rgb(26, 26, 26); font-family: &amp;quot;YS Text&amp;quot;, &amp;quot;Helvetica Neue&amp;quot;, Helvetica, Arial, sans-serif; font-size: 15px; background-color: rgb(255, 255, 255);&quot;&gt;расширять.&lt;/div&gt;&lt;div style=&quot;color: rgb(26, 26, 26); font-family: &amp;quot;YS Text&amp;quot;, &amp;quot;Helvetica Neue&amp;quot;, Helvetica, Arial, sans-serif; font-size: 15px; background-color: rgb(255, 255, 255);&quot;&gt;&lt;div style=&quot;font-size: 15px;&quot;&gt;&lt;div&gt;Ограничения по качеству движения определят врачи — лечащий врач невролог и врач&lt;/div&gt;&lt;div&gt;по лечебной физкультуре. Если они определили, что двигаться можно, значит&lt;/div&gt;&lt;div&gt;двигаться нужно.&lt;/div&gt;&lt;div&gt;Подробнее&lt;u&gt; можно почитать здесь&lt;/u&gt;.&lt;/div&gt;&lt;div&gt;&lt;br&gt;&lt;/div&gt;&lt;div&gt;(Запрос не обрабатываеться ботом)&lt;/div&gt;&lt;div&gt;&lt;br&gt;&lt;/div&gt;&lt;/div&gt;&lt;/div&gt;" style="connectable=0;recursiveResize=0;strokeColor=inherit;fillColor=inherit;whiteSpace=wrap;html=1;fontSize=15;align=left;spacing=9;" parent="iybK_Iyhg3pvKeD9KzFa-88" vertex="1">
          <mxGeometry x="400" width="610" height="340" as="geometry">
            <mxRectangle width="610" height="340" as="alternateBounds" />
          </mxGeometry>
        </mxCell>
        <mxCell id="iybK_Iyhg3pvKeD9KzFa-91" style="shape=tableRow;horizontal=0;startSize=0;swimlaneHead=0;swimlaneBody=0;top=0;left=0;bottom=0;right=0;dropTarget=0;collapsible=0;recursiveResize=0;expand=0;fontStyle=1;strokeColor=inherit;fillColor=#EAF2D3;" parent="iybK_Iyhg3pvKeD9KzFa-41" vertex="1">
          <mxGeometry y="3320" width="1010" height="330" as="geometry" />
        </mxCell>
        <mxCell id="iybK_Iyhg3pvKeD9KzFa-92" value="&lt;div style=&quot;color: rgb(26, 26, 26); font-family: &amp;quot;YS Text&amp;quot;, &amp;quot;Helvetica Neue&amp;quot;, Helvetica, Arial, sans-serif; font-size: 16px; background-color: rgb(255, 255, 255);&quot;&gt;&amp;nbsp; &amp;nbsp; &amp;nbsp; Блок запроса № 10&lt;br&gt;&lt;/div&gt;&lt;div style=&quot;color: rgb(26, 26, 26); font-family: &amp;quot;YS Text&amp;quot;, &amp;quot;Helvetica Neue&amp;quot;, Helvetica, Arial, sans-serif; font-size: 16px; background-color: rgb(255, 255, 255);&quot;&gt;&lt;br&gt;&lt;/div&gt;&lt;div style=&quot;color: rgb(26, 26, 26); font-family: &amp;quot;YS Text&amp;quot;, &amp;quot;Helvetica Neue&amp;quot;, Helvetica, Arial, sans-serif; font-size: 16px; background-color: rgb(255, 255, 255);&quot;&gt;&lt;ol&gt;&lt;li&gt;Что такое реабилитация после инсульта&lt;/li&gt;&lt;li&gt;Когда начинается реабилитация&lt;/li&gt;&lt;li&gt;Когда начать реабилитацию&lt;/li&gt;&lt;li&gt;Нужна ли реабилитация&lt;/li&gt;&lt;li&gt;Нужно ли проходить реабилитацию&lt;/li&gt;&lt;li&gt;Что входит в реабилитацию&lt;/li&gt;&lt;li&gt;Кому нужна реабилитация после инсульта&lt;/li&gt;&lt;/ol&gt;&lt;/div&gt;" style="connectable=0;recursiveResize=0;strokeColor=inherit;fillColor=inherit;whiteSpace=wrap;html=1;fontSize=16;spacing=10;align=left;" parent="iybK_Iyhg3pvKeD9KzFa-91" vertex="1">
          <mxGeometry width="400" height="330" as="geometry">
            <mxRectangle width="400" height="330" as="alternateBounds" />
          </mxGeometry>
        </mxCell>
        <mxCell id="iybK_Iyhg3pvKeD9KzFa-93" value="&lt;div style=&quot;font-size: 15px;&quot;&gt;Препаратов, восстанавливающих функции мозга, нет. Поэтому всем людям после инсульта нужна комплексная реабилитация. Реабилитацию нужно начинать как можно раньше, чтобы шанс вернуть человека к нормальной жизни был максимально высок. Все мероприятия начинаются еще в больнице.&lt;/div&gt;&lt;div style=&quot;font-size: 15px;&quot;&gt;&lt;br style=&quot;font-size: 15px;&quot;&gt;&lt;/div&gt;&lt;div style=&quot;font-size: 15px;&quot;&gt;Также очень важен мультидисциплинарный организованный подход. Последствия инсульта затрагивают нескольких разных сфер. Поэтому контролировать восстановление должна команда специалистов: невролог, логопед, нейропсихолог, эрготерапевт и физический терапевт.&lt;/div&gt;&lt;div style=&quot;font-size: 15px;&quot;&gt;&lt;br style=&quot;font-size: 15px;&quot;&gt;&lt;/div&gt;&lt;div style=&quot;font-size: 15px;&quot;&gt;Еще важные принципы реабилитации — непрерывность и регулярность. Нужно заниматься с близким каждый день, как только врач даст на это разрешение.&lt;/div&gt;&lt;div style=&quot;font-size: 15px;&quot;&gt;&lt;br style=&quot;font-size: 15px;&quot;&gt;&lt;/div&gt;&lt;div style=&quot;font-size: 15px;&quot;&gt;Если у вас есть вопросы по реабилитации, позвоните на бесплатную горячую линию по инсульту 8 800 707 52 29.&lt;/div&gt;" style="connectable=0;recursiveResize=0;strokeColor=inherit;fillColor=inherit;whiteSpace=wrap;html=1;align=left;spacing=9;fontSize=15;" parent="iybK_Iyhg3pvKeD9KzFa-91" vertex="1">
          <mxGeometry x="400" width="610" height="330" as="geometry">
            <mxRectangle width="610" height="330" as="alternateBounds" />
          </mxGeometry>
        </mxCell>
        <mxCell id="iybK_Iyhg3pvKeD9KzFa-103" style="shape=tableRow;horizontal=0;startSize=0;swimlaneHead=0;swimlaneBody=0;top=0;left=0;bottom=0;right=0;dropTarget=0;collapsible=0;recursiveResize=0;expand=0;fontStyle=1;strokeColor=inherit;fillColor=#EAF2D3;" parent="iybK_Iyhg3pvKeD9KzFa-41" vertex="1">
          <mxGeometry y="3650" width="1010" height="280" as="geometry" />
        </mxCell>
        <mxCell id="iybK_Iyhg3pvKeD9KzFa-104" value="&lt;div style=&quot;color: rgb(26, 26, 26); font-family: &amp;quot;YS Text&amp;quot;, &amp;quot;Helvetica Neue&amp;quot;, Helvetica, Arial, sans-serif; font-size: 15px; background-color: rgb(255, 255, 255);&quot;&gt;&amp;nbsp; &amp;nbsp; &amp;nbsp; &amp;nbsp;Блок запроса № 11&lt;br&gt;&lt;/div&gt;&lt;div style=&quot;color: rgb(26, 26, 26); font-family: &amp;quot;YS Text&amp;quot;, &amp;quot;Helvetica Neue&amp;quot;, Helvetica, Arial, sans-serif; font-size: 15px; background-color: rgb(255, 255, 255);&quot;&gt;&lt;br&gt;&lt;/div&gt;&lt;div style=&quot;color: rgb(26, 26, 26); font-family: &amp;quot;YS Text&amp;quot;, &amp;quot;Helvetica Neue&amp;quot;, Helvetica, Arial, sans-serif; font-size: 15px; background-color: rgb(255, 255, 255);&quot;&gt;&lt;ol&gt;&lt;li&gt;Как оформить инвалидность&lt;/li&gt;&lt;li&gt;Как получить инвалидность&lt;/li&gt;&lt;li&gt;Инвалидность после инсульта&lt;/li&gt;&lt;li&gt;Когда дают инвалидность после инсульта&lt;/li&gt;&lt;li&gt;Как оформить инвалидность после инсульта&lt;/li&gt;&lt;/ol&gt;&lt;/div&gt;" style="connectable=0;recursiveResize=0;strokeColor=inherit;fillColor=inherit;whiteSpace=wrap;html=1;align=left;spacing=10;fontSize=15;" parent="iybK_Iyhg3pvKeD9KzFa-103" vertex="1">
          <mxGeometry width="400" height="280" as="geometry">
            <mxRectangle width="400" height="280" as="alternateBounds" />
          </mxGeometry>
        </mxCell>
        <mxCell id="iybK_Iyhg3pvKeD9KzFa-105" value="&lt;div style=&quot;background-color: rgb(255, 255, 255);&quot;&gt;&lt;div style=&quot;&quot;&gt;&lt;font face=&quot;YS Text, Helvetica Neue, Helvetica, Arial, sans-serif&quot; color=&quot;#1a1a1a&quot;&gt;Люди, которые столкнулись с осложнениями после инсульта, могут оформить инвалидность и получить льготы. В зависимости от тяжести заболевания могут присвоить первую, вторую или третью группу инвалидности (первая — самая тяжелая).&lt;/font&gt;&lt;/div&gt;&lt;div style=&quot;&quot;&gt;&lt;font face=&quot;YS Text, Helvetica Neue, Helvetica, Arial, sans-serif&quot; color=&quot;#1a1a1a&quot;&gt;&lt;br&gt;&lt;/font&gt;&lt;/div&gt;&lt;div style=&quot;&quot;&gt;&lt;font face=&quot;YS Text, Helvetica Neue, Helvetica, Arial, sans-serif&quot; color=&quot;#1a1a1a&quot;&gt;Чтобы оформить инвалидность, сначала нужно получить направление на медико-социальную экспертизу (МСЭ).&lt;/font&gt;&lt;/div&gt;&lt;div style=&quot;&quot;&gt;&lt;font face=&quot;YS Text, Helvetica Neue, Helvetica, Arial, sans-serif&quot; color=&quot;#1a1a1a&quot;&gt;&lt;br&gt;&lt;/font&gt;&lt;/div&gt;&lt;div style=&quot;&quot;&gt;&lt;font face=&quot;YS Text, Helvetica Neue, Helvetica, Arial, sans-serif&quot; color=&quot;#1a1a1a&quot;&gt;По результатам экспертизы специалисты бюро МСЭ принимают решение. Пациента могут признать или не признать человеком с инвалидностью. Если признают, то установят группу и разработают индивидуальную программу реабилитации (ИПРА).&lt;/font&gt;&lt;/div&gt;&lt;div style=&quot;&quot;&gt;&lt;font face=&quot;YS Text, Helvetica Neue, Helvetica, Arial, sans-serif&quot; color=&quot;#1a1a1a&quot;&gt;&lt;br&gt;&lt;/font&gt;&lt;/div&gt;&lt;div style=&quot;&quot;&gt;&lt;font face=&quot;YS Text, Helvetica Neue, Helvetica, Arial, sans-serif&quot; color=&quot;#1a1a1a&quot;&gt;Подробную информацию мы собрали здесь (&lt;a href=&quot;https://orbifond.ru/about-stroke/disability-after-stroke/&quot;&gt;https://orbifond.ru/about-stroke/disability-after-stroke/&lt;/a&gt;).&lt;/font&gt;&lt;/div&gt;&lt;/div&gt;" style="connectable=0;recursiveResize=0;strokeColor=inherit;fillColor=inherit;whiteSpace=wrap;html=1;spacing=10;fontSize=15;align=left;" parent="iybK_Iyhg3pvKeD9KzFa-103" vertex="1">
          <mxGeometry x="400" width="610" height="280" as="geometry">
            <mxRectangle width="610" height="280" as="alternateBounds" />
          </mxGeometry>
        </mxCell>
        <mxCell id="iybK_Iyhg3pvKeD9KzFa-100" style="shape=tableRow;horizontal=0;startSize=0;swimlaneHead=0;swimlaneBody=0;top=0;left=0;bottom=0;right=0;dropTarget=0;collapsible=0;recursiveResize=0;expand=0;fontStyle=1;strokeColor=inherit;fillColor=#EAF2D3;spacing=10;" parent="iybK_Iyhg3pvKeD9KzFa-41" vertex="1">
          <mxGeometry y="3930" width="1010" height="390" as="geometry" />
        </mxCell>
        <mxCell id="iybK_Iyhg3pvKeD9KzFa-101" value="&lt;div style=&quot;color: rgb(26, 26, 26); font-family: &amp;quot;YS Text&amp;quot;, &amp;quot;Helvetica Neue&amp;quot;, Helvetica, Arial, sans-serif; font-size: 15px; background-color: rgb(255, 255, 255);&quot;&gt;&amp;nbsp; &amp;nbsp; &amp;nbsp; Блок запроса № 12&lt;br&gt;&lt;/div&gt;&lt;div style=&quot;color: rgb(26, 26, 26); font-family: &amp;quot;YS Text&amp;quot;, &amp;quot;Helvetica Neue&amp;quot;, Helvetica, Arial, sans-serif; font-size: 15px; background-color: rgb(255, 255, 255);&quot;&gt;&lt;br&gt;&lt;/div&gt;&lt;div style=&quot;color: rgb(26, 26, 26); font-family: &amp;quot;YS Text&amp;quot;, &amp;quot;Helvetica Neue&amp;quot;, Helvetica, Arial, sans-serif; font-size: 15px; background-color: rgb(255, 255, 255);&quot;&gt;&lt;ol&gt;&lt;li&gt;Реабилитационный центр после инсульта&lt;/li&gt;&lt;li&gt;Где проходить реабилитацию после инсульта&lt;/li&gt;&lt;li&gt;Как выбрать реабилитационный центр&lt;/li&gt;&lt;li&gt;Какой реабилитационный центр после инсульта&lt;/li&gt;&lt;/ol&gt;&lt;/div&gt;" style="connectable=0;recursiveResize=0;strokeColor=inherit;fillColor=inherit;whiteSpace=wrap;html=1;align=left;spacing=10;fontSize=15;" parent="iybK_Iyhg3pvKeD9KzFa-100" vertex="1">
          <mxGeometry width="400" height="390" as="geometry">
            <mxRectangle width="400" height="390" as="alternateBounds" />
          </mxGeometry>
        </mxCell>
        <mxCell id="iybK_Iyhg3pvKeD9KzFa-102" value="&lt;div style=&quot;background-color: rgb(255, 255, 255);&quot;&gt;&lt;div style=&quot;&quot;&gt;&lt;font face=&quot;YS Text, Helvetica Neue, Helvetica, Arial, sans-serif&quot; color=&quot;#1a1a1a&quot;&gt;Реабилитация после инсульта — это процесс, требующий знаний и способностей объединить различные методы в комплексную программу. Поэтому восстанавливать утраченные функции лучше всего в реабилитационном центре.&lt;/font&gt;&lt;/div&gt;&lt;div style=&quot;&quot;&gt;&lt;font face=&quot;YS Text, Helvetica Neue, Helvetica, Arial, sans-serif&quot; color=&quot;#1a1a1a&quot;&gt;&lt;br&gt;&lt;/font&gt;&lt;/div&gt;&lt;div style=&quot;&quot;&gt;&lt;font face=&quot;YS Text, Helvetica Neue, Helvetica, Arial, sans-serif&quot; color=&quot;#1a1a1a&quot;&gt;На что обратить внимание при выборе центра:&lt;/font&gt;&lt;/div&gt;&lt;div style=&quot;&quot;&gt;&lt;font face=&quot;YS Text, Helvetica Neue, Helvetica, Arial, sans-serif&quot; color=&quot;#1a1a1a&quot;&gt;&lt;br&gt;&lt;/font&gt;&lt;/div&gt;&lt;div style=&quot;&quot;&gt;&lt;font face=&quot;YS Text, Helvetica Neue, Helvetica, Arial, sans-serif&quot; color=&quot;#1a1a1a&quot;&gt;&amp;nbsp; &amp;nbsp; •&amp;nbsp; Лицензия. Любой реабилитационный центр — это медицинская организация. Сканы лицензии можно найти на сайте или попросить сотрудников их показать.&lt;/font&gt;&lt;/div&gt;&lt;div style=&quot;&quot;&gt;&lt;font face=&quot;YS Text, Helvetica Neue, Helvetica, Arial, sans-serif&quot; color=&quot;#1a1a1a&quot;&gt;&amp;nbsp; &amp;nbsp; •&amp;nbsp; Специалисты. Реабилитация — это комплекс восстановительных процедур. Хорошо, если в центре работают: лечащий врач-терапевт или врач-реабилитолог, физический терапевт, эрготерапевт, нейропсихолог, логопед, клинический психолог или психотерапевт.&lt;/font&gt;&lt;/div&gt;&lt;div style=&quot;&quot;&gt;&lt;font face=&quot;YS Text, Helvetica Neue, Helvetica, Arial, sans-serif&quot; color=&quot;#1a1a1a&quot;&gt;&amp;nbsp; &amp;nbsp; •&amp;nbsp; Методы реабилитации. Стоит спросить, какие методы используют в центре. Методы реабилитации с доказанной эффективностью: физическая терапия, эрготерапия, лекарственная терапия, помощь психолога и логопеда.&lt;/font&gt;&lt;/div&gt;&lt;div style=&quot;&quot;&gt;&lt;font face=&quot;YS Text, Helvetica Neue, Helvetica, Arial, sans-serif&quot; color=&quot;#1a1a1a&quot;&gt;&lt;br&gt;&lt;/font&gt;&lt;/div&gt;&lt;div style=&quot;&quot;&gt;&lt;font face=&quot;YS Text, Helvetica Neue, Helvetica, Arial, sans-serif&quot; color=&quot;#1a1a1a&quot;&gt;Подробнее про выбор центра вы можете почитать здесь (&lt;a href=&quot;https://orbifond.ru/about-stroke/rehabilitation-center/&quot;&gt;https://orbifond.ru/about-stroke/rehabilitation-center/&lt;/a&gt;) или задать вопросы специалистам на бесплатной горячей линии по инсульту 8 800 707 52 29.&lt;/font&gt;&lt;/div&gt;&lt;/div&gt;" style="connectable=0;recursiveResize=0;strokeColor=inherit;fillColor=inherit;whiteSpace=wrap;html=1;fontSize=15;align=left;spacing=10;" parent="iybK_Iyhg3pvKeD9KzFa-100" vertex="1">
          <mxGeometry x="400" width="610" height="390" as="geometry">
            <mxRectangle width="610" height="390" as="alternateBounds" />
          </mxGeometry>
        </mxCell>
        <mxCell id="iybK_Iyhg3pvKeD9KzFa-127" style="shape=tableRow;horizontal=0;startSize=0;swimlaneHead=0;swimlaneBody=0;top=0;left=0;bottom=0;right=0;dropTarget=0;collapsible=0;recursiveResize=0;expand=0;fontStyle=1;strokeColor=inherit;fillColor=#EAF2D3;" parent="iybK_Iyhg3pvKeD9KzFa-41" vertex="1">
          <mxGeometry y="4320" width="1010" height="230" as="geometry" />
        </mxCell>
        <mxCell id="iybK_Iyhg3pvKeD9KzFa-128" value="&lt;div style=&quot;color: rgb(26, 26, 26); font-family: &amp;quot;YS Text&amp;quot;, &amp;quot;Helvetica Neue&amp;quot;, Helvetica, Arial, sans-serif; font-size: 15px; background-color: rgb(255, 255, 255);&quot;&gt;&amp;nbsp; &amp;nbsp; &amp;nbsp; Блок запроса № 13&lt;br&gt;&lt;/div&gt;&lt;div style=&quot;color: rgb(26, 26, 26); font-family: &amp;quot;YS Text&amp;quot;, &amp;quot;Helvetica Neue&amp;quot;, Helvetica, Arial, sans-serif; font-size: 15px; background-color: rgb(255, 255, 255);&quot;&gt;&lt;br&gt;&lt;/div&gt;&lt;div style=&quot;color: rgb(26, 26, 26); font-family: &amp;quot;YS Text&amp;quot;, &amp;quot;Helvetica Neue&amp;quot;, Helvetica, Arial, sans-serif; font-size: 15px; background-color: rgb(255, 255, 255);&quot;&gt;&lt;ol&gt;&lt;li&gt;Как получить лекарства после инсульта&lt;/li&gt;&lt;li&gt;Бесплатные лекарства после инсульта&lt;/li&gt;&lt;li&gt;Кому положены бесплатные лекарства&lt;/li&gt;&lt;li&gt;Как получить бесплатные лекарства&lt;/li&gt;&lt;li&gt;Не дают лекарства после инсульта&lt;/li&gt;&lt;/ol&gt;&lt;/div&gt;" style="connectable=0;recursiveResize=0;strokeColor=inherit;fillColor=inherit;whiteSpace=wrap;html=1;align=left;fontSize=15;spacing=10;" parent="iybK_Iyhg3pvKeD9KzFa-127" vertex="1">
          <mxGeometry width="400" height="230" as="geometry">
            <mxRectangle width="400" height="230" as="alternateBounds" />
          </mxGeometry>
        </mxCell>
        <mxCell id="iybK_Iyhg3pvKeD9KzFa-129" value="&lt;div style=&quot;font-size: 15px;&quot;&gt;Людям, которые перенесли инсульт, положены бесплатные лекарства. В перечень, который утвердил Минздрав, входит 23 препарата. Врач назначает необходимые для конкретного человека лекарства.&lt;/div&gt;&lt;div style=&quot;font-size: 15px;&quot;&gt;&lt;br style=&quot;font-size: 15px;&quot;&gt;&lt;/div&gt;&lt;div style=&quot;font-size: 15px;&quot;&gt;После выписки из больницы, чтобы получить бесплатные препараты, нужно обратиться в поликлинику по месту жительства и предоставить заключения и результаты анализов, подтверждающие диагноз.&lt;/div&gt;&lt;div style=&quot;font-size: 15px;&quot;&gt;&lt;br style=&quot;font-size: 15px;&quot;&gt;&lt;/div&gt;&lt;div style=&quot;font-size: 15px;&quot;&gt;Что делать, если врач отказался выписать лекарства, подробно объясняем здесь (&lt;a href=&quot;https://orbifond.ru/about-stroke/free-medicines-after-stroke/&quot;&gt;https://orbifond.ru/about-stroke/free-medicines-after-stroke/&lt;/a&gt;).&lt;/div&gt;" style="connectable=0;recursiveResize=0;strokeColor=inherit;fillColor=inherit;whiteSpace=wrap;html=1;align=left;fontSize=15;spacing=10;" parent="iybK_Iyhg3pvKeD9KzFa-127" vertex="1">
          <mxGeometry x="400" width="610" height="230" as="geometry">
            <mxRectangle width="610" height="230" as="alternateBounds" />
          </mxGeometry>
        </mxCell>
        <mxCell id="iybK_Iyhg3pvKeD9KzFa-124" style="shape=tableRow;horizontal=0;startSize=0;swimlaneHead=0;swimlaneBody=0;top=0;left=0;bottom=0;right=0;dropTarget=0;collapsible=0;recursiveResize=0;expand=0;fontStyle=1;strokeColor=inherit;fillColor=#EAF2D3;" parent="iybK_Iyhg3pvKeD9KzFa-41" vertex="1">
          <mxGeometry y="4550" width="1010" height="300" as="geometry" />
        </mxCell>
        <mxCell id="iybK_Iyhg3pvKeD9KzFa-125" value="&lt;div style=&quot;color: rgb(26, 26, 26); font-family: &amp;quot;YS Text&amp;quot;, &amp;quot;Helvetica Neue&amp;quot;, Helvetica, Arial, sans-serif; font-size: 15px; background-color: rgb(255, 255, 255);&quot;&gt;&amp;nbsp; &amp;nbsp; &amp;nbsp; Блок запроса № 14&lt;br&gt;&lt;/div&gt;&lt;div style=&quot;color: rgb(26, 26, 26); font-family: &amp;quot;YS Text&amp;quot;, &amp;quot;Helvetica Neue&amp;quot;, Helvetica, Arial, sans-serif; font-size: 15px; background-color: rgb(255, 255, 255);&quot;&gt;&lt;br&gt;&lt;/div&gt;&lt;div style=&quot;color: rgb(26, 26, 26); font-family: &amp;quot;YS Text&amp;quot;, &amp;quot;Helvetica Neue&amp;quot;, Helvetica, Arial, sans-serif; font-size: 15px; background-color: rgb(255, 255, 255);&quot;&gt;&lt;ol&gt;&lt;li&gt;Лекарства после инсульта&lt;/li&gt;&lt;li&gt;Какие лекарства нужны после инсульта&lt;/li&gt;&lt;li&gt;Вылечить инсульт лекарствами&lt;/li&gt;&lt;li&gt;Какие лекарства лечат инсульт&lt;/li&gt;&lt;/ol&gt;&lt;/div&gt;" style="connectable=0;recursiveResize=0;strokeColor=inherit;fillColor=inherit;whiteSpace=wrap;html=1;align=left;spacing=10;fontSize=15;" parent="iybK_Iyhg3pvKeD9KzFa-124" vertex="1">
          <mxGeometry width="400" height="300" as="geometry">
            <mxRectangle width="400" height="300" as="alternateBounds" />
          </mxGeometry>
        </mxCell>
        <mxCell id="iybK_Iyhg3pvKeD9KzFa-126" value="&lt;div style=&quot;font-size: 15px;&quot;&gt;Все лекарства назначает врач. Но важно помнить, что препаратов, восстанавливающих функции мозга, нет. Терапия направлена на контроль хронических заболеваний и профилактику повторного инсульта.&lt;/div&gt;&lt;div style=&quot;font-size: 15px;&quot;&gt;&lt;br style=&quot;font-size: 15px;&quot;&gt;&lt;/div&gt;&lt;div style=&quot;font-size: 15px;&quot;&gt;Поэтому обязательно аккуратно и дисциплинированно принимать препараты по снижению артериального давления, контролю сахара крови, статины, если они прописаны врачом.&lt;/div&gt;&lt;div style=&quot;font-size: 15px;&quot;&gt;&lt;br style=&quot;font-size: 15px;&quot;&gt;&lt;/div&gt;&lt;div style=&quot;font-size: 15px;&quot;&gt;Но рассчитывать только на лекарства нельзя. Нужно заниматься комплексной реабилитацией.&lt;/div&gt;&lt;div style=&quot;font-size: 15px;&quot;&gt;&lt;br style=&quot;font-size: 15px;&quot;&gt;&lt;/div&gt;&lt;div style=&quot;font-size: 15px;&quot;&gt;Как получить бесплатные лекарства после инсульта, вы можете узнать здесь (&lt;a href=&quot;https://orbifond.ru/about-stroke/free-medicines-after-stroke/&quot;&gt;https://orbifond.ru/about-stroke/free-medicines-after-stroke/&lt;/a&gt;).&lt;/div&gt;" style="connectable=0;recursiveResize=0;strokeColor=inherit;fillColor=inherit;whiteSpace=wrap;html=1;align=left;spacing=10;fontSize=15;" parent="iybK_Iyhg3pvKeD9KzFa-124" vertex="1">
          <mxGeometry x="400" width="610" height="300" as="geometry">
            <mxRectangle width="610" height="300" as="alternateBounds" />
          </mxGeometry>
        </mxCell>
        <mxCell id="iybK_Iyhg3pvKeD9KzFa-121" style="shape=tableRow;horizontal=0;startSize=0;swimlaneHead=0;swimlaneBody=0;top=0;left=0;bottom=0;right=0;dropTarget=0;collapsible=0;recursiveResize=0;expand=0;fontStyle=1;strokeColor=inherit;fillColor=#EAF2D3;" parent="iybK_Iyhg3pvKeD9KzFa-41" vertex="1">
          <mxGeometry y="4850" width="1010" height="270" as="geometry" />
        </mxCell>
        <mxCell id="iybK_Iyhg3pvKeD9KzFa-122" value="&lt;div style=&quot;color: rgb(26, 26, 26); font-family: &amp;quot;YS Text&amp;quot;, &amp;quot;Helvetica Neue&amp;quot;, Helvetica, Arial, sans-serif; font-size: 15px; background-color: rgb(255, 255, 255);&quot;&gt;&amp;nbsp; &amp;nbsp; &amp;nbsp; Блок запроса № 15&lt;br&gt;&lt;/div&gt;&lt;div style=&quot;color: rgb(26, 26, 26); font-family: &amp;quot;YS Text&amp;quot;, &amp;quot;Helvetica Neue&amp;quot;, Helvetica, Arial, sans-serif; font-size: 15px; background-color: rgb(255, 255, 255);&quot;&gt;&lt;br&gt;&lt;/div&gt;&lt;div style=&quot;color: rgb(26, 26, 26); font-family: &amp;quot;YS Text&amp;quot;, &amp;quot;Helvetica Neue&amp;quot;, Helvetica, Arial, sans-serif; font-size: 15px; background-color: rgb(255, 255, 255);&quot;&gt;&lt;ol&gt;&lt;li&gt;Как получить льготы&lt;/li&gt;&lt;li&gt;Как оформить льготы&lt;/li&gt;&lt;li&gt;Льготы после инсульта&lt;/li&gt;&lt;li&gt;Какие льготы после инсульта&lt;/li&gt;&lt;/ol&gt;&lt;/div&gt;" style="connectable=0;recursiveResize=0;strokeColor=inherit;fillColor=inherit;whiteSpace=wrap;html=1;align=left;spacing=10;fontSize=15;" parent="iybK_Iyhg3pvKeD9KzFa-121" vertex="1">
          <mxGeometry width="400" height="270" as="geometry">
            <mxRectangle width="400" height="270" as="alternateBounds" />
          </mxGeometry>
        </mxCell>
        <mxCell id="iybK_Iyhg3pvKeD9KzFa-123" value="&lt;div style=&quot;background-color: rgb(255, 255, 255);&quot;&gt;&lt;div style=&quot;&quot;&gt;&lt;font face=&quot;YS Text, Helvetica Neue, Helvetica, Arial, sans-serif&quot; color=&quot;#1a1a1a&quot;&gt;Инвалидность после инсульта дает право на льготы. Перечень льгот зависит от состояния здоровья и присвоенной группы инвалидности.&lt;/font&gt;&lt;/div&gt;&lt;div style=&quot;&quot;&gt;&lt;font face=&quot;YS Text, Helvetica Neue, Helvetica, Arial, sans-serif&quot; color=&quot;#1a1a1a&quot;&gt;&lt;br&gt;&lt;/font&gt;&lt;/div&gt;&lt;div style=&quot;&quot;&gt;&lt;font face=&quot;YS Text, Helvetica Neue, Helvetica, Arial, sans-serif&quot; color=&quot;#1a1a1a&quot;&gt;После того, как человек прошел медико-социальную экспертизу (МСЭ), получил справку об инвалидности и индивидуальную программу реабилитации (ИПРА), он может оформлять льготы.&lt;/font&gt;&lt;/div&gt;&lt;div style=&quot;&quot;&gt;&lt;font face=&quot;YS Text, Helvetica Neue, Helvetica, Arial, sans-serif&quot; color=&quot;#1a1a1a&quot;&gt;&lt;br&gt;&lt;/font&gt;&lt;/div&gt;&lt;div style=&quot;&quot;&gt;&lt;font face=&quot;YS Text, Helvetica Neue, Helvetica, Arial, sans-serif&quot; color=&quot;#1a1a1a&quot;&gt;Людям с инвалидностью положены денежные выплаты, льготы на лекарства и коммунальные платежи, транспортные и налоговые льготы, льготы на образование.&lt;/font&gt;&lt;/div&gt;&lt;div style=&quot;&quot;&gt;&lt;font face=&quot;YS Text, Helvetica Neue, Helvetica, Arial, sans-serif&quot; color=&quot;#1a1a1a&quot;&gt;&lt;br&gt;&lt;/font&gt;&lt;/div&gt;&lt;div style=&quot;&quot;&gt;&lt;font face=&quot;YS Text, Helvetica Neue, Helvetica, Arial, sans-serif&quot; color=&quot;#1a1a1a&quot;&gt;Как получить инвалидность после инсульта, подробно рассказываем здесь (&lt;a href=&quot;https://orbifond.ru/about-stroke/disability-after-stroke/&quot;&gt;https://orbifond.ru/about-stroke/disability-after-stroke/&lt;/a&gt;). А обо всех льготах здесь (&lt;a href=&quot;https://orbifond.ru/about-stroke/9-privileges/&quot;&gt;https://orbifond.ru/about-stroke/9-privileges/&lt;/a&gt;).&lt;/font&gt;&lt;/div&gt;&lt;/div&gt;" style="connectable=0;recursiveResize=0;strokeColor=inherit;fillColor=inherit;whiteSpace=wrap;html=1;fontSize=15;spacing=10;align=left;" parent="iybK_Iyhg3pvKeD9KzFa-121" vertex="1">
          <mxGeometry x="400" width="610" height="270" as="geometry">
            <mxRectangle width="610" height="270" as="alternateBounds" />
          </mxGeometry>
        </mxCell>
        <mxCell id="iybK_Iyhg3pvKeD9KzFa-118" style="shape=tableRow;horizontal=0;startSize=0;swimlaneHead=0;swimlaneBody=0;top=0;left=0;bottom=0;right=0;dropTarget=0;collapsible=0;recursiveResize=0;expand=0;fontStyle=1;strokeColor=inherit;fillColor=#EAF2D3;" parent="iybK_Iyhg3pvKeD9KzFa-41" vertex="1">
          <mxGeometry y="5120" width="1010" height="360" as="geometry" />
        </mxCell>
        <mxCell id="iybK_Iyhg3pvKeD9KzFa-119" value="&lt;div style=&quot;color: rgb(26, 26, 26); font-family: &amp;quot;YS Text&amp;quot;, &amp;quot;Helvetica Neue&amp;quot;, Helvetica, Arial, sans-serif; font-size: 15px; background-color: rgb(255, 255, 255);&quot;&gt;&amp;nbsp; &amp;nbsp; &amp;nbsp; Блок запроса № 16&lt;br&gt;&lt;/div&gt;&lt;div style=&quot;color: rgb(26, 26, 26); font-family: &amp;quot;YS Text&amp;quot;, &amp;quot;Helvetica Neue&amp;quot;, Helvetica, Arial, sans-serif; font-size: 15px; background-color: rgb(255, 255, 255);&quot;&gt;&lt;br&gt;&lt;/div&gt;&lt;div style=&quot;color: rgb(26, 26, 26); font-family: &amp;quot;YS Text&amp;quot;, &amp;quot;Helvetica Neue&amp;quot;, Helvetica, Arial, sans-serif; font-size: 15px; background-color: rgb(255, 255, 255);&quot;&gt;&lt;ol&gt;&lt;li&gt;Как сделать дом безопасным&lt;/li&gt;&lt;li&gt;Как подготовить дом после инсульта&lt;/li&gt;&lt;li&gt;Что купить для дома после инсульта&lt;/li&gt;&lt;li&gt;Безопасный дом после инсульта&lt;/li&gt;&lt;li&gt;Как адаптировать дом&lt;/li&gt;&lt;/ol&gt;&lt;/div&gt;" style="connectable=0;recursiveResize=0;strokeColor=inherit;fillColor=inherit;whiteSpace=wrap;html=1;align=left;spacing=10;fontSize=15;" parent="iybK_Iyhg3pvKeD9KzFa-118" vertex="1">
          <mxGeometry width="400" height="360" as="geometry">
            <mxRectangle width="400" height="360" as="alternateBounds" />
          </mxGeometry>
        </mxCell>
        <mxCell id="iybK_Iyhg3pvKeD9KzFa-120" value="&lt;div style=&quot;background-color: rgb(255, 255, 255);&quot;&gt;&lt;div style=&quot;&quot;&gt;&lt;font face=&quot;YS Text, Helvetica Neue, Helvetica, Arial, sans-serif&quot; color=&quot;#1a1a1a&quot;&gt;Чтобы ваш близкий смог сам передвигаться по дому поле инсульта, нужно переоборудовать жилье. Большинство рекомендаций простые и не требуют больших финансовых затрат, но помогут человеку чувствовать себя уверенно.&lt;/font&gt;&lt;/div&gt;&lt;div style=&quot;&quot;&gt;&lt;font face=&quot;YS Text, Helvetica Neue, Helvetica, Arial, sans-serif&quot; color=&quot;#1a1a1a&quot;&gt;&lt;br&gt;&lt;/font&gt;&lt;/div&gt;&lt;div style=&quot;&quot;&gt;&lt;font face=&quot;YS Text, Helvetica Neue, Helvetica, Arial, sans-serif&quot; color=&quot;#1a1a1a&quot;&gt;Вот небольшой список советов:&lt;/font&gt;&lt;/div&gt;&lt;div style=&quot;&quot;&gt;&lt;font face=&quot;YS Text, Helvetica Neue, Helvetica, Arial, sans-serif&quot; color=&quot;#1a1a1a&quot;&gt;&lt;br&gt;&lt;/font&gt;&lt;/div&gt;&lt;div style=&quot;&quot;&gt;&lt;font face=&quot;YS Text, Helvetica Neue, Helvetica, Arial, sans-serif&quot; color=&quot;#1a1a1a&quot;&gt;&amp;nbsp; &amp;nbsp; •&amp;nbsp; Добавьте освещение. Зрительное восприятие после инсульта у человека изменено, острота зрения снижена.&lt;/font&gt;&lt;/div&gt;&lt;div style=&quot;&quot;&gt;&lt;font face=&quot;YS Text, Helvetica Neue, Helvetica, Arial, sans-serif&quot; color=&quot;#1a1a1a&quot;&gt;&amp;nbsp; &amp;nbsp; •&amp;nbsp; Уберите лишние вещи. Подумайте, какую мебель можно выбросить или убрать на хранение в другое помещение.&lt;/font&gt;&lt;/div&gt;&lt;div style=&quot;&quot;&gt;&lt;font face=&quot;YS Text, Helvetica Neue, Helvetica, Arial, sans-serif&quot; color=&quot;#1a1a1a&quot;&gt;&amp;nbsp; &amp;nbsp; •&amp;nbsp; Уберите с пола ковры. Пока человек подволакивает или плохо поднимает ногу, есть риск того, что он зацепится за ковер и упадет.&lt;/font&gt;&lt;/div&gt;&lt;div style=&quot;&quot;&gt;&lt;font face=&quot;YS Text, Helvetica Neue, Helvetica, Arial, sans-serif&quot; color=&quot;#1a1a1a&quot;&gt;&amp;nbsp; &amp;nbsp; •&amp;nbsp; Поставьте тяжелый стул на «маршрутах» вашего близкого. Силы могут внезапно покинуть человека.&lt;/font&gt;&lt;/div&gt;&lt;div style=&quot;&quot;&gt;&lt;font face=&quot;YS Text, Helvetica Neue, Helvetica, Arial, sans-serif&quot; color=&quot;#1a1a1a&quot;&gt;&lt;br&gt;&lt;/font&gt;&lt;/div&gt;&lt;div style=&quot;&quot;&gt;&lt;font face=&quot;YS Text, Helvetica Neue, Helvetica, Arial, sans-serif&quot; color=&quot;#1a1a1a&quot;&gt;Больше рекомендаций собрали здесь (&lt;a href=&quot;https://orbifond.ru/about-stroke/house-after-stroke/&quot;&gt;https://orbifond.ru/about-stroke/house-after-stroke/&lt;/a&gt;).&lt;/font&gt;&lt;/div&gt;&lt;/div&gt;" style="connectable=0;recursiveResize=0;strokeColor=inherit;fillColor=inherit;whiteSpace=wrap;html=1;align=left;spacing=10;fontSize=15;" parent="iybK_Iyhg3pvKeD9KzFa-118" vertex="1">
          <mxGeometry x="400" width="610" height="360" as="geometry">
            <mxRectangle width="610" height="360" as="alternateBounds" />
          </mxGeometry>
        </mxCell>
        <mxCell id="iybK_Iyhg3pvKeD9KzFa-115" style="shape=tableRow;horizontal=0;startSize=0;swimlaneHead=0;swimlaneBody=0;top=0;left=0;bottom=0;right=0;dropTarget=0;collapsible=0;recursiveResize=0;expand=0;fontStyle=1;strokeColor=inherit;fillColor=#EAF2D3;" parent="iybK_Iyhg3pvKeD9KzFa-41" vertex="1">
          <mxGeometry y="5480" width="1010" height="380" as="geometry" />
        </mxCell>
        <mxCell id="iybK_Iyhg3pvKeD9KzFa-116" value="&lt;div style=&quot;color: rgb(26, 26, 26); font-family: &amp;quot;YS Text&amp;quot;, &amp;quot;Helvetica Neue&amp;quot;, Helvetica, Arial, sans-serif; font-size: 15px; background-color: rgb(255, 255, 255);&quot;&gt;&amp;nbsp; &amp;nbsp; &amp;nbsp; Блок запроса № 17&lt;br&gt;&lt;/div&gt;&lt;div style=&quot;color: rgb(26, 26, 26); font-family: &amp;quot;YS Text&amp;quot;, &amp;quot;Helvetica Neue&amp;quot;, Helvetica, Arial, sans-serif; font-size: 15px; background-color: rgb(255, 255, 255);&quot;&gt;&lt;br&gt;&lt;/div&gt;&lt;div style=&quot;color: rgb(26, 26, 26); font-family: &amp;quot;YS Text&amp;quot;, &amp;quot;Helvetica Neue&amp;quot;, Helvetica, Arial, sans-serif; font-size: 15px; background-color: rgb(255, 255, 255);&quot;&gt;&lt;ol&gt;&lt;li&gt;Питание после инсульта&lt;/li&gt;&lt;li&gt;Что нельзя есть после инсульта&lt;/li&gt;&lt;li&gt;Что можно есть после инсульта&lt;/li&gt;&lt;li&gt;Диета после инсульта&lt;/li&gt;&lt;li&gt;Какие продукты после инсульта&lt;/li&gt;&lt;/ol&gt;&lt;/div&gt;" style="connectable=0;recursiveResize=0;strokeColor=inherit;fillColor=inherit;whiteSpace=wrap;html=1;align=left;fontSize=15;spacing=10;" parent="iybK_Iyhg3pvKeD9KzFa-115" vertex="1">
          <mxGeometry width="400" height="380" as="geometry">
            <mxRectangle width="400" height="380" as="alternateBounds" />
          </mxGeometry>
        </mxCell>
        <mxCell id="iybK_Iyhg3pvKeD9KzFa-117" value="&lt;div style=&quot;font-size: 15px;&quot;&gt;Человеку после инсульта важно следовать всем предписаниям лечащего врача и соблюдать определенную диету, чтобы снизить риск повторного инсульта.&lt;/div&gt;&lt;div style=&quot;font-size: 15px;&quot;&gt;&lt;br style=&quot;font-size: 15px;&quot;&gt;&lt;/div&gt;&lt;div style=&quot;font-size: 15px;&quot;&gt;Обязательно проконсультируйтесь со специалистом о том, какую еду стоит готовить вашему близкому. Но есть и общие рекомендации, которым можно следовать, если у человека нет проблем с глотанием.&lt;/div&gt;&lt;div style=&quot;font-size: 15px;&quot;&gt;&lt;br style=&quot;font-size: 15px;&quot;&gt;&lt;/div&gt;&lt;div style=&quot;font-size: 15px;&quot;&gt;Убедитесь, что в рационе есть:&lt;/div&gt;&lt;div style=&quot;font-size: 15px;&quot;&gt;&lt;br style=&quot;font-size: 15px;&quot;&gt;&lt;/div&gt;&lt;div style=&quot;font-size: 15px;&quot;&gt;&amp;nbsp; &amp;nbsp; •&amp;nbsp; Цельнозерновые каши с высоким содержанием клетчатки.&lt;/div&gt;&lt;div style=&quot;font-size: 15px;&quot;&gt;&amp;nbsp; &amp;nbsp; •&amp;nbsp; Овощи и фрукты. Они могут быть как свежими, так и замороженными или сушеными.&lt;/div&gt;&lt;div style=&quot;font-size: 15px;&quot;&gt;&amp;nbsp; &amp;nbsp; •&amp;nbsp; Рыба: лосось и сельдь.&lt;/div&gt;&lt;div style=&quot;font-size: 15px;&quot;&gt;&amp;nbsp; &amp;nbsp; •&amp;nbsp; Белок, который содержится в нежирном мясе и птице, орехах, бобах, горохе.&lt;/div&gt;&lt;div style=&quot;font-size: 15px;&quot;&gt;&lt;br style=&quot;font-size: 15px;&quot;&gt;&lt;/div&gt;&lt;div style=&quot;font-size: 15px;&quot;&gt;Подробнее о питании рассказываем здесь (&lt;a href=&quot;https://orbifond.ru/about-stroke/food-and-stroke/&quot;&gt;https://orbifond.ru/about-stroke/food-and-stroke/&lt;/a&gt;). Если у близкого есть проблема с глотанием, почитайте эти рекомендации (&lt;a href=&quot;https://orbifond.ru/about-stroke/feeding-after-stroke/&quot;&gt;https://orbifond.ru/about-stroke/feeding-after-stroke/&lt;/a&gt;)&lt;/div&gt;" style="connectable=0;recursiveResize=0;strokeColor=inherit;fillColor=inherit;whiteSpace=wrap;html=1;align=left;fontSize=15;spacing=10;" parent="iybK_Iyhg3pvKeD9KzFa-115" vertex="1">
          <mxGeometry x="400" width="610" height="380" as="geometry">
            <mxRectangle width="610" height="380" as="alternateBounds" />
          </mxGeometry>
        </mxCell>
        <mxCell id="iybK_Iyhg3pvKeD9KzFa-112" style="shape=tableRow;horizontal=0;startSize=0;swimlaneHead=0;swimlaneBody=0;top=0;left=0;bottom=0;right=0;dropTarget=0;collapsible=0;recursiveResize=0;expand=0;fontStyle=1;strokeColor=inherit;fillColor=#EAF2D3;" parent="iybK_Iyhg3pvKeD9KzFa-41" vertex="1">
          <mxGeometry y="5860" width="1010" height="450" as="geometry" />
        </mxCell>
        <mxCell id="iybK_Iyhg3pvKeD9KzFa-113" value="&lt;div style=&quot;color: rgb(26, 26, 26); font-family: &amp;quot;YS Text&amp;quot;, &amp;quot;Helvetica Neue&amp;quot;, Helvetica, Arial, sans-serif; font-size: 15px; background-color: rgb(255, 255, 255);&quot;&gt;&amp;nbsp; &amp;nbsp; &amp;nbsp; Блок запроса № 18&lt;br&gt;&lt;/div&gt;&lt;div style=&quot;color: rgb(26, 26, 26); font-family: &amp;quot;YS Text&amp;quot;, &amp;quot;Helvetica Neue&amp;quot;, Helvetica, Arial, sans-serif; font-size: 15px; background-color: rgb(255, 255, 255);&quot;&gt;&lt;br&gt;&lt;/div&gt;&lt;div style=&quot;color: rgb(26, 26, 26); font-family: &amp;quot;YS Text&amp;quot;, &amp;quot;Helvetica Neue&amp;quot;, Helvetica, Arial, sans-serif; font-size: 15px; background-color: rgb(255, 255, 255);&quot;&gt;&lt;ol&gt;&lt;li&gt;Как следить за близким&lt;/li&gt;&lt;li&gt;Как избежать повторного инсульта&lt;/li&gt;&lt;li&gt;Как следить за давлением&lt;/li&gt;&lt;li&gt;Как контролировать после инсульта&lt;/li&gt;&lt;li&gt;Как следить за состоянием человека после инсульта&lt;/li&gt;&lt;li&gt;Как следить за состоянием близкого после инсульта&lt;/li&gt;&lt;/ol&gt;&lt;/div&gt;" style="connectable=0;recursiveResize=0;strokeColor=inherit;fillColor=inherit;whiteSpace=wrap;html=1;align=left;fontSize=15;spacing=10;" parent="iybK_Iyhg3pvKeD9KzFa-112" vertex="1">
          <mxGeometry width="400" height="450" as="geometry">
            <mxRectangle width="400" height="450" as="alternateBounds" />
          </mxGeometry>
        </mxCell>
        <mxCell id="iybK_Iyhg3pvKeD9KzFa-114" value="&lt;div style=&quot;font-size: 15px;&quot;&gt;Риск повторного инсульта весьма велик. Чтобы снизить риски, надо внимательно следить за состоянием близкого.&lt;/div&gt;&lt;div style=&quot;font-size: 15px;&quot;&gt;&lt;br style=&quot;font-size: 15px;&quot;&gt;&lt;/div&gt;&lt;div style=&quot;font-size: 15px;&quot;&gt;Вот рекомендации, которые помогут вам ухаживать дома за человеком, столкнувшимся с инсультом:&lt;/div&gt;&lt;div style=&quot;font-size: 15px;&quot;&gt;&lt;br style=&quot;font-size: 15px;&quot;&gt;&lt;/div&gt;&lt;div style=&quot;font-size: 15px;&quot;&gt;&amp;nbsp; &amp;nbsp; •&amp;nbsp; Проверяйте, что человек принимает препараты, не отступая от схем, прописанных врачом. Лекарства нельзя самовольно отменять, заменять другими по своему выбору или прекращать их прием.&lt;/div&gt;&lt;div style=&quot;font-size: 15px;&quot;&gt;&amp;nbsp; &amp;nbsp; •&amp;nbsp; Контролируйте артериальное давление утром и вечером и записывайте результат в специально заведенный для этого блокнот (как это правильно делать, рассказываем здесь (&lt;a href=&quot;https://orbifond.ru/about-stroke/measure-pressure/&quot;&gt;https://orbifond.ru/about-stroke/measure-pressure/&lt;/a&gt;)).&lt;/div&gt;&lt;div style=&quot;font-size: 15px;&quot;&gt;&amp;nbsp; &amp;nbsp; •&amp;nbsp; Контролируйте уровень сахара в крови&lt;/div&gt;&lt;div style=&quot;font-size: 15px;&quot;&gt;&amp;nbsp; &amp;nbsp; •&amp;nbsp; Если ваш близкий страдает сахарным диабетом (&lt;a href=&quot;https://orbifond.ru/about-stroke/diabetes-stroke/&quot;&gt;https://orbifond.ru/about-stroke/diabetes-stroke/&lt;/a&gt;), то поддержание оптимального уровня сахара в крови, прием сахаропонижающих препаратов или инъекции инсулина, а также строгое соблюдение диеты особенно важны.&lt;/div&gt;&lt;div style=&quot;font-size: 15px;&quot;&gt;&amp;nbsp; &amp;nbsp; •&amp;nbsp; Регулярно сдавайте анализ крови на так называемый липидный профиль: общий холестерин, триглицеиды, ЛПНП, ЛПВП.&lt;/div&gt;&lt;div style=&quot;font-size: 15px;&quot;&gt;&amp;nbsp; &amp;nbsp; •&amp;nbsp; Ежегодно делайте УЗИ сосудов шеи (УЗИ БЦА).&lt;/div&gt;&lt;div style=&quot;font-size: 15px;&quot;&gt;&lt;br style=&quot;font-size: 15px;&quot;&gt;&lt;/div&gt;&lt;div style=&quot;font-size: 15px;&quot;&gt;Подробнее обо всех рекомендациях рассказываем здесь (&lt;a href=&quot;https://orbifond.ru/about-stroke/checkup-after-stroke/&quot;&gt;https://orbifond.ru/about-stroke/checkup-after-stroke/&lt;/a&gt;).&lt;/div&gt;" style="connectable=0;recursiveResize=0;strokeColor=inherit;fillColor=inherit;whiteSpace=wrap;html=1;align=left;fontSize=15;spacing=10;" parent="iybK_Iyhg3pvKeD9KzFa-112" vertex="1">
          <mxGeometry x="400" width="610" height="450" as="geometry">
            <mxRectangle width="610" height="450" as="alternateBounds" />
          </mxGeometry>
        </mxCell>
        <mxCell id="iybK_Iyhg3pvKeD9KzFa-97" style="shape=tableRow;horizontal=0;startSize=0;swimlaneHead=0;swimlaneBody=0;top=0;left=0;bottom=0;right=0;dropTarget=0;collapsible=0;recursiveResize=0;expand=0;fontStyle=1;strokeColor=inherit;fillColor=#EAF2D3;" parent="iybK_Iyhg3pvKeD9KzFa-41" vertex="1">
          <mxGeometry y="6310" width="1010" height="470" as="geometry" />
        </mxCell>
        <mxCell id="iybK_Iyhg3pvKeD9KzFa-98" value="&lt;div style=&quot;color: rgb(26, 26, 26); font-family: &amp;quot;YS Text&amp;quot;, &amp;quot;Helvetica Neue&amp;quot;, Helvetica, Arial, sans-serif; font-size: 15px; background-color: rgb(255, 255, 255);&quot;&gt;&amp;nbsp; &amp;nbsp; &amp;nbsp; Блок запроса № 19&lt;br&gt;&lt;/div&gt;&lt;div style=&quot;color: rgb(26, 26, 26); font-family: &amp;quot;YS Text&amp;quot;, &amp;quot;Helvetica Neue&amp;quot;, Helvetica, Arial, sans-serif; font-size: 15px; background-color: rgb(255, 255, 255);&quot;&gt;&lt;br&gt;&lt;/div&gt;&lt;div style=&quot;color: rgb(26, 26, 26); font-family: &amp;quot;YS Text&amp;quot;, &amp;quot;Helvetica Neue&amp;quot;, Helvetica, Arial, sans-serif; font-size: 15px; background-color: rgb(255, 255, 255);&quot;&gt;&lt;ol&gt;&lt;li&gt;Нарушения речи после инсульта&lt;/li&gt;&lt;li&gt;Что такое афазия&lt;/li&gt;&lt;li&gt;Что такое дизартрия&lt;/li&gt;&lt;li&gt;Что делать при афазии&lt;/li&gt;&lt;li&gt;Что делать при дизартрии&lt;/li&gt;&lt;li&gt;Не понимает речь после инсульта&lt;/li&gt;&lt;li&gt;Плохо говорит после инсульта&lt;/li&gt;&lt;li&gt;Как разговаривать после инсульта&lt;/li&gt;&lt;/ol&gt;&lt;/div&gt;" style="connectable=0;recursiveResize=0;strokeColor=inherit;fillColor=inherit;whiteSpace=wrap;html=1;align=left;spacing=10;fontSize=15;" parent="iybK_Iyhg3pvKeD9KzFa-97" vertex="1">
          <mxGeometry width="400" height="470" as="geometry">
            <mxRectangle width="400" height="470" as="alternateBounds" />
          </mxGeometry>
        </mxCell>
        <mxCell id="iybK_Iyhg3pvKeD9KzFa-99" value="&lt;div style=&quot;font-size: 15px;&quot;&gt;После инсульта бывает два речевых диагноза: афазия или дизартрия.&lt;/div&gt;&lt;div style=&quot;font-size: 15px;&quot;&gt;&lt;br style=&quot;font-size: 15px;&quot;&gt;&lt;/div&gt;&lt;div style=&quot;font-size: 15px;&quot;&gt;Афазия характеризуется нарушением в разной степени всех речевых умений: возможности говорить, понимания речи (она звучит для человека как иностранный язык), чтения и письма.&lt;/div&gt;&lt;div style=&quot;font-size: 15px;&quot;&gt;&lt;br style=&quot;font-size: 15px;&quot;&gt;&lt;/div&gt;&lt;div style=&quot;font-size: 15px;&quot;&gt;Дизартрия затрагивает только произнесение слов, их четкость и темп. Понимание речи, письмо и чтение у людей с дизартрией сохранено.&lt;/div&gt;&lt;div style=&quot;font-size: 15px;&quot;&gt;&lt;br style=&quot;font-size: 15px;&quot;&gt;&lt;/div&gt;&lt;div style=&quot;font-size: 15px;&quot;&gt;Восстановлением речи после инсульта занимается логопед. Но родственникам тоже надо принимать активное участие в этом процессе.&lt;/div&gt;&lt;div style=&quot;font-size: 15px;&quot;&gt;&lt;br style=&quot;font-size: 15px;&quot;&gt;&lt;/div&gt;&lt;div style=&quot;font-size: 15px;&quot;&gt;Показывайте предметы в комнате или изображения предметов на картинках. Предлагайте соединить слово и предмет. Вместе читайте или прослушивайте короткие рассказы. Пишите диктанты из простых слов.&lt;/div&gt;&lt;div style=&quot;font-size: 15px;&quot;&gt;&lt;br style=&quot;font-size: 15px;&quot;&gt;&lt;/div&gt;&lt;div style=&quot;font-size: 15px;&quot;&gt;Если ваш родственник не говорит, пойте вместе любимые песни, вместе читайте стихи, вспоминайте пословицы и поговорки, играйте в лото, карты, домино.&lt;/div&gt;&lt;div style=&quot;font-size: 15px;&quot;&gt;&lt;br style=&quot;font-size: 15px;&quot;&gt;&lt;/div&gt;&lt;div style=&quot;font-size: 15px;&quot;&gt;Больше информации про афазию и дизартрию, а также рекомендаций по занятиям мы собрали здесь (&lt;a href=&quot;https://orbifond.ru/about-stroke/communication-problems-after-stroke/&quot;&gt;https://orbifond.ru/about-stroke/communication-problems-after-stroke/&lt;/a&gt;).&lt;/div&gt;" style="connectable=0;recursiveResize=0;strokeColor=inherit;fillColor=inherit;whiteSpace=wrap;html=1;align=left;spacing=10;fontSize=15;" parent="iybK_Iyhg3pvKeD9KzFa-97" vertex="1">
          <mxGeometry x="400" width="610" height="470" as="geometry">
            <mxRectangle width="610" height="470" as="alternateBounds" />
          </mxGeometry>
        </mxCell>
        <mxCell id="iybK_Iyhg3pvKeD9KzFa-139" style="shape=tableRow;horizontal=0;startSize=0;swimlaneHead=0;swimlaneBody=0;top=0;left=0;bottom=0;right=0;dropTarget=0;collapsible=0;recursiveResize=0;expand=0;fontStyle=1;strokeColor=inherit;fillColor=#EAF2D3;" parent="iybK_Iyhg3pvKeD9KzFa-41" vertex="1">
          <mxGeometry y="6780" width="1010" height="450" as="geometry" />
        </mxCell>
        <mxCell id="iybK_Iyhg3pvKeD9KzFa-140" value="&lt;div style=&quot;color: rgb(26, 26, 26); font-family: &amp;quot;YS Text&amp;quot;, &amp;quot;Helvetica Neue&amp;quot;, Helvetica, Arial, sans-serif; font-size: 15px; background-color: rgb(255, 255, 255);&quot;&gt;&amp;nbsp; &amp;nbsp; &amp;nbsp; Блок запроса № 20&lt;br&gt;&lt;/div&gt;&lt;div style=&quot;color: rgb(26, 26, 26); font-family: &amp;quot;YS Text&amp;quot;, &amp;quot;Helvetica Neue&amp;quot;, Helvetica, Arial, sans-serif; font-size: 15px; background-color: rgb(255, 255, 255);&quot;&gt;&lt;br&gt;&lt;/div&gt;&lt;div style=&quot;color: rgb(26, 26, 26); font-family: &amp;quot;YS Text&amp;quot;, &amp;quot;Helvetica Neue&amp;quot;, Helvetica, Arial, sans-serif; font-size: 15px; background-color: rgb(255, 255, 255);&quot;&gt;&lt;ol&gt;&lt;li&gt;Как заниматься дома когда нарушена речь&lt;/li&gt;&lt;li&gt;Как заниматься дома с афазией&lt;/li&gt;&lt;li&gt;Как заниматься дома с дизартрией&lt;/li&gt;&lt;li&gt;Упражнения для речи&lt;/li&gt;&lt;li&gt;Логопедические упражнения&lt;/li&gt;&lt;li&gt;Упражнения речь после инсульта&lt;/li&gt;&lt;li&gt;Как восстановить речь после инсульта&lt;/li&gt;&lt;/ol&gt;&lt;/div&gt;" style="connectable=0;recursiveResize=0;strokeColor=inherit;fillColor=inherit;whiteSpace=wrap;html=1;align=left;spacing=10;fontSize=15;" parent="iybK_Iyhg3pvKeD9KzFa-139" vertex="1">
          <mxGeometry width="400" height="450" as="geometry">
            <mxRectangle width="400" height="450" as="alternateBounds" />
          </mxGeometry>
        </mxCell>
        <UserObject label="&lt;div style=&quot;font-size: 15px;&quot;&gt;Восстановлением речи после инсульта занимается логопед. Нужно обязательно обратиться за его консультацией. Но родственникам тоже надо принимать активное участие в восстановлении речи. Вот что можно делать дома.&lt;/div&gt;&lt;div style=&quot;font-size: 15px;&quot;&gt;&lt;br style=&quot;font-size: 15px;&quot;&gt;&lt;/div&gt;&lt;div style=&quot;font-size: 15px;&quot;&gt;Если у вашего родственника нарушено понимание речи:&lt;/div&gt;&lt;div style=&quot;font-size: 15px;&quot;&gt;&lt;br style=&quot;font-size: 15px;&quot;&gt;&lt;/div&gt;&lt;div style=&quot;font-size: 15px;&quot;&gt;&amp;nbsp; &amp;nbsp; •&amp;nbsp; Показывайте близкому предметы в комнате или изображения предметов на картинках.&lt;/div&gt;&lt;div style=&quot;font-size: 15px;&quot;&gt;&amp;nbsp; &amp;nbsp; •&amp;nbsp; Предлагайте соединить слово и предмет.&lt;/div&gt;&lt;div style=&quot;font-size: 15px;&quot;&gt;&amp;nbsp; &amp;nbsp; •&amp;nbsp; Вместе читайте или прослушивайте короткие рассказы.&lt;/div&gt;&lt;div style=&quot;font-size: 15px;&quot;&gt;&amp;nbsp; &amp;nbsp; •&amp;nbsp; Пишите диктанты из простых слов.&lt;/div&gt;&lt;div style=&quot;font-size: 15px;&quot;&gt;&lt;br style=&quot;font-size: 15px;&quot;&gt;&lt;/div&gt;&lt;div style=&quot;font-size: 15px;&quot;&gt;Если ваш родственник не говорит:&lt;/div&gt;&lt;div style=&quot;font-size: 15px;&quot;&gt;&lt;br style=&quot;font-size: 15px;&quot;&gt;&lt;/div&gt;&lt;div style=&quot;font-size: 15px;&quot;&gt;&amp;nbsp; &amp;nbsp; •&amp;nbsp; Пойте вместе любимые песни.&lt;/div&gt;&lt;div style=&quot;font-size: 15px;&quot;&gt;&amp;nbsp; &amp;nbsp; •&amp;nbsp; Вместе читайте стихи.&lt;/div&gt;&lt;div style=&quot;font-size: 15px;&quot;&gt;&amp;nbsp; &amp;nbsp; •&amp;nbsp; Вспоминайте пословицы и поговорки.&lt;/div&gt;&lt;div style=&quot;font-size: 15px;&quot;&gt;&amp;nbsp; &amp;nbsp; •&amp;nbsp; Играйте в лото, карты, домино.&lt;/div&gt;&lt;div style=&quot;font-size: 15px;&quot;&gt;&amp;nbsp; &amp;nbsp; •&amp;nbsp; Рассматривайте и обсуждайте фотографии.&lt;/div&gt;&lt;div style=&quot;font-size: 15px;&quot;&gt;&lt;br style=&quot;font-size: 15px;&quot;&gt;&lt;/div&gt;&lt;div style=&quot;font-size: 15px;&quot;&gt;Больше информации про нарушения речи, а также рекомендаций по занятиям мы собрали здесь (&lt;a href=&quot;https://orbifond.ru/about-stroke/communication-problems-after-stroke/&quot;&gt;https://orbifond.ru/about-stroke/communication-problems-after-stroke/&lt;/a&gt;).&lt;/div&gt;" id="iybK_Iyhg3pvKeD9KzFa-141">
          <mxCell style="connectable=0;recursiveResize=0;strokeColor=inherit;fillColor=inherit;whiteSpace=wrap;html=1;align=left;fontSize=15;spacing=10;" parent="iybK_Iyhg3pvKeD9KzFa-139" vertex="1">
            <mxGeometry x="400" width="610" height="450" as="geometry">
              <mxRectangle width="610" height="450" as="alternateBounds" />
            </mxGeometry>
          </mxCell>
        </UserObject>
        <mxCell id="iybK_Iyhg3pvKeD9KzFa-136" style="shape=tableRow;horizontal=0;startSize=0;swimlaneHead=0;swimlaneBody=0;top=0;left=0;bottom=0;right=0;dropTarget=0;collapsible=0;recursiveResize=0;expand=0;fontStyle=1;strokeColor=inherit;fillColor=#EAF2D3;align=left;spacing=10;fontSize=15;" parent="iybK_Iyhg3pvKeD9KzFa-41" vertex="1">
          <mxGeometry y="7230" width="1010" height="370" as="geometry" />
        </mxCell>
        <mxCell id="iybK_Iyhg3pvKeD9KzFa-137" value="&lt;div style=&quot;color: rgb(26, 26, 26); font-family: &amp;quot;YS Text&amp;quot;, &amp;quot;Helvetica Neue&amp;quot;, Helvetica, Arial, sans-serif; font-size: 15px; background-color: rgb(255, 255, 255);&quot;&gt;&amp;nbsp; &amp;nbsp; &amp;nbsp; Блок запроса № 21&lt;br&gt;&lt;/div&gt;&lt;div style=&quot;color: rgb(26, 26, 26); font-family: &amp;quot;YS Text&amp;quot;, &amp;quot;Helvetica Neue&amp;quot;, Helvetica, Arial, sans-serif; font-size: 15px; background-color: rgb(255, 255, 255);&quot;&gt;&lt;br&gt;&lt;/div&gt;&lt;div style=&quot;color: rgb(26, 26, 26); font-family: &amp;quot;YS Text&amp;quot;, &amp;quot;Helvetica Neue&amp;quot;, Helvetica, Arial, sans-serif; font-size: 15px; background-color: rgb(255, 255, 255);&quot;&gt;&lt;ol&gt;&lt;li&gt;Растяжки после инсульта&lt;/li&gt;&lt;li&gt;Как делать растяжки&lt;/li&gt;&lt;li&gt;Нужно делать растяжки&lt;/li&gt;&lt;li&gt;Растяжки при спастике&lt;/li&gt;&lt;/ol&gt;&lt;/div&gt;" style="connectable=0;recursiveResize=0;strokeColor=inherit;fillColor=inherit;whiteSpace=wrap;html=1;align=left;spacing=10;fontSize=15;" parent="iybK_Iyhg3pvKeD9KzFa-136" vertex="1">
          <mxGeometry width="400" height="370" as="geometry">
            <mxRectangle width="400" height="370" as="alternateBounds" />
          </mxGeometry>
        </mxCell>
        <UserObject label="&lt;div style=&quot;font-size: 15px;&quot;&gt;Частое осложнение после инсульта — спастичность или повышение мышечного тонуса. При спастичности мышца постоянно находится в напряжении.&lt;/div&gt;&lt;div style=&quot;font-size: 15px;&quot;&gt;&lt;br style=&quot;font-size: 15px;&quot;&gt;&lt;/div&gt;&lt;div style=&quot;font-size: 15px;&quot;&gt;Чтобы помочь человеку, проводят ботулинотерапию — в мышцу вводят препарат, который снижает мышечный тонус на 3-4 месяца. Уколы ботулинотеарпии нужно периодически повторять.&lt;/div&gt;&lt;div style=&quot;font-size: 15px;&quot;&gt;&lt;br style=&quot;font-size: 15px;&quot;&gt;&lt;/div&gt;&lt;div style=&quot;font-size: 15px;&quot;&gt;Поэтому чтобы мышцы при спастичности не болели, нужно каждый день проводить растяжки.&lt;/div&gt;&lt;div style=&quot;font-size: 15px;&quot;&gt;&lt;br style=&quot;font-size: 15px;&quot;&gt;&lt;/div&gt;&lt;div style=&quot;font-size: 15px;&quot;&gt;&amp;nbsp; &amp;nbsp; •&amp;nbsp; Растяжки нужно делать несколько раз в день.&lt;/div&gt;&lt;div style=&quot;font-size: 15px;&quot;&gt;&amp;nbsp; &amp;nbsp; •&amp;nbsp; Поза человека должна быть симметричной.&lt;/div&gt;&lt;div style=&quot;font-size: 15px;&quot;&gt;&amp;nbsp; &amp;nbsp; •&amp;nbsp; Перед растяжкой надо провести подготовительное упражнение — «аппроксимацию» сустава. Нужно совершить надавливание на сустав по оси.&lt;/div&gt;&lt;div style=&quot;font-size: 15px;&quot;&gt;&amp;nbsp; &amp;nbsp; •&amp;nbsp; Боли быть не должно. Растяжка отдельных мышц может быть очень медленной и занимать от нескольких секунд до нескольких минут.&lt;/div&gt;&lt;div style=&quot;font-size: 15px;&quot;&gt;&lt;br style=&quot;font-size: 15px;&quot;&gt;&lt;/div&gt;&lt;div style=&quot;font-size: 15px;&quot;&gt;Подробнее о растяжках после инсульта рассказываем здесь (&lt;a href=&quot;https://orbifond.ru/about-stroke/stretching-after-stroke/&quot;&gt;https://orbifond.ru/about-stroke/stretching-after-stroke/&lt;/a&gt;).&lt;/div&gt;" linkTarget="_blank" id="iybK_Iyhg3pvKeD9KzFa-138">
          <mxCell style="connectable=0;recursiveResize=0;strokeColor=inherit;fillColor=inherit;whiteSpace=wrap;html=1;align=left;fontSize=15;spacing=10;" parent="iybK_Iyhg3pvKeD9KzFa-136" vertex="1">
            <mxGeometry x="400" width="610" height="370" as="geometry">
              <mxRectangle width="610" height="370" as="alternateBounds" />
            </mxGeometry>
          </mxCell>
        </UserObject>
        <mxCell id="iybK_Iyhg3pvKeD9KzFa-133" style="shape=tableRow;horizontal=0;startSize=0;swimlaneHead=0;swimlaneBody=0;top=0;left=0;bottom=0;right=0;dropTarget=0;collapsible=0;recursiveResize=0;expand=0;fontStyle=1;strokeColor=inherit;fillColor=#EAF2D3;" parent="iybK_Iyhg3pvKeD9KzFa-41" vertex="1">
          <mxGeometry y="7600" width="1010" height="470" as="geometry" />
        </mxCell>
        <mxCell id="iybK_Iyhg3pvKeD9KzFa-134" value="&lt;div style=&quot;color: rgb(26, 26, 26); font-family: &amp;quot;YS Text&amp;quot;, &amp;quot;Helvetica Neue&amp;quot;, Helvetica, Arial, sans-serif; font-size: 15px; background-color: rgb(255, 255, 255);&quot;&gt;&amp;nbsp; &amp;nbsp; &amp;nbsp; Блок запроса № 22&lt;br&gt;&lt;/div&gt;&lt;div style=&quot;color: rgb(26, 26, 26); font-family: &amp;quot;YS Text&amp;quot;, &amp;quot;Helvetica Neue&amp;quot;, Helvetica, Arial, sans-serif; font-size: 15px; background-color: rgb(255, 255, 255);&quot;&gt;&lt;br&gt;&lt;/div&gt;&lt;div style=&quot;color: rgb(26, 26, 26); font-family: &amp;quot;YS Text&amp;quot;, &amp;quot;Helvetica Neue&amp;quot;, Helvetica, Arial, sans-serif; font-size: 15px; background-color: rgb(255, 255, 255);&quot;&gt;&lt;ol&gt;&lt;li&gt;Не может жевать&lt;/li&gt;&lt;li&gt;Не может глотать&lt;/li&gt;&lt;li&gt;Проблемы с глотанием&lt;/li&gt;&lt;li&gt;Проблемы с жеванием&lt;/li&gt;&lt;li&gt;Как кормить человека&lt;/li&gt;&lt;/ol&gt;&lt;/div&gt;" style="connectable=0;recursiveResize=0;strokeColor=inherit;fillColor=inherit;whiteSpace=wrap;html=1;align=left;fontSize=15;spacing=10;" parent="iybK_Iyhg3pvKeD9KzFa-133" vertex="1">
          <mxGeometry width="400" height="470" as="geometry">
            <mxRectangle width="400" height="470" as="alternateBounds" />
          </mxGeometry>
        </mxCell>
        <mxCell id="iybK_Iyhg3pvKeD9KzFa-135" value="&lt;div style=&quot;font-size: 15px;&quot;&gt;Если у вашего близкого после инсульта нарушены жевание или глотание, важно правильно организовать прием пищи дома.&lt;/div&gt;&lt;div style=&quot;font-size: 15px;&quot;&gt;&lt;br style=&quot;font-size: 15px;&quot;&gt;&lt;/div&gt;&lt;div style=&quot;font-size: 15px;&quot;&gt;Перед приемом пищи, положите нескользящий коврик под посуду, повяжите салфетку или наденьте нагрудник на человека. Дайте близкому удобную посуду и столовые приборы.&lt;/div&gt;&lt;div style=&quot;font-size: 15px;&quot;&gt;&lt;br style=&quot;font-size: 15px;&quot;&gt;&lt;/div&gt;&lt;div style=&quot;font-size: 15px;&quot;&gt;Выбирайте пищу нужной консистенции. Например, гуляш можно предлагать тем людям, которые уже глотают без поперхивания. Консистенция картофельного пюре подойдет людям с ослабленной функцией жевания и глотания. Но липкое картофельно пюре может оставаться во рту после проглатывания.&lt;/div&gt;&lt;div style=&quot;font-size: 15px;&quot;&gt;&lt;br style=&quot;font-size: 15px;&quot;&gt;&lt;/div&gt;&lt;div style=&quot;font-size: 15px;&quot;&gt;Больше рекомендаций собрали здесь (&lt;a href=&quot;https://orbifond.ru/about-stroke/feeding-after-stroke/&quot;&gt;https://orbifond.ru/about-stroke/feeding-after-stroke/&lt;/a&gt;).&lt;/div&gt;&lt;div style=&quot;font-size: 15px;&quot;&gt;&lt;br style=&quot;font-size: 15px;&quot;&gt;&lt;/div&gt;&lt;div style=&quot;font-size: 15px;&quot;&gt;Если у человека нарушено глотание, посадите его за стол. Следите, чтобы у спины и под ногами была опора, паретичная рука лежала на подушке или в поддерживающей косынке. Если вы кормите близкого в постели, надо поднять головной конец кровати — от 45 до 90 градусов.&lt;/div&gt;&lt;div style=&quot;font-size: 15px;&quot;&gt;&lt;br style=&quot;font-size: 15px;&quot;&gt;&lt;/div&gt;&lt;div style=&quot;font-size: 15px;&quot;&gt;Пища должна быть теплой или чуть прохладной. Ложку подносите ко рту со «здоровой» стороны. Все продукты давайте с чайной ложки.&lt;/div&gt;&lt;div style=&quot;font-size: 15px;&quot;&gt;&lt;br style=&quot;font-size: 15px;&quot;&gt;&lt;/div&gt;&lt;div style=&quot;font-size: 15px;&quot;&gt;Подробнее о нарушении глотания рассказываем здесь (&lt;a href=&quot;https://orbifond.ru/about-stroke/dysphagia-after-stroke/&quot;&gt;https://orbifond.ru/about-stroke/dysphagia-after-stroke/&lt;/a&gt;).&lt;/div&gt;" style="connectable=0;recursiveResize=0;strokeColor=inherit;fillColor=inherit;whiteSpace=wrap;html=1;align=left;fontSize=15;spacing=10;" parent="iybK_Iyhg3pvKeD9KzFa-133" vertex="1">
          <mxGeometry x="400" width="610" height="470" as="geometry">
            <mxRectangle width="610" height="470" as="alternateBounds" />
          </mxGeometry>
        </mxCell>
        <mxCell id="iybK_Iyhg3pvKeD9KzFa-130" style="shape=tableRow;horizontal=0;startSize=0;swimlaneHead=0;swimlaneBody=0;top=0;left=0;bottom=0;right=0;dropTarget=0;collapsible=0;recursiveResize=0;expand=0;fontStyle=1;strokeColor=inherit;fillColor=#EAF2D3;align=left;" parent="iybK_Iyhg3pvKeD9KzFa-41" vertex="1">
          <mxGeometry y="8070" width="1010" height="460" as="geometry" />
        </mxCell>
        <mxCell id="iybK_Iyhg3pvKeD9KzFa-131" value="&lt;div style=&quot;color: rgb(26, 26, 26); font-family: &amp;quot;YS Text&amp;quot;, &amp;quot;Helvetica Neue&amp;quot;, Helvetica, Arial, sans-serif; font-size: 15px; background-color: rgb(255, 255, 255);&quot;&gt;&amp;nbsp; &amp;nbsp; &amp;nbsp; Блок запроса № 23&lt;br&gt;&lt;/div&gt;&lt;div style=&quot;color: rgb(26, 26, 26); font-family: &amp;quot;YS Text&amp;quot;, &amp;quot;Helvetica Neue&amp;quot;, Helvetica, Arial, sans-serif; font-size: 15px; background-color: rgb(255, 255, 255);&quot;&gt;&lt;br&gt;&lt;/div&gt;&lt;div style=&quot;color: rgb(26, 26, 26); font-family: &amp;quot;YS Text&amp;quot;, &amp;quot;Helvetica Neue&amp;quot;, Helvetica, Arial, sans-serif; font-size: 15px; background-color: rgb(255, 255, 255);&quot;&gt;&lt;ol&gt;&lt;li&gt;Что такое дисфагия&lt;/li&gt;&lt;li&gt;Что делать при дисфагии&lt;/li&gt;&lt;li&gt;Как кормить при дисфагии&lt;/li&gt;&lt;/ol&gt;&lt;/div&gt;" style="connectable=0;recursiveResize=0;strokeColor=inherit;fillColor=inherit;whiteSpace=wrap;html=1;align=left;fontSize=15;spacing=10;" parent="iybK_Iyhg3pvKeD9KzFa-130" vertex="1">
          <mxGeometry width="400" height="460" as="geometry">
            <mxRectangle width="400" height="460" as="alternateBounds" />
          </mxGeometry>
        </mxCell>
        <mxCell id="iybK_Iyhg3pvKeD9KzFa-132" value="&lt;div style=&quot;font-size: 15px;&quot;&gt;Одно из наиболее опасных осложнений инсульта — нарушение глотания или дисфагия. Из-за дисфагии жидкость и пища могут попадать в дыхательные пути и приводить к аспирационной пневмонии. Еще дисфагия может привести к истощению и обезвоживанию.&lt;/div&gt;&lt;div style=&quot;font-size: 15px;&quot;&gt;&lt;br style=&quot;font-size: 15px;&quot;&gt;&lt;/div&gt;&lt;div style=&quot;font-size: 15px;&quot;&gt;Поэтому важно вовремя обратить внимание на тревожные симптомы и знать основные правила кормления близкого.&lt;/div&gt;&lt;div style=&quot;font-size: 15px;&quot;&gt;&lt;br style=&quot;font-size: 15px;&quot;&gt;&lt;/div&gt;&lt;div style=&quot;font-size: 15px;&quot;&gt;Надо обратиться к врачу, если человек:&lt;/div&gt;&lt;div style=&quot;font-size: 15px;&quot;&gt;&lt;br style=&quot;font-size: 15px;&quot;&gt;&lt;/div&gt;&lt;div style=&quot;font-size: 15px;&quot;&gt;&amp;nbsp; &amp;nbsp; •&amp;nbsp; поперхивается пищей или кашляет во время и после еды;&lt;/div&gt;&lt;div style=&quot;font-size: 15px;&quot;&gt;&amp;nbsp; &amp;nbsp; •&amp;nbsp; покашливает, прочищает горло во время или после кормления;&lt;/div&gt;&lt;div style=&quot;font-size: 15px;&quot;&gt;&amp;nbsp; &amp;nbsp; •&amp;nbsp; тяжело или прерывисто дышит после глотания.&lt;/div&gt;&lt;div style=&quot;font-size: 15px;&quot;&gt;&lt;br style=&quot;font-size: 15px;&quot;&gt;&lt;/div&gt;&lt;div style=&quot;font-size: 15px;&quot;&gt;Когда вы кормите человека с дисфагией, посадите его за стол. Следите, чтобы у спины и под ногами была опора, паретичная рука лежала на подушке или в поддерживающей косынке. Если вы кормите близкого в постели, надо поднять головной конец кровати — от 45 до 90 градусов.&lt;/div&gt;&lt;div style=&quot;font-size: 15px;&quot;&gt;&lt;br style=&quot;font-size: 15px;&quot;&gt;&lt;/div&gt;&lt;div style=&quot;font-size: 15px;&quot;&gt;Пища должна быть теплой или чуть прохладной. Ложку подносите ко рту со «здоровой» стороны. Все продукты давайте с чайной ложки.&lt;/div&gt;&lt;div style=&quot;font-size: 15px;&quot;&gt;&lt;br style=&quot;font-size: 15px;&quot;&gt;&lt;/div&gt;&lt;div style=&quot;font-size: 15px;&quot;&gt;Подробнее о нарушении глотания и рекомендация при кормлении рассказываем здесь (&lt;a href=&quot;https://orbifond.ru/about-stroke/dysphagia-after-stroke&quot;&gt;https://orbifond.ru/about-stroke/dysphagia-after-stroke&lt;/a&gt;/).&lt;/div&gt;" style="connectable=0;recursiveResize=0;strokeColor=inherit;fillColor=inherit;whiteSpace=wrap;html=1;align=left;fontSize=15;spacing=10;" parent="iybK_Iyhg3pvKeD9KzFa-130" vertex="1">
          <mxGeometry x="400" width="610" height="460" as="geometry">
            <mxRectangle width="610" height="460" as="alternateBounds" />
          </mxGeometry>
        </mxCell>
        <mxCell id="iybK_Iyhg3pvKeD9KzFa-94" style="shape=tableRow;horizontal=0;startSize=0;swimlaneHead=0;swimlaneBody=0;top=0;left=0;bottom=0;right=0;dropTarget=0;collapsible=0;recursiveResize=0;expand=0;fontStyle=1;strokeColor=inherit;fillColor=#EAF2D3;" parent="iybK_Iyhg3pvKeD9KzFa-41" vertex="1">
          <mxGeometry y="8530" width="1010" height="370" as="geometry" />
        </mxCell>
        <mxCell id="iybK_Iyhg3pvKeD9KzFa-95" value="&lt;div style=&quot;color: rgb(26, 26, 26); font-family: &amp;quot;YS Text&amp;quot;, &amp;quot;Helvetica Neue&amp;quot;, Helvetica, Arial, sans-serif; font-size: 15px; background-color: rgb(255, 255, 255);&quot;&gt;&amp;nbsp; &amp;nbsp; &amp;nbsp; Блок запроса № 24&lt;br&gt;&lt;/div&gt;&lt;div style=&quot;color: rgb(26, 26, 26); font-family: &amp;quot;YS Text&amp;quot;, &amp;quot;Helvetica Neue&amp;quot;, Helvetica, Arial, sans-serif; font-size: 15px; background-color: rgb(255, 255, 255);&quot;&gt;&lt;br&gt;&lt;/div&gt;&lt;div style=&quot;color: rgb(26, 26, 26); font-family: &amp;quot;YS Text&amp;quot;, &amp;quot;Helvetica Neue&amp;quot;, Helvetica, Arial, sans-serif; font-size: 15px; background-color: rgb(255, 255, 255);&quot;&gt;&lt;ol&gt;&lt;li&gt;Можно работать после инсульта&lt;/li&gt;&lt;li&gt;Нельзя работать после инсульта&lt;/li&gt;&lt;li&gt;Когда вернуться на работу после инсульта&lt;/li&gt;&lt;li&gt;Кем нельзя работать&lt;/li&gt;&lt;li&gt;Кем можно работать&lt;/li&gt;&lt;li&gt;Работа после инвалидности&lt;/li&gt;&lt;li&gt;Работа с инвалидностью&lt;/li&gt;&lt;/ol&gt;&lt;/div&gt;" style="connectable=0;recursiveResize=0;strokeColor=inherit;fillColor=inherit;whiteSpace=wrap;html=1;align=left;fontSize=15;spacing=10;" parent="iybK_Iyhg3pvKeD9KzFa-94" vertex="1">
          <mxGeometry width="400" height="370" as="geometry">
            <mxRectangle width="400" height="370" as="alternateBounds" />
          </mxGeometry>
        </mxCell>
        <mxCell id="iybK_Iyhg3pvKeD9KzFa-96" value="&lt;div style=&quot;font-size: 15px;&quot;&gt;После инсульта человек может вернуться к работе. Но все зависит от тяжести инсульта и от профессии.&lt;/div&gt;&lt;div style=&quot;font-size: 15px;&quot;&gt;&lt;br style=&quot;font-size: 15px;&quot;&gt;&lt;/div&gt;&lt;div style=&quot;font-size: 15px;&quot;&gt;Не обязательно, что человек вернется на ту же самую работу и должность, с теми же обязанностями. Работодатель несет юридическую ответственность и должен предпринять все возможное, чтобы сотрудник после инсульта не потерял работу и сохранил доступ к возможностям, которые были до заболевания.&lt;/div&gt;&lt;div style=&quot;font-size: 15px;&quot;&gt;&lt;br style=&quot;font-size: 15px;&quot;&gt;&lt;/div&gt;&lt;div style=&quot;font-size: 15px;&quot;&gt;Даже если человек стремиться вернуться на работу как можно быстрее, все равно после инсульта ему придется провести какое-то время на больничном.&lt;/div&gt;&lt;div style=&quot;font-size: 15px;&quot;&gt;&lt;br style=&quot;font-size: 15px;&quot;&gt;&lt;/div&gt;&lt;div style=&quot;font-size: 15px;&quot;&gt;После четырех месяцев больничного обязательно проводится медико-социальная экспертиза (МСЭ), и человеку могут установить группу инвалидности. Не всегда это означает, что вернуться на работу больше не получится. Все зависит от группы инвалидности, индивидуальной программы реабилитации и возможностей работодателя.&lt;/div&gt;&lt;div style=&quot;font-size: 15px;&quot;&gt;&lt;br style=&quot;font-size: 15px;&quot;&gt;&lt;/div&gt;&lt;div style=&quot;font-size: 15px;&quot;&gt;Подробнее обо всех юридических моментах рассказываем здесь (&lt;a href=&quot;https://orbifond.ru/about-stroke/work-after-stroke/&quot;&gt;https://orbifond.ru/about-stroke/work-after-stroke/&lt;/a&gt;).&lt;/div&gt;" style="connectable=0;recursiveResize=0;strokeColor=inherit;fillColor=inherit;whiteSpace=wrap;html=1;align=left;fontSize=15;spacing=10;" parent="iybK_Iyhg3pvKeD9KzFa-94" vertex="1">
          <mxGeometry x="400" width="610" height="370" as="geometry">
            <mxRectangle width="610" height="370" as="alternateBounds" />
          </mxGeometry>
        </mxCell>
        <mxCell id="iybK_Iyhg3pvKeD9KzFa-142" style="shape=tableRow;horizontal=0;startSize=0;swimlaneHead=0;swimlaneBody=0;top=0;left=0;bottom=0;right=0;dropTarget=0;collapsible=0;recursiveResize=0;expand=0;fontStyle=1;strokeColor=inherit;fillColor=#EAF2D3;" parent="iybK_Iyhg3pvKeD9KzFa-41" vertex="1">
          <mxGeometry y="8900" width="1010" height="360" as="geometry" />
        </mxCell>
        <mxCell id="iybK_Iyhg3pvKeD9KzFa-143" value="&lt;div style=&quot;color: rgb(26, 26, 26); font-family: &amp;quot;YS Text&amp;quot;, &amp;quot;Helvetica Neue&amp;quot;, Helvetica, Arial, sans-serif; font-size: 15px; background-color: rgb(255, 255, 255);&quot;&gt;&amp;nbsp; &amp;nbsp; &amp;nbsp; Блок запроса № 25&lt;br&gt;&lt;/div&gt;&lt;div style=&quot;color: rgb(26, 26, 26); font-family: &amp;quot;YS Text&amp;quot;, &amp;quot;Helvetica Neue&amp;quot;, Helvetica, Arial, sans-serif; font-size: 15px; background-color: rgb(255, 255, 255);&quot;&gt;&lt;br&gt;&lt;/div&gt;&lt;div style=&quot;color: rgb(26, 26, 26); font-family: &amp;quot;YS Text&amp;quot;, &amp;quot;Helvetica Neue&amp;quot;, Helvetica, Arial, sans-serif; font-size: 15px; background-color: rgb(255, 255, 255);&quot;&gt;&lt;ol&gt;&lt;li&gt;Увольняют после инсульта&lt;/li&gt;&lt;li&gt;Меня уволят после инсульта&lt;/li&gt;&lt;li&gt;Увольнение после инсульта&lt;/li&gt;&lt;/ol&gt;&lt;/div&gt;" style="connectable=0;recursiveResize=0;strokeColor=inherit;fillColor=inherit;whiteSpace=wrap;html=1;align=left;fontSize=15;spacing=10;" parent="iybK_Iyhg3pvKeD9KzFa-142" vertex="1">
          <mxGeometry width="400" height="360" as="geometry">
            <mxRectangle width="400" height="360" as="alternateBounds" />
          </mxGeometry>
        </mxCell>
        <mxCell id="iybK_Iyhg3pvKeD9KzFa-144" value="&lt;div style=&quot;font-size: 15px;&quot;&gt;Если человек после инсульта не может работать на прежней должности, работодатель должен предоставить ему возможность выбрать другую подходящую вакансию. Только если такой вакансии нет, или работник не согласен с новыми условиями работы, он может быть уволен.&lt;/div&gt;&lt;div style=&quot;font-size: 15px;&quot;&gt;&lt;br style=&quot;font-size: 15px;&quot;&gt;&lt;/div&gt;&lt;div style=&quot;font-size: 15px;&quot;&gt;Согласно статье 178 Трудового кодекса, если сотрудника уволили по медицинским показаниям из-за отказа перевестись на другую должность или отсутствия вакансий, ему должны выплатить выходное пособие в размере двухнедельного заработка.&lt;/div&gt;&lt;div style=&quot;font-size: 15px;&quot;&gt;&lt;br style=&quot;font-size: 15px;&quot;&gt;&lt;/div&gt;&lt;div style=&quot;font-size: 15px;&quot;&gt;Также человека могут уволить, если его признали полностью неспособным к трудовой деятельности в соответствии с медицинским заключением. В этом случае бюро МСЭ констатирует полную утрату способности к труду и не включает в индивидуальную программу реабилитации (ИПР) трудовые рекомендации.&lt;/div&gt;&lt;div style=&quot;font-size: 15px;&quot;&gt;&lt;br style=&quot;font-size: 15px;&quot;&gt;&lt;/div&gt;&lt;div style=&quot;font-size: 15px;&quot;&gt;Если вам нужна более подробная консультация, позвоните на бесплатную горячую линию по инсульту 8 800 707 52 29.&lt;/div&gt;" style="connectable=0;recursiveResize=0;strokeColor=inherit;fillColor=inherit;whiteSpace=wrap;html=1;align=left;fontSize=15;spacing=10;" parent="iybK_Iyhg3pvKeD9KzFa-142" vertex="1">
          <mxGeometry x="400" width="610" height="360" as="geometry">
            <mxRectangle width="610" height="360" as="alternateBounds" />
          </mxGeometry>
        </mxCell>
        <mxCell id="iybK_Iyhg3pvKeD9KzFa-145" style="shape=tableRow;horizontal=0;startSize=0;swimlaneHead=0;swimlaneBody=0;top=0;left=0;bottom=0;right=0;dropTarget=0;collapsible=0;recursiveResize=0;expand=0;fontStyle=1;strokeColor=inherit;fillColor=#EAF2D3;" parent="iybK_Iyhg3pvKeD9KzFa-41" vertex="1">
          <mxGeometry y="9260" width="1010" height="360" as="geometry" />
        </mxCell>
        <mxCell id="iybK_Iyhg3pvKeD9KzFa-146" value="&lt;div style=&quot;color: rgb(26, 26, 26); font-family: &amp;quot;YS Text&amp;quot;, &amp;quot;Helvetica Neue&amp;quot;, Helvetica, Arial, sans-serif; font-size: 15px; background-color: rgb(255, 255, 255);&quot;&gt;&amp;nbsp; &amp;nbsp; &amp;nbsp; Блок запроса № 26&lt;/div&gt;&lt;div style=&quot;color: rgb(26, 26, 26); font-family: &amp;quot;YS Text&amp;quot;, &amp;quot;Helvetica Neue&amp;quot;, Helvetica, Arial, sans-serif; font-size: 15px; background-color: rgb(255, 255, 255);&quot;&gt;&lt;br&gt;&lt;/div&gt;&lt;div style=&quot;color: rgb(26, 26, 26); font-family: &amp;quot;YS Text&amp;quot;, &amp;quot;Helvetica Neue&amp;quot;, Helvetica, Arial, sans-serif; font-size: 15px; background-color: rgb(255, 255, 255);&quot;&gt;&lt;ol&gt;&lt;li&gt;Больничный после инсульта&lt;/li&gt;&lt;li&gt;Как оформить больничный&lt;/li&gt;&lt;li&gt;На сколько дадут больничный&lt;/li&gt;&lt;/ol&gt;&lt;/div&gt;" style="connectable=0;recursiveResize=0;strokeColor=inherit;fillColor=inherit;whiteSpace=wrap;html=1;align=left;fontSize=15;spacing=10;" parent="iybK_Iyhg3pvKeD9KzFa-145" vertex="1">
          <mxGeometry width="400" height="360" as="geometry">
            <mxRectangle width="400" height="360" as="alternateBounds" />
          </mxGeometry>
        </mxCell>
        <mxCell id="iybK_Iyhg3pvKeD9KzFa-147" value="&lt;div style=&quot;font-size: 15px;&quot;&gt;Практически всегда инсульт сопровождается госпитализацией, а значит человеку оформляют больничный лист. Во время больничного человека нельзя уволить. Также работник вправе получать пособие по временной нетрудоспособности.&lt;/div&gt;&lt;div style=&quot;font-size: 15px;&quot;&gt;&lt;br style=&quot;font-size: 15px;&quot;&gt;&lt;/div&gt;&lt;div style=&quot;font-size: 15px;&quot;&gt;Срок больничного листа зависит от тяжести инсульта, скорости восстановления человека и общего состояния здоровья. Максимальная продолжительность больничного в случае инсульта — 12 месяцев. Но каждые две недели больничный продлевает врачебная комиссия.&lt;/div&gt;&lt;div style=&quot;font-size: 15px;&quot;&gt;&lt;br style=&quot;font-size: 15px;&quot;&gt;&lt;/div&gt;&lt;div style=&quot;font-size: 15px;&quot;&gt;После четырех месяцев больничного обязательно проводится медико-социальная экспертиза (МСЭ), и специалисты решают, установить человеку группу инвалидности или нет. Инвалидность могут и не дать, а просто продлить срок реабилитации до календарного года.&lt;/div&gt;&lt;div style=&quot;font-size: 15px;&quot;&gt;&lt;br style=&quot;font-size: 15px;&quot;&gt;&lt;/div&gt;&lt;div style=&quot;font-size: 15px;&quot;&gt;Документ о временной нетрудоспособности может открыть врач в больнице или участковый в поликлинике.&lt;/div&gt;&lt;div style=&quot;font-size: 15px;&quot;&gt;&lt;br style=&quot;font-size: 15px;&quot;&gt;&lt;/div&gt;&lt;div style=&quot;font-size: 15px;&quot;&gt;Если вам нужна более подробная консультация, позвоните на бесплатную горячую линию по инсульту 8 800 707 52 29.&lt;/div&gt;" style="connectable=0;recursiveResize=0;strokeColor=inherit;fillColor=inherit;whiteSpace=wrap;html=1;align=left;fontSize=15;spacing=10;" parent="iybK_Iyhg3pvKeD9KzFa-145" vertex="1">
          <mxGeometry x="400" width="610" height="360" as="geometry">
            <mxRectangle width="610" height="360" as="alternateBounds" />
          </mxGeometry>
        </mxCell>
        <mxCell id="iybK_Iyhg3pvKeD9KzFa-148" style="shape=tableRow;horizontal=0;startSize=0;swimlaneHead=0;swimlaneBody=0;top=0;left=0;bottom=0;right=0;dropTarget=0;collapsible=0;recursiveResize=0;expand=0;fontStyle=1;strokeColor=inherit;fillColor=#EAF2D3;" parent="iybK_Iyhg3pvKeD9KzFa-41" vertex="1">
          <mxGeometry y="9620" width="1010" height="410" as="geometry" />
        </mxCell>
        <mxCell id="iybK_Iyhg3pvKeD9KzFa-149" value="&lt;div style=&quot;color: rgb(26, 26, 26); font-family: &amp;quot;YS Text&amp;quot;, &amp;quot;Helvetica Neue&amp;quot;, Helvetica, Arial, sans-serif; font-size: 15px; background-color: rgb(255, 255, 255);&quot;&gt;&amp;nbsp; &amp;nbsp; &amp;nbsp; Блок запроса № 27&lt;br&gt;&lt;/div&gt;&lt;div style=&quot;color: rgb(26, 26, 26); font-family: &amp;quot;YS Text&amp;quot;, &amp;quot;Helvetica Neue&amp;quot;, Helvetica, Arial, sans-serif; font-size: 15px; background-color: rgb(255, 255, 255);&quot;&gt;&lt;br&gt;&lt;/div&gt;&lt;div style=&quot;color: rgb(26, 26, 26); font-family: &amp;quot;YS Text&amp;quot;, &amp;quot;Helvetica Neue&amp;quot;, Helvetica, Arial, sans-serif; font-size: 15px; background-color: rgb(255, 255, 255);&quot;&gt;&lt;ol&gt;&lt;li&gt;Спастика после инсульта&lt;/li&gt;&lt;li&gt;Что такое спастика&lt;/li&gt;&lt;li&gt;Как бороться со спастикой&lt;/li&gt;&lt;li&gt;Что делать со спастикой&lt;/li&gt;&lt;li&gt;Что делать при спастике&lt;/li&gt;&lt;/ol&gt;&lt;/div&gt;" style="connectable=0;recursiveResize=0;strokeColor=inherit;fillColor=inherit;whiteSpace=wrap;html=1;align=left;fontSize=15;spacing=10;" parent="iybK_Iyhg3pvKeD9KzFa-148" vertex="1">
          <mxGeometry width="400" height="410" as="geometry">
            <mxRectangle width="400" height="410" as="alternateBounds" />
          </mxGeometry>
        </mxCell>
        <mxCell id="iybK_Iyhg3pvKeD9KzFa-150" value="&lt;div style=&quot;font-size: 15px;&quot;&gt;Спастичность — это повышение мышечного тонуса. При спастичности мышца постоянно находится в напряжении, поэтому люди испытывают трудности при движении. Спастичность может привести к контрактуре, когда мышца перерождается в соединительную ткань, и ее нельзя растянуть или разогнуть.&lt;/div&gt;&lt;div style=&quot;font-size: 15px;&quot;&gt;&lt;br style=&quot;font-size: 15px;&quot;&gt;&lt;/div&gt;&lt;div style=&quot;font-size: 15px;&quot;&gt;Чтобы помочь человеку со спастичностью, проводят ботулинотерапию — в мышцу вводят препарат, который снижает мышечный тонус на 3-4 месяца. Уколы ботулинотеарпии нужно периодически повторять. Поэтому чтобы мышцы при спастичности не болели, нужно каждый день проводить растяжки.&lt;/div&gt;&lt;div style=&quot;font-size: 15px;&quot;&gt;&lt;br style=&quot;font-size: 15px;&quot;&gt;&lt;/div&gt;&lt;div style=&quot;font-size: 15px;&quot;&gt;Спастичность зависит от многих факторов. Повышение тонуса при боли и дискомфорте — это рефлекс, который обладает накопительным эффектом. Если в течение тонус повышается из-за разных факторов, мышцы будут в напряжении и следующие несколько дней. И наоборот – чем лучше состояние человека, тем меньше тонус.&lt;/div&gt;&lt;div style=&quot;font-size: 15px;&quot;&gt;&lt;br style=&quot;font-size: 15px;&quot;&gt;&lt;/div&gt;&lt;div style=&quot;font-size: 15px;&quot;&gt;Поэтому лучше избегать любой боли, дискомфорта, повышения температуры тела, неудобных и несимметричных поз, бесцельных упражнений, массажа со стимуляцией мышц.&lt;/div&gt;&lt;div style=&quot;font-size: 15px;&quot;&gt;&lt;br style=&quot;font-size: 15px;&quot;&gt;&lt;/div&gt;&lt;div style=&quot;font-size: 15px;&quot;&gt;Если вам нужно больше информации, позвоните на бесплатную горячую линию по инсульту 8 800 707 52 29.&lt;/div&gt;" style="connectable=0;recursiveResize=0;strokeColor=inherit;fillColor=inherit;whiteSpace=wrap;html=1;align=left;fontSize=15;spacing=10;" parent="iybK_Iyhg3pvKeD9KzFa-148" vertex="1">
          <mxGeometry x="400" width="610" height="410" as="geometry">
            <mxRectangle width="610" height="410" as="alternateBounds" />
          </mxGeometry>
        </mxCell>
        <mxCell id="iybK_Iyhg3pvKeD9KzFa-151" style="shape=tableRow;horizontal=0;startSize=0;swimlaneHead=0;swimlaneBody=0;top=0;left=0;bottom=0;right=0;dropTarget=0;collapsible=0;recursiveResize=0;expand=0;fontStyle=1;strokeColor=inherit;fillColor=#EAF2D3;" parent="iybK_Iyhg3pvKeD9KzFa-41" vertex="1">
          <mxGeometry y="10030" width="1010" height="440" as="geometry" />
        </mxCell>
        <mxCell id="iybK_Iyhg3pvKeD9KzFa-152" value="&lt;div style=&quot;color: rgb(26, 26, 26); font-family: &amp;quot;YS Text&amp;quot;, &amp;quot;Helvetica Neue&amp;quot;, Helvetica, Arial, sans-serif; font-size: 15px; background-color: rgb(255, 255, 255);&quot;&gt;&amp;nbsp; &amp;nbsp; &amp;nbsp; Блок запроса № 28&lt;br&gt;&lt;/div&gt;&lt;div style=&quot;color: rgb(26, 26, 26); font-family: &amp;quot;YS Text&amp;quot;, &amp;quot;Helvetica Neue&amp;quot;, Helvetica, Arial, sans-serif; font-size: 15px; background-color: rgb(255, 255, 255);&quot;&gt;&lt;br&gt;&lt;/div&gt;&lt;div style=&quot;color: rgb(26, 26, 26); font-family: &amp;quot;YS Text&amp;quot;, &amp;quot;Helvetica Neue&amp;quot;, Helvetica, Arial, sans-serif; font-size: 15px; background-color: rgb(255, 255, 255);&quot;&gt;&lt;ol&gt;&lt;li&gt;Боли после инсульта&lt;/li&gt;&lt;li&gt;Болит рука после инсульта&lt;/li&gt;&lt;li&gt;Болит нога после инсульта&lt;/li&gt;&lt;li&gt;Почему боли после инсульта&lt;/li&gt;&lt;/ol&gt;&lt;/div&gt;" style="connectable=0;recursiveResize=0;strokeColor=inherit;fillColor=inherit;whiteSpace=wrap;html=1;align=left;fontSize=15;spacing=10;" parent="iybK_Iyhg3pvKeD9KzFa-151" vertex="1">
          <mxGeometry width="400" height="440" as="geometry">
            <mxRectangle width="400" height="440" as="alternateBounds" />
          </mxGeometry>
        </mxCell>
        <mxCell id="iybK_Iyhg3pvKeD9KzFa-153" value="&lt;div style=&quot;font-size: 15px;&quot;&gt;Боль блокирует обучение человека и мешает реабилитации. Это всегда сигнал опасности для организма. Поэтому с любой болью нужно обязательно обращаться к врачу.&lt;/div&gt;&lt;div style=&quot;font-size: 15px;&quot;&gt;&lt;br style=&quot;font-size: 15px;&quot;&gt;&lt;/div&gt;&lt;div style=&quot;font-size: 15px;&quot;&gt;Вот несколько причин, по которым могут быть боли после инсульта:&lt;/div&gt;&lt;div style=&quot;font-size: 15px;&quot;&gt;&lt;br style=&quot;font-size: 15px;&quot;&gt;&lt;/div&gt;&lt;div style=&quot;font-size: 15px;&quot;&gt;&amp;nbsp; &amp;nbsp; •&amp;nbsp; Слабость в руке. Дельтовидная мышца не может удержать головку плечевой кости в полости сустава, возникает вывих или подвывих плеча.&lt;/div&gt;&lt;div style=&quot;font-size: 15px;&quot;&gt;&amp;nbsp; &amp;nbsp; •&amp;nbsp; Спастичность или повышение мышечного тонуса. Мышца постоянно находится в напряжении. Из-за высокого тонуса и отсутствия движения могут быть сильные боли в конечностях — может болеть плечо, поясница, рука или нога.&lt;/div&gt;&lt;div style=&quot;font-size: 15px;&quot;&gt;&amp;nbsp; &amp;nbsp; •&amp;nbsp; Контрактуры — ограничения движения в суставах, связанные с неподвижностью в них.&lt;/div&gt;&lt;div style=&quot;font-size: 15px;&quot;&gt;&amp;nbsp; &amp;nbsp; •&amp;nbsp; Боли могут быть связаны с поражением головного мозга. Тогда боли присутствуют в половине тела, например, в руке и ноге с одной стороны.&lt;/div&gt;&lt;div style=&quot;font-size: 15px;&quot;&gt;&amp;nbsp; &amp;nbsp; •&amp;nbsp; При инсульте организм человека очень раним, и может возникнуть воспаление в любой части тела. При инсульте часто бывает пульпит, гайморит, отит, цистит и многое другое. Все это может вызвать боль.&lt;/div&gt;&lt;div style=&quot;font-size: 15px;&quot;&gt;&lt;br style=&quot;font-size: 15px;&quot;&gt;&lt;/div&gt;&lt;div style=&quot;font-size: 15px;&quot;&gt;Если вам нужно больше информации, позвоните на бесплатную горячую линию по инсульту 8 800 707 52 29.&lt;/div&gt;" style="connectable=0;recursiveResize=0;strokeColor=inherit;fillColor=inherit;whiteSpace=wrap;html=1;align=left;fontSize=15;spacing=10;" parent="iybK_Iyhg3pvKeD9KzFa-151" vertex="1">
          <mxGeometry x="400" width="610" height="440" as="geometry">
            <mxRectangle width="610" height="440" as="alternateBounds" />
          </mxGeometry>
        </mxCell>
        <mxCell id="iybK_Iyhg3pvKeD9KzFa-154" style="shape=tableRow;horizontal=0;startSize=0;swimlaneHead=0;swimlaneBody=0;top=0;left=0;bottom=0;right=0;dropTarget=0;collapsible=0;recursiveResize=0;expand=0;fontStyle=1;strokeColor=inherit;fillColor=#EAF2D3;" parent="iybK_Iyhg3pvKeD9KzFa-41" vertex="1">
          <mxGeometry y="10470" width="1010" height="410" as="geometry" />
        </mxCell>
        <mxCell id="iybK_Iyhg3pvKeD9KzFa-155" value="&lt;div style=&quot;color: rgb(26, 26, 26); font-family: &amp;quot;YS Text&amp;quot;, &amp;quot;Helvetica Neue&amp;quot;, Helvetica, Arial, sans-serif; font-size: 15px; background-color: rgb(255, 255, 255);&quot;&gt;&amp;nbsp; &amp;nbsp; &amp;nbsp; Блок запроса № 29&lt;br&gt;&lt;/div&gt;&lt;div style=&quot;color: rgb(26, 26, 26); font-family: &amp;quot;YS Text&amp;quot;, &amp;quot;Helvetica Neue&amp;quot;, Helvetica, Arial, sans-serif; font-size: 15px; background-color: rgb(255, 255, 255);&quot;&gt;&lt;br&gt;&lt;/div&gt;&lt;div style=&quot;color: rgb(26, 26, 26); font-family: &amp;quot;YS Text&amp;quot;, &amp;quot;Helvetica Neue&amp;quot;, Helvetica, Arial, sans-serif; font-size: 15px; background-color: rgb(255, 255, 255);&quot;&gt;&lt;ol&gt;&lt;li&gt;Парез после инсульта&lt;/li&gt;&lt;li&gt;Нарушения движений после инсульта&lt;/li&gt;&lt;li&gt;Двигательные нарушения после инсульта&lt;/li&gt;&lt;li&gt;Проблемы с движением после инсульта&lt;/li&gt;&lt;li&gt;Что такое апраксия&lt;/li&gt;&lt;li&gt;Что такое атаксия&lt;/li&gt;&lt;li&gt;Не может двигать рукой&lt;/li&gt;&lt;li&gt;Не может двигать ногой&lt;/li&gt;&lt;li&gt;Трудно двигать рукой&lt;/li&gt;&lt;li&gt;Трудно двигать ногой&lt;/li&gt;&lt;/ol&gt;&lt;/div&gt;" style="connectable=0;recursiveResize=0;strokeColor=inherit;fillColor=inherit;whiteSpace=wrap;html=1;align=left;spacing=10;fontSize=15;" parent="iybK_Iyhg3pvKeD9KzFa-154" vertex="1">
          <mxGeometry width="400" height="410" as="geometry">
            <mxRectangle width="400" height="410" as="alternateBounds" />
          </mxGeometry>
        </mxCell>
        <mxCell id="iybK_Iyhg3pvKeD9KzFa-156" value="&lt;div style=&quot;font-size: 15px;&quot;&gt;Инсульт часто проявляется двигательными нарушениями — человек теряет способность самостоятельно сидеть, стоять, ходить и пользоваться рукой. Процесс управления движениями очень сложный. И поражение разных отделов мозга при инсульте приводит к разнообразным последствиям.&lt;/div&gt;&lt;div style=&quot;font-size: 15px;&quot;&gt;&lt;br style=&quot;font-size: 15px;&quot;&gt;&lt;/div&gt;&lt;div style=&quot;font-size: 15px;&quot;&gt;&amp;nbsp; &amp;nbsp; •&amp;nbsp; Парез или слабость в мышце. У человека не хватает сил, чтобы поднять руку и преодолеть силу тяжести.&lt;/div&gt;&lt;div style=&quot;font-size: 15px;&quot;&gt;&amp;nbsp; &amp;nbsp; •&amp;nbsp; Спастичность — повышение мышечного тонуса. Мышцы напряжены даже в покое, при попытке их разогнуть или согнуть чувствуется сопротивление. Иногда из-за высокой спастичности человек не может двигать рукой, в которой есть сила.&lt;/div&gt;&lt;div style=&quot;font-size: 15px;&quot;&gt;&amp;nbsp; &amp;nbsp; •&amp;nbsp; Апраксия – нарушение, когда человек не может управлять конечностью, хотя сила и тонус при этом могут быть нормальными.&lt;/div&gt;&lt;div style=&quot;font-size: 15px;&quot;&gt;&amp;nbsp; &amp;nbsp; •&amp;nbsp; Атаксия – нарушение координации рук и ног или всего тела. Бывает при поражении мозжечка или вестибулярного аппарата. Движения человека не скоординированные, неловкие.&lt;/div&gt;&lt;div style=&quot;font-size: 15px;&quot;&gt;&lt;br style=&quot;font-size: 15px;&quot;&gt;&lt;/div&gt;&lt;div style=&quot;font-size: 15px;&quot;&gt;Нарушение чувствительности может привести к тому, что человек не может понять, в каком положении конечность и поэтому не может ей управлять.&lt;/div&gt;&lt;div style=&quot;font-size: 15px;&quot;&gt;&lt;br style=&quot;font-size: 15px;&quot;&gt;&lt;/div&gt;&lt;div style=&quot;font-size: 15px;&quot;&gt;Подробнее о двигательных нарушениях можно узнать здесь (&lt;a href=&quot;https://orbifond.ru/about-stroke/movement-disorder-after-stroke/&quot;&gt;https://orbifond.ru/about-stroke/movement-disorder-after-stroke/&lt;/a&gt;).&lt;/div&gt;" style="connectable=0;recursiveResize=0;strokeColor=inherit;fillColor=inherit;whiteSpace=wrap;html=1;align=left;fontSize=15;spacing=10;" parent="iybK_Iyhg3pvKeD9KzFa-154" vertex="1">
          <mxGeometry x="400" width="610" height="410" as="geometry">
            <mxRectangle width="610" height="410" as="alternateBounds" />
          </mxGeometry>
        </mxCell>
        <mxCell id="iybK_Iyhg3pvKeD9KzFa-157" style="shape=tableRow;horizontal=0;startSize=0;swimlaneHead=0;swimlaneBody=0;top=0;left=0;bottom=0;right=0;dropTarget=0;collapsible=0;recursiveResize=0;expand=0;fontStyle=1;strokeColor=inherit;fillColor=#EAF2D3;" parent="iybK_Iyhg3pvKeD9KzFa-41" vertex="1">
          <mxGeometry y="10880" width="1010" height="460" as="geometry" />
        </mxCell>
        <mxCell id="iybK_Iyhg3pvKeD9KzFa-158" value="&lt;div style=&quot;color: rgb(26, 26, 26); font-family: &amp;quot;YS Text&amp;quot;, &amp;quot;Helvetica Neue&amp;quot;, Helvetica, Arial, sans-serif; font-size: 15px; background-color: rgb(255, 255, 255);&quot;&gt;&amp;nbsp; &amp;nbsp; &amp;nbsp; Блок запроса № 30&lt;br&gt;&lt;/div&gt;&lt;div style=&quot;color: rgb(26, 26, 26); font-family: &amp;quot;YS Text&amp;quot;, &amp;quot;Helvetica Neue&amp;quot;, Helvetica, Arial, sans-serif; font-size: 15px; background-color: rgb(255, 255, 255);&quot;&gt;&lt;br&gt;&lt;/div&gt;&lt;div style=&quot;color: rgb(26, 26, 26); font-family: &amp;quot;YS Text&amp;quot;, &amp;quot;Helvetica Neue&amp;quot;, Helvetica, Arial, sans-serif; font-size: 15px; background-color: rgb(255, 255, 255);&quot;&gt;&lt;ol&gt;&lt;li&gt;Что такое трахеостома&lt;/li&gt;&lt;li&gt;Как ухаживать за трахеостомой&lt;/li&gt;&lt;li&gt;Трахеостома после инсульта&lt;/li&gt;&lt;/ol&gt;&lt;/div&gt;" style="connectable=0;recursiveResize=0;strokeColor=inherit;fillColor=inherit;whiteSpace=wrap;html=1;align=left;fontSize=15;spacing=10;" parent="iybK_Iyhg3pvKeD9KzFa-157" vertex="1">
          <mxGeometry width="400" height="460" as="geometry">
            <mxRectangle width="400" height="460" as="alternateBounds" />
          </mxGeometry>
        </mxCell>
        <mxCell id="iybK_Iyhg3pvKeD9KzFa-159" value="&lt;div style=&quot;font-size: 15px;&quot;&gt;Трахеостома — специальная трубка, которую устанавливают в трахею через отверстие (стому) в горле. Она создает искусственный дыхательный путь, через который воздух сразу попадает в трахею и легкие, минуя полость рта и носа.&lt;/div&gt;&lt;div style=&quot;font-size: 15px;&quot;&gt;&lt;br style=&quot;font-size: 15px;&quot;&gt;&lt;/div&gt;&lt;div style=&quot;font-size: 15px;&quot;&gt;Вот основные правила ухода за трахеостомой:&lt;/div&gt;&lt;div style=&quot;font-size: 15px;&quot;&gt;&lt;br style=&quot;font-size: 15px;&quot;&gt;&lt;/div&gt;&lt;div style=&quot;font-size: 15px;&quot;&gt;&amp;nbsp; &amp;nbsp; •&amp;nbsp; Нужно ежедневно менять чистую салфетку вокруг трахеостомического отверстия под ушками трубки.&lt;/div&gt;&lt;div style=&quot;font-size: 15px;&quot;&gt;&amp;nbsp; &amp;nbsp; •&amp;nbsp; Чтобы зафиксировать трахеостомическую трубку, используйте специальные фиксирующие ленты. Не затягивайте ленты сильно. Это может привести к сдавливанию вен и возникновению пролежней.&lt;/div&gt;&lt;div style=&quot;font-size: 15px;&quot;&gt;&amp;nbsp; &amp;nbsp; •&amp;nbsp; Людям, которые долго пользуются трахеостомой, желательно использовать тепловлагообменник. Тепловлагообменник или «искусственный нос» устанавливается на трубку и защищает трахею от попадания пыли, согревает и увлажняет вдыхаемый воздух.&lt;/div&gt;&lt;div style=&quot;font-size: 15px;&quot;&gt;&amp;nbsp; &amp;nbsp; •&amp;nbsp; Трахеостома — не препятствие для еды, движения, проведения двигательной реабилитации. Человек с трахеостомой может выходить на балкон, гулять на улице, если ему доступна ходьба. Нельзя гулять только в сильный мороз.&lt;/div&gt;&lt;div style=&quot;font-size: 15px;&quot;&gt;&amp;nbsp; &amp;nbsp; •&amp;nbsp; С трахеостомой также можно принимать душ. Следите, чтобы вода не попадала в трубку и используйте защиту для душа — тепловлагообменник. Но погружаться в ванну и нырять, конечно, нельзя.&lt;/div&gt;&lt;div style=&quot;font-size: 15px;&quot;&gt;&lt;br style=&quot;font-size: 15px;&quot;&gt;&lt;/div&gt;&lt;div style=&quot;font-size: 15px;&quot;&gt;Если вам нужно больше информации, позвоните на бесплатную горячую линию по инсульту 8 800 707 52 29.&lt;/div&gt;" style="connectable=0;recursiveResize=0;strokeColor=inherit;fillColor=inherit;whiteSpace=wrap;html=1;align=left;fontSize=15;spacing=10;" parent="iybK_Iyhg3pvKeD9KzFa-157" vertex="1">
          <mxGeometry x="400" width="610" height="460" as="geometry">
            <mxRectangle width="610" height="460" as="alternateBounds" />
          </mxGeometry>
        </mxCell>
        <mxCell id="iybK_Iyhg3pvKeD9KzFa-181" style="shape=tableRow;horizontal=0;startSize=0;swimlaneHead=0;swimlaneBody=0;top=0;left=0;bottom=0;right=0;dropTarget=0;collapsible=0;recursiveResize=0;expand=0;fontStyle=1;strokeColor=inherit;fillColor=#EAF2D3;" parent="iybK_Iyhg3pvKeD9KzFa-41" vertex="1">
          <mxGeometry y="11340" width="1010" height="500" as="geometry" />
        </mxCell>
        <mxCell id="iybK_Iyhg3pvKeD9KzFa-182" value="&lt;div style=&quot;color: rgb(26, 26, 26); font-family: &amp;quot;YS Text&amp;quot;, &amp;quot;Helvetica Neue&amp;quot;, Helvetica, Arial, sans-serif; font-size: 15px; background-color: rgb(255, 255, 255);&quot;&gt;&amp;nbsp; &amp;nbsp; &amp;nbsp; Блок запроса № 31&lt;br&gt;&lt;/div&gt;&lt;div style=&quot;color: rgb(26, 26, 26); font-family: &amp;quot;YS Text&amp;quot;, &amp;quot;Helvetica Neue&amp;quot;, Helvetica, Arial, sans-serif; font-size: 15px; background-color: rgb(255, 255, 255);&quot;&gt;&lt;br&gt;&lt;/div&gt;&lt;div style=&quot;color: rgb(26, 26, 26); font-family: &amp;quot;YS Text&amp;quot;, &amp;quot;Helvetica Neue&amp;quot;, Helvetica, Arial, sans-serif; font-size: 15px; background-color: rgb(255, 255, 255);&quot;&gt;&lt;ol&gt;&lt;li&gt;Как переодевать после инсульта&lt;/li&gt;&lt;li&gt;Как переодеваться после инсульта&lt;/li&gt;&lt;li&gt;Одежда после инсульта&lt;/li&gt;&lt;/ol&gt;&lt;/div&gt;" style="connectable=0;recursiveResize=0;strokeColor=inherit;fillColor=inherit;whiteSpace=wrap;html=1;align=left;fontSize=15;spacing=10;" parent="iybK_Iyhg3pvKeD9KzFa-181" vertex="1">
          <mxGeometry width="400" height="500" as="geometry">
            <mxRectangle width="400" height="500" as="alternateBounds" />
          </mxGeometry>
        </mxCell>
        <mxCell id="iybK_Iyhg3pvKeD9KzFa-183" value="&lt;div style=&quot;font-size: 15px;&quot;&gt;Одежда дает нам психологическую защиту, обозначает социальный статус. Если человек долго носит пижамы, халаты, разношенную или неопрятную домашнюю одежду, у него снижается критика и желание покидать привычную территорию, менять привычный образ жизни, могут развиваться депрессивные настроения.&lt;/div&gt;&lt;div style=&quot;font-size: 15px;&quot;&gt;&lt;br style=&quot;font-size: 15px;&quot;&gt;&lt;/div&gt;&lt;div style=&quot;font-size: 15px;&quot;&gt;Поэтому важно поддержать человека после инсульта в его желании одеваться и переодеваться.&lt;/div&gt;&lt;div style=&quot;font-size: 15px;&quot;&gt;&lt;br style=&quot;font-size: 15px;&quot;&gt;&lt;/div&gt;&lt;div style=&quot;font-size: 15px;&quot;&gt;Можно адаптировать предметы. И пользоваться специальными устройствами — захватом для молний и пуговиц, захватом для носков и обуви, расширителям для носок и брючин. Такие устройства продаются в интернет-магазинах в разделах с товарами для ухода и реабилитации.&lt;/div&gt;&lt;div style=&quot;font-size: 15px;&quot;&gt;&lt;br style=&quot;font-size: 15px;&quot;&gt;&lt;/div&gt;&lt;div style=&quot;font-size: 15px;&quot;&gt;Подобрать одежду на 1-2 размера больше, чтобы ее было проще надевать. Также стоит выбирать одежду с широким воротом, без рукавов или с широким рукавом, без застежек, без резинок, сужающих рукав и ворот.&lt;/div&gt;&lt;div style=&quot;font-size: 15px;&quot;&gt;&lt;br style=&quot;font-size: 15px;&quot;&gt;&lt;/div&gt;&lt;div style=&quot;font-size: 15px;&quot;&gt;Лучше, если одежда будет из хорошо тянущейся ткани, трикотажная, но не тонкая. Обувь должна быть без застежек или на липучках, без язычка. В нее должно быть просто засунуть ногу.&lt;/div&gt;&lt;div style=&quot;font-size: 15px;&quot;&gt;&lt;br style=&quot;font-size: 15px;&quot;&gt;&lt;/div&gt;&lt;div style=&quot;font-size: 15px;&quot;&gt;Если плохо работает рука, нужно научить человека натягивать рукав сначала на пораженную руку и лишь затем продевать в рукав здоровую. Иначе одежда превращается в ловушку.&lt;/div&gt;&lt;div style=&quot;font-size: 15px;&quot;&gt;&lt;br style=&quot;font-size: 15px;&quot;&gt;&lt;/div&gt;&lt;div style=&quot;font-size: 15px;&quot;&gt;Больше рекомендаций читайте здесь (&lt;a href=&quot;https://orbifond.ru/about-stroke/motivation-to-change-clothes/&quot;&gt;https://orbifond.ru/about-stroke/motivation-to-change-clothes/&lt;/a&gt;).&lt;/div&gt;" style="connectable=0;recursiveResize=0;strokeColor=inherit;fillColor=inherit;whiteSpace=wrap;html=1;align=left;fontSize=15;spacing=10;" parent="iybK_Iyhg3pvKeD9KzFa-181" vertex="1">
          <mxGeometry x="400" width="610" height="500" as="geometry">
            <mxRectangle width="610" height="500" as="alternateBounds" />
          </mxGeometry>
        </mxCell>
        <mxCell id="iybK_Iyhg3pvKeD9KzFa-178" style="shape=tableRow;horizontal=0;startSize=0;swimlaneHead=0;swimlaneBody=0;top=0;left=0;bottom=0;right=0;dropTarget=0;collapsible=0;recursiveResize=0;expand=0;fontStyle=1;strokeColor=inherit;fillColor=#EAF2D3;" parent="iybK_Iyhg3pvKeD9KzFa-41" vertex="1">
          <mxGeometry y="11840" width="1010" height="530" as="geometry" />
        </mxCell>
        <mxCell id="iybK_Iyhg3pvKeD9KzFa-179" value="&lt;div style=&quot;color: rgb(26, 26, 26); font-family: &amp;quot;YS Text&amp;quot;, &amp;quot;Helvetica Neue&amp;quot;, Helvetica, Arial, sans-serif; font-size: 15px; background-color: rgb(255, 255, 255);&quot;&gt;&amp;nbsp; &amp;nbsp; &amp;nbsp; Блок запроса № 32&lt;/div&gt;&lt;div style=&quot;color: rgb(26, 26, 26); font-family: &amp;quot;YS Text&amp;quot;, &amp;quot;Helvetica Neue&amp;quot;, Helvetica, Arial, sans-serif; font-size: 15px; background-color: rgb(255, 255, 255);&quot;&gt;&lt;br&gt;&lt;/div&gt;&lt;div style=&quot;color: rgb(26, 26, 26); font-family: &amp;quot;YS Text&amp;quot;, &amp;quot;Helvetica Neue&amp;quot;, Helvetica, Arial, sans-serif; font-size: 15px; background-color: rgb(255, 255, 255);&quot;&gt;&lt;br&gt;&lt;/div&gt;&lt;div style=&quot;color: rgb(26, 26, 26); font-family: &amp;quot;YS Text&amp;quot;, &amp;quot;Helvetica Neue&amp;quot;, Helvetica, Arial, sans-serif; font-size: 15px; background-color: rgb(255, 255, 255);&quot;&gt;&lt;ol&gt;&lt;li&gt;Мочевой катетер после инсульта&lt;/li&gt;&lt;li&gt;Как следить за мочевым катетером&lt;/li&gt;&lt;/ol&gt;&lt;/div&gt;" style="connectable=0;recursiveResize=0;strokeColor=inherit;fillColor=inherit;whiteSpace=wrap;html=1;align=left;fontSize=15;spacing=10;" parent="iybK_Iyhg3pvKeD9KzFa-178" vertex="1">
          <mxGeometry width="400" height="530" as="geometry">
            <mxRectangle width="400" height="530" as="alternateBounds" />
          </mxGeometry>
        </mxCell>
        <mxCell id="iybK_Iyhg3pvKeD9KzFa-180" value="&lt;div style=&quot;font-size: 15px;&quot;&gt;Мочевой катетер — это специальная трубка, которая вводится в мочевой пузырь через уретру. Он нужен, чтобы выводить мочу из организма человека, который не может мочиться самостоятельно.&lt;/div&gt;&lt;div style=&quot;font-size: 15px;&quot;&gt;&lt;br style=&quot;font-size: 15px;&quot;&gt;&lt;/div&gt;&lt;div style=&quot;font-size: 15px;&quot;&gt;Мочевой катетер — это не препятствие для движения и проведения двигательной реабилитации. Человек с мочевым катетером может и должен ходить.&lt;/div&gt;&lt;div style=&quot;font-size: 15px;&quot;&gt;&lt;br style=&quot;font-size: 15px;&quot;&gt;&lt;/div&gt;&lt;div style=&quot;font-size: 15px;&quot;&gt;Правила ухода за катетером:&lt;/div&gt;&lt;div style=&quot;font-size: 15px;&quot;&gt;&lt;br style=&quot;font-size: 15px;&quot;&gt;&lt;/div&gt;&lt;div style=&quot;font-size: 15px;&quot;&gt;&amp;nbsp; &amp;nbsp; •&amp;nbsp; Нельзя промывать катетер водой или другими средствами. Так можно занести инфекцию в мочевыводящие пути.&lt;/div&gt;&lt;div style=&quot;font-size: 15px;&quot;&gt;&amp;nbsp; &amp;nbsp; •&amp;nbsp; Если человек без сознания, страдает от деменции или чрезмерно тревожится, следите, чтобы он не выдернул катетер. Существует специальное белье с застежками, не позволяющее достать катетер.&lt;/div&gt;&lt;div style=&quot;font-size: 15px;&quot;&gt;&amp;nbsp; &amp;nbsp; •&amp;nbsp; Никогда не тяните за катетер.&lt;/div&gt;&lt;div style=&quot;font-size: 15px;&quot;&gt;&amp;nbsp; &amp;nbsp; •&amp;nbsp; Нужно следить, чтобы катетер, цистостома или трубка мочеприемника не были перегнуты или перекручены.&lt;/div&gt;&lt;div style=&quot;font-size: 15px;&quot;&gt;&amp;nbsp; &amp;nbsp; •&amp;nbsp; С катетером нельзя принимать ванну и погружаться в воду. Можно принимать душ, временно пережав катетер.&lt;/div&gt;&lt;div style=&quot;font-size: 15px;&quot;&gt;&lt;br style=&quot;font-size: 15px;&quot;&gt;&lt;/div&gt;&lt;div style=&quot;font-size: 15px;&quot;&gt;Емкость для сбора мочи – мочеприемник-пакет или обычная банка — должна находиться ниже мочевого пузыря.&lt;/div&gt;&lt;div style=&quot;font-size: 15px;&quot;&gt;&lt;br style=&quot;font-size: 15px;&quot;&gt;&lt;/div&gt;&lt;div style=&quot;font-size: 15px;&quot;&gt;Нужно регулярно опорожнять мочеприемник, не допускать наполнения пакета до максимального значения.&lt;/div&gt;&lt;div style=&quot;font-size: 15px;&quot;&gt;&lt;br style=&quot;font-size: 15px;&quot;&gt;&lt;/div&gt;&lt;div style=&quot;font-size: 15px;&quot;&gt;Больше рекомендаций мы собрали здесь (&lt;a href=&quot;https://orbifond.ru/about-stroke/urinary-catheter/&quot;&gt;https://orbifond.ru/about-stroke/urinary-catheter/&lt;/a&gt;).&lt;/div&gt;" style="connectable=0;recursiveResize=0;strokeColor=inherit;fillColor=inherit;whiteSpace=wrap;html=1;align=left;fontSize=15;spacing=10;" parent="iybK_Iyhg3pvKeD9KzFa-178" vertex="1">
          <mxGeometry x="400" width="610" height="530" as="geometry">
            <mxRectangle width="610" height="530" as="alternateBounds" />
          </mxGeometry>
        </mxCell>
        <mxCell id="iybK_Iyhg3pvKeD9KzFa-175" style="shape=tableRow;horizontal=0;startSize=0;swimlaneHead=0;swimlaneBody=0;top=0;left=0;bottom=0;right=0;dropTarget=0;collapsible=0;recursiveResize=0;expand=0;fontStyle=1;strokeColor=inherit;fillColor=#EAF2D3;" parent="iybK_Iyhg3pvKeD9KzFa-41" vertex="1">
          <mxGeometry y="12370" width="1010" height="399" as="geometry" />
        </mxCell>
        <mxCell id="iybK_Iyhg3pvKeD9KzFa-176" value="&lt;br&gt;&lt;div style=&quot;color: rgb(26, 26, 26); font-family: &amp;quot;YS Text&amp;quot;, &amp;quot;Helvetica Neue&amp;quot;, Helvetica, Arial, sans-serif; font-size: 15px; font-style: normal; font-variant-ligatures: normal; font-variant-caps: normal; font-weight: 400; letter-spacing: normal; orphans: 2; text-indent: 0px; text-transform: none; widows: 2; word-spacing: 0px; -webkit-text-stroke-width: 0px; background-color: rgb(255, 255, 255); text-decoration-thickness: initial; text-decoration-style: initial; text-decoration-color: initial;&quot;&gt;&amp;nbsp; &amp;nbsp; &amp;nbsp; &amp;nbsp;Блок запроса № 33&lt;br&gt;&lt;/div&gt;&lt;div style=&quot;color: rgb(26, 26, 26); font-family: &amp;quot;YS Text&amp;quot;, &amp;quot;Helvetica Neue&amp;quot;, Helvetica, Arial, sans-serif; font-size: 15px; font-style: normal; font-variant-ligatures: normal; font-variant-caps: normal; font-weight: 400; letter-spacing: normal; orphans: 2; text-indent: 0px; text-transform: none; widows: 2; word-spacing: 0px; -webkit-text-stroke-width: 0px; background-color: rgb(255, 255, 255); text-decoration-thickness: initial; text-decoration-style: initial; text-decoration-color: initial;&quot;&gt;&lt;br&gt;&lt;/div&gt;&lt;div style=&quot;color: rgb(26, 26, 26); font-family: &amp;quot;YS Text&amp;quot;, &amp;quot;Helvetica Neue&amp;quot;, Helvetica, Arial, sans-serif; font-size: 15px; font-style: normal; font-variant-ligatures: normal; font-variant-caps: normal; font-weight: 400; letter-spacing: normal; orphans: 2; text-indent: 0px; text-transform: none; widows: 2; word-spacing: 0px; -webkit-text-stroke-width: 0px; background-color: rgb(255, 255, 255); text-decoration-thickness: initial; text-decoration-style: initial; text-decoration-color: initial;&quot;&gt;&lt;ol&gt;&lt;li&gt;Когда можно заниматься спортом после инсульта&lt;/li&gt;&lt;li&gt;Спорт после инсульта&lt;/li&gt;&lt;/ol&gt;&lt;/div&gt;" style="connectable=0;recursiveResize=0;strokeColor=inherit;fillColor=inherit;whiteSpace=wrap;html=1;align=left;fontSize=15;spacing=10;" parent="iybK_Iyhg3pvKeD9KzFa-175" vertex="1">
          <mxGeometry width="400" height="399" as="geometry">
            <mxRectangle width="400" height="399" as="alternateBounds" />
          </mxGeometry>
        </mxCell>
        <mxCell id="iybK_Iyhg3pvKeD9KzFa-177" value="&lt;div style=&quot;font-size: 15px;&quot;&gt;Правильный фитнес и спорт могут снижать риск повторного инсульта и способствовать восстановлению утраченных из-за инсульта функций. Перед началом занятий спортом и фитнесом необходимо проконсультироваться со спортивным врачом или врачом-реабилитологом.&lt;/div&gt;&lt;div style=&quot;font-size: 15px;&quot;&gt;&lt;br style=&quot;font-size: 15px;&quot;&gt;&lt;/div&gt;&lt;div style=&quot;font-size: 15px;&quot;&gt;Нужно решить, какие именно виды спорта и фитнеса выбрать для занятий фитнесом и спортом. Здесь важно подобрать то, что нравится и приносит удовольствие. Людям после инсульта хорошо подходит скандинавская ходьба с палками, танцы, плаванье, йогу, тай-чи и цыгун.&lt;/div&gt;&lt;div style=&quot;font-size: 15px;&quot;&gt;&lt;br style=&quot;font-size: 15px;&quot;&gt;&lt;/div&gt;&lt;div style=&quot;font-size: 15px;&quot;&gt;Чтобы заниматься спортом, у человека должно быть восстановлено нормальное движение рук и ног и нормальная толерантность к нагрузке. Если долго лежать и мало двигаться, сердце растренировывается и не может выдерживать нагрузку фитнесом.&lt;/div&gt;&lt;div style=&quot;font-size: 15px;&quot;&gt;&lt;br style=&quot;font-size: 15px;&quot;&gt;&lt;/div&gt;&lt;div style=&quot;font-size: 15px;&quot;&gt;При низкой толерантности к нагрузке человеку дают тренинги, где следят за пульсом, и дают нагрузку, чтобы сердце и слабые мышцы набирали силу и выносливость. Когда сердце уже работает уверенно, можно переходить к фитнесу.&lt;/div&gt;&lt;div style=&quot;font-size: 15px;&quot;&gt;&lt;br style=&quot;font-size: 15px;&quot;&gt;&lt;/div&gt;&lt;div style=&quot;font-size: 15px;&quot;&gt;Если вам нужно больше информации, позвоните на бесплатную горячую линию по инсульту 8 800 707 52 29.&lt;/div&gt;" style="connectable=0;recursiveResize=0;strokeColor=inherit;fillColor=inherit;whiteSpace=wrap;html=1;align=left;fontSize=15;spacing=10;" parent="iybK_Iyhg3pvKeD9KzFa-175" vertex="1">
          <mxGeometry x="400" width="610" height="399" as="geometry">
            <mxRectangle width="610" height="399" as="alternateBounds" />
          </mxGeometry>
        </mxCell>
        <mxCell id="iybK_Iyhg3pvKeD9KzFa-172" style="shape=tableRow;horizontal=0;startSize=0;swimlaneHead=0;swimlaneBody=0;top=0;left=0;bottom=0;right=0;dropTarget=0;collapsible=0;recursiveResize=0;expand=0;fontStyle=1;strokeColor=inherit;fillColor=#EAF2D3;" parent="iybK_Iyhg3pvKeD9KzFa-41" vertex="1">
          <mxGeometry y="12769" width="1010" height="350" as="geometry" />
        </mxCell>
        <mxCell id="iybK_Iyhg3pvKeD9KzFa-173" value="&lt;div style=&quot;color: rgb(26, 26, 26); font-family: &amp;quot;YS Text&amp;quot;, &amp;quot;Helvetica Neue&amp;quot;, Helvetica, Arial, sans-serif; font-size: 15px; background-color: rgb(255, 255, 255);&quot;&gt;&amp;nbsp; &amp;nbsp; &amp;nbsp; Блок запроса № 34&lt;br&gt;&lt;/div&gt;&lt;div style=&quot;color: rgb(26, 26, 26); font-family: &amp;quot;YS Text&amp;quot;, &amp;quot;Helvetica Neue&amp;quot;, Helvetica, Arial, sans-serif; font-size: 15px; background-color: rgb(255, 255, 255);&quot;&gt;&lt;br&gt;&lt;/div&gt;&lt;div style=&quot;color: rgb(26, 26, 26); font-family: &amp;quot;YS Text&amp;quot;, &amp;quot;Helvetica Neue&amp;quot;, Helvetica, Arial, sans-serif; font-size: 15px; background-color: rgb(255, 255, 255);&quot;&gt;&lt;ol&gt;&lt;li&gt;Алкоголь после инсульта&lt;/li&gt;&lt;li&gt;Можно пить спиртное после инсульта&lt;/li&gt;&lt;li&gt;Можно пить алкоголь после инсульта&lt;/li&gt;&lt;li&gt;Что можно пить после инсульта&lt;/li&gt;&lt;li&gt;Сколько алкоголя после инсульта&lt;/li&gt;&lt;li&gt;Алкоголь риск инсульт&lt;/li&gt;&lt;/ol&gt;&lt;/div&gt;" style="connectable=0;recursiveResize=0;strokeColor=inherit;fillColor=inherit;whiteSpace=wrap;html=1;align=left;fontSize=15;spacing=9;" parent="iybK_Iyhg3pvKeD9KzFa-172" vertex="1">
          <mxGeometry width="400" height="350" as="geometry">
            <mxRectangle width="400" height="350" as="alternateBounds" />
          </mxGeometry>
        </mxCell>
        <mxCell id="iybK_Iyhg3pvKeD9KzFa-174" value="&lt;div style=&quot;font-size: 15px;&quot;&gt;Есть мнение, что алкоголь в небольших количествах — это хорошая профилактика инсульта. На самом деле это довольно опасное заблуждение, которое уже опровергнуто научными исследованиями и данными.&lt;/div&gt;&lt;div style=&quot;font-size: 15px;&quot;&gt;&lt;br style=&quot;font-size: 15px;&quot;&gt;&lt;/div&gt;&lt;div style=&quot;font-size: 15px;&quot;&gt;Не существует «безопасной» дозы спиртного. Нет также и «полезных» или «менее вредных» алкогольных напитков.&lt;/div&gt;&lt;div style=&quot;font-size: 15px;&quot;&gt;&lt;br style=&quot;font-size: 15px;&quot;&gt;&lt;/div&gt;&lt;div style=&quot;font-size: 15px;&quot;&gt;Алкоголь повышает давление в крови и негативно влияет на сосуды, что в конечном итоге может привести к инсульту. Кроме этого, употребление слишком большого количества алкоголя может обострить проблемы с другими факторами риска: диабетом, мерцательной аритмией.&lt;/div&gt;&lt;div style=&quot;font-size: 15px;&quot;&gt;&lt;br style=&quot;font-size: 15px;&quot;&gt;&lt;/div&gt;&lt;div style=&quot;font-size: 15px;&quot;&gt;Даже умеренное употребление алкоголя не дает защиты от инсульта и наоборот увеличивает шансы его возникновения.&lt;/div&gt;&lt;div style=&quot;font-size: 15px;&quot;&gt;&lt;br style=&quot;font-size: 15px;&quot;&gt;&lt;/div&gt;&lt;div style=&quot;font-size: 15px;&quot;&gt;Подробнее об исследованиях рассказываем здесь (&lt;a href=&quot;https://orbifond.ru/about-stroke/alcohol-and-stroke/&quot;&gt;https://orbifond.ru/about-stroke/alcohol-and-stroke/&lt;/a&gt;).&lt;/div&gt;" style="connectable=0;recursiveResize=0;strokeColor=inherit;fillColor=inherit;whiteSpace=wrap;html=1;align=left;fontSize=15;spacing=10;" parent="iybK_Iyhg3pvKeD9KzFa-172" vertex="1">
          <mxGeometry x="400" width="610" height="350" as="geometry">
            <mxRectangle width="610" height="350" as="alternateBounds" />
          </mxGeometry>
        </mxCell>
        <mxCell id="iybK_Iyhg3pvKeD9KzFa-169" style="shape=tableRow;horizontal=0;startSize=0;swimlaneHead=0;swimlaneBody=0;top=0;left=0;bottom=0;right=0;dropTarget=0;collapsible=0;recursiveResize=0;expand=0;fontStyle=1;strokeColor=inherit;fillColor=#EAF2D3;" parent="iybK_Iyhg3pvKeD9KzFa-41" vertex="1">
          <mxGeometry y="13119" width="1010" height="450" as="geometry" />
        </mxCell>
        <mxCell id="iybK_Iyhg3pvKeD9KzFa-170" value="&lt;div style=&quot;background-color: rgb(255, 255, 255);&quot;&gt;&lt;font style=&quot;font-size: 15px;&quot;&gt;&amp;nbsp; &amp;nbsp; &amp;nbsp; Блок запроса № 35&lt;br&gt;&lt;/font&gt;&lt;/div&gt;&lt;div style=&quot;background-color: rgb(255, 255, 255);&quot;&gt;&lt;font style=&quot;font-size: 15px;&quot;&gt;&lt;br&gt;&lt;/font&gt;&lt;/div&gt;&lt;div style=&quot;background-color: rgb(255, 255, 255); font-size: 15px;&quot;&gt;&lt;ol&gt;&lt;li&gt;&lt;font style=&quot;font-size: 15px;&quot;&gt;Курение и инсульт&amp;nbsp;&lt;/font&gt;&lt;/li&gt;&lt;li&gt;Можно курить после инсульта&lt;/li&gt;&lt;li&gt;Нельзя курить после инсульта&lt;/li&gt;&lt;li&gt;Риск инсульта курение&lt;/li&gt;&lt;/ol&gt;&lt;/div&gt;" style="connectable=0;recursiveResize=0;strokeColor=inherit;fillColor=inherit;whiteSpace=wrap;html=1;align=left;spacing=10;" parent="iybK_Iyhg3pvKeD9KzFa-169" vertex="1">
          <mxGeometry width="400" height="450" as="geometry">
            <mxRectangle width="400" height="450" as="alternateBounds" />
          </mxGeometry>
        </mxCell>
        <mxCell id="iybK_Iyhg3pvKeD9KzFa-171" value="&lt;div style=&quot;font-size: 15px;&quot;&gt;Курение может вызывать образование тромбов. Есть связь между курением и атеросклерозом — уплотнением стенок артерий. Атеросклероз является одной из причин ишемического инсульта. При попадании никотина в кровь холестерина осаживается на поверхности стенок сосудов, образуются бляшки. Их разрыв может привести к образованию тромбов, а затем и инсульту.&lt;/div&gt;&lt;div style=&quot;font-size: 15px;&quot;&gt;&lt;br style=&quot;font-size: 15px;&quot;&gt;&lt;/div&gt;&lt;div style=&quot;font-size: 15px;&quot;&gt;Никотин истончает сосуды. И делает их менее эластичными. Курение также способствует сужению просвета кровеносных артерий. Это может вызвать ишемический и геморрагический инсульт.&lt;/div&gt;&lt;div style=&quot;font-size: 15px;&quot;&gt;&lt;br style=&quot;font-size: 15px;&quot;&gt;&lt;/div&gt;&lt;div style=&quot;font-size: 15px;&quot;&gt;Никотин изменяет свойства крови. Она становится более вязкой и быстрее свертывается. В результате повышается способность образования тромбов и возрастает риск инсульта.&lt;/div&gt;&lt;div style=&quot;font-size: 15px;&quot;&gt;&lt;br style=&quot;font-size: 15px;&quot;&gt;&lt;/div&gt;&lt;div style=&quot;font-size: 15px;&quot;&gt;Курение усиливает воспаление в мозге. Регулярное курение табака усиливает в головном мозге воспаление и оксидантный стресс — дисбаланс химических веществ, который может привести к его повреждению.&lt;/div&gt;&lt;div style=&quot;font-size: 15px;&quot;&gt;&lt;br style=&quot;font-size: 15px;&quot;&gt;&lt;/div&gt;&lt;div style=&quot;font-size: 15px;&quot;&gt;Оксидантный стресс играет роль в развитии ишемического инсульта.&lt;/div&gt;&lt;div style=&quot;font-size: 15px;&quot;&gt;&lt;br style=&quot;font-size: 15px;&quot;&gt;&lt;/div&gt;&lt;div style=&quot;font-size: 15px;&quot;&gt;Вейпы представляют такую же большую опасность, как и обычный табак.&lt;/div&gt;&lt;div style=&quot;font-size: 15px;&quot;&gt;&lt;br style=&quot;font-size: 15px;&quot;&gt;&lt;/div&gt;&lt;div style=&quot;font-size: 15px;&quot;&gt;Больше информации ищите здесь (&lt;a href=&quot;https://orbifond.ru/about-stroke/smoking-and-stroke/&quot;&gt;https://orbifond.ru/about-stroke/smoking-and-stroke/&lt;/a&gt;).&lt;/div&gt;" style="connectable=0;recursiveResize=0;strokeColor=inherit;fillColor=inherit;whiteSpace=wrap;html=1;align=left;fontSize=15;spacing=10;" parent="iybK_Iyhg3pvKeD9KzFa-169" vertex="1">
          <mxGeometry x="400" width="610" height="450" as="geometry">
            <mxRectangle width="610" height="450" as="alternateBounds" />
          </mxGeometry>
        </mxCell>
        <mxCell id="iybK_Iyhg3pvKeD9KzFa-166" style="shape=tableRow;horizontal=0;startSize=0;swimlaneHead=0;swimlaneBody=0;top=0;left=0;bottom=0;right=0;dropTarget=0;collapsible=0;recursiveResize=0;expand=0;fontStyle=1;strokeColor=inherit;fillColor=#EAF2D3;" parent="iybK_Iyhg3pvKeD9KzFa-41" vertex="1">
          <mxGeometry y="13569" width="1010" height="370" as="geometry" />
        </mxCell>
        <mxCell id="iybK_Iyhg3pvKeD9KzFa-167" value="&lt;div style=&quot;color: rgb(26, 26, 26); font-family: &amp;quot;YS Text&amp;quot;, &amp;quot;Helvetica Neue&amp;quot;, Helvetica, Arial, sans-serif; font-size: 15px; background-color: rgb(255, 255, 255);&quot;&gt;&amp;nbsp; &amp;nbsp; &amp;nbsp; Блок запроса № 36&lt;br&gt;&lt;/div&gt;&lt;div style=&quot;color: rgb(26, 26, 26); font-family: &amp;quot;YS Text&amp;quot;, &amp;quot;Helvetica Neue&amp;quot;, Helvetica, Arial, sans-serif; font-size: 15px; background-color: rgb(255, 255, 255);&quot;&gt;&lt;br&gt;&lt;/div&gt;&lt;div style=&quot;color: rgb(26, 26, 26); font-family: &amp;quot;YS Text&amp;quot;, &amp;quot;Helvetica Neue&amp;quot;, Helvetica, Arial, sans-serif; font-size: 15px; background-color: rgb(255, 255, 255);&quot;&gt;&lt;ol&gt;&lt;li&gt;Диабет и инсульт&lt;/li&gt;&lt;li&gt;Риск инсульта при диабете&lt;/li&gt;&lt;li&gt;Диабет приводит к инсульту&lt;/li&gt;&lt;/ol&gt;&lt;/div&gt;" style="connectable=0;recursiveResize=0;strokeColor=inherit;fillColor=inherit;whiteSpace=wrap;html=1;align=left;fontSize=15;spacing=10;" parent="iybK_Iyhg3pvKeD9KzFa-166" vertex="1">
          <mxGeometry width="400" height="370" as="geometry">
            <mxRectangle width="400" height="370" as="alternateBounds" />
          </mxGeometry>
        </mxCell>
        <mxCell id="iybK_Iyhg3pvKeD9KzFa-168" value="&lt;div style=&quot;font-size: 15px;&quot;&gt;Диабет — это заболевание, при котором организм не способен выработать достаточное количество инсулина (1 тип) или не может его использовать должным образом (2 тип), чтобы переработать сахар (глюкозу) в крови.&lt;/div&gt;&lt;div style=&quot;font-size: 15px;&quot;&gt;&lt;br style=&quot;font-size: 15px;&quot;&gt;&lt;/div&gt;&lt;div style=&quot;font-size: 15px;&quot;&gt;Когда в крови слишком много сахара это вредит артериям и остальным кровеносным сосудам. У людей с сахарным диабетом чаще развиваются атеросклеротические бляшки, также повышен риск тромбообразования, что может в конечном итоге привести к закупорке сосуда и ишемическому инсульту.&lt;/div&gt;&lt;div style=&quot;font-size: 15px;&quot;&gt;&lt;br style=&quot;font-size: 15px;&quot;&gt;&lt;/div&gt;&lt;div style=&quot;font-size: 15px;&quot;&gt;Борьба с диабетом должна начаться с визита к эндокринологу. Вместе с врачом вы должны выработать план действий, который поможет вам избежать или контролировать заболевание. Этот план может включать медикаментозное лечение, а также изменение в образе жизни.&lt;/div&gt;&lt;div style=&quot;font-size: 15px;&quot;&gt;&lt;br style=&quot;font-size: 15px;&quot;&gt;&lt;/div&gt;&lt;div style=&quot;font-size: 15px;&quot;&gt;Изменение образа жизни — это главное в профилактике и лечении сахарного диабета.&lt;/div&gt;&lt;div style=&quot;font-size: 15px;&quot;&gt;&lt;br style=&quot;font-size: 15px;&quot;&gt;&lt;/div&gt;&lt;div style=&quot;font-size: 15px;&quot;&gt;Больше про диабет, лечение и риски инсульта читайте здесь (&lt;a href=&quot;https://orbifond.ru/about-stroke/diabetes-stroke/&quot;&gt;https://orbifond.ru/about-stroke/diabetes-stroke/&lt;/a&gt;).&lt;/div&gt;" style="connectable=0;recursiveResize=0;strokeColor=inherit;fillColor=inherit;whiteSpace=wrap;html=1;align=left;fontSize=15;spacing=10;" parent="iybK_Iyhg3pvKeD9KzFa-166" vertex="1">
          <mxGeometry x="400" width="610" height="370" as="geometry">
            <mxRectangle width="610" height="370" as="alternateBounds" />
          </mxGeometry>
        </mxCell>
        <mxCell id="iybK_Iyhg3pvKeD9KzFa-163" style="shape=tableRow;horizontal=0;startSize=0;swimlaneHead=0;swimlaneBody=0;top=0;left=0;bottom=0;right=0;dropTarget=0;collapsible=0;recursiveResize=0;expand=0;fontStyle=1;strokeColor=inherit;fillColor=#EAF2D3;" parent="iybK_Iyhg3pvKeD9KzFa-41" vertex="1">
          <mxGeometry y="13939" width="1010" height="246" as="geometry" />
        </mxCell>
        <mxCell id="iybK_Iyhg3pvKeD9KzFa-164" value="&lt;div style=&quot;color: rgb(26, 26, 26); font-family: &amp;quot;YS Text&amp;quot;, &amp;quot;Helvetica Neue&amp;quot;, Helvetica, Arial, sans-serif; font-size: 15px; background-color: rgb(255, 255, 255);&quot;&gt;&amp;nbsp; &amp;nbsp; &amp;nbsp; Блок запроса № 37&lt;br&gt;&lt;/div&gt;&lt;div style=&quot;color: rgb(26, 26, 26); font-family: &amp;quot;YS Text&amp;quot;, &amp;quot;Helvetica Neue&amp;quot;, Helvetica, Arial, sans-serif; font-size: 15px; background-color: rgb(255, 255, 255);&quot;&gt;&lt;br&gt;&lt;/div&gt;&lt;div style=&quot;color: rgb(26, 26, 26); font-family: &amp;quot;YS Text&amp;quot;, &amp;quot;Helvetica Neue&amp;quot;, Helvetica, Arial, sans-serif; font-size: 15px; background-color: rgb(255, 255, 255);&quot;&gt;&lt;ol&gt;&lt;li&gt;Фибрилляция предсердий и инсульт&lt;/li&gt;&lt;li&gt;Мерцательная аритмия и инсульт&lt;/li&gt;&lt;li&gt;Риски фибрилляция предсердий&lt;/li&gt;&lt;li&gt;Риски мерцательная аритмия&lt;/li&gt;&lt;/ol&gt;&lt;/div&gt;" style="connectable=0;recursiveResize=0;strokeColor=inherit;fillColor=inherit;whiteSpace=wrap;html=1;align=left;fontSize=15;spacing=10;" parent="iybK_Iyhg3pvKeD9KzFa-163" vertex="1">
          <mxGeometry width="400" height="246" as="geometry">
            <mxRectangle width="400" height="246" as="alternateBounds" />
          </mxGeometry>
        </mxCell>
        <mxCell id="iybK_Iyhg3pvKeD9KzFa-165" value="&lt;div style=&quot;color: rgb(26, 26, 26); font-family: &amp;quot;YS Text&amp;quot;, &amp;quot;Helvetica Neue&amp;quot;, Helvetica, Arial, sans-serif; font-size: 15px; background-color: rgb(255, 255, 255);&quot;&gt;Одним из основных факторов риска возникновения ишемического инсульта является&lt;/div&gt;&lt;div style=&quot;color: rgb(26, 26, 26); font-family: &amp;quot;YS Text&amp;quot;, &amp;quot;Helvetica Neue&amp;quot;, Helvetica, Arial, sans-serif; font-size: 15px; background-color: rgb(255, 255, 255);&quot;&gt;фибрилляция предсердий или мерцательная аритмия&lt;/div&gt;&lt;div style=&quot;color: rgb(26, 26, 26); font-family: &amp;quot;YS Text&amp;quot;, &amp;quot;Helvetica Neue&amp;quot;, Helvetica, Arial, sans-serif; font-size: 15px; background-color: rgb(255, 255, 255);&quot;&gt;Жалобы при фибрилляции предсердий могут сильно отличаться у разных людей.&lt;/div&gt;&lt;div style=&quot;color: rgb(26, 26, 26); font-family: &amp;quot;YS Text&amp;quot;, &amp;quot;Helvetica Neue&amp;quot;, Helvetica, Arial, sans-serif; font-size: 15px; background-color: rgb(255, 255, 255);&quot;&gt;Иногда фибрилляция предсердий не вызывает каких-либо симптомов, и человек&lt;/div&gt;&lt;div style=&quot;color: rgb(26, 26, 26); font-family: &amp;quot;YS Text&amp;quot;, &amp;quot;Helvetica Neue&amp;quot;, Helvetica, Arial, sans-serif; font-size: 15px; background-color: rgb(255, 255, 255);&quot;&gt;совершенно не осознает, что частота сердечных сокращений нерегулярна.&lt;/div&gt;&lt;div style=&quot;color: rgb(26, 26, 26); font-family: &amp;quot;YS Text&amp;quot;, &amp;quot;Helvetica Neue&amp;quot;, Helvetica, Arial, sans-serif; font-size: 15px; background-color: rgb(255, 255, 255);&quot;&gt;Если у вас есть фибрилляция предсердий, вы должны обсудить с врачом наиболее&lt;/div&gt;&lt;div style=&quot;color: rgb(26, 26, 26); font-family: &amp;quot;YS Text&amp;quot;, &amp;quot;Helvetica Neue&amp;quot;, Helvetica, Arial, sans-serif; font-size: 15px; background-color: rgb(255, 255, 255);&quot;&gt;подходящую вам схему лечения.&lt;/div&gt;&lt;div style=&quot;color: rgb(26, 26, 26); font-family: &amp;quot;YS Text&amp;quot;, &amp;quot;Helvetica Neue&amp;quot;, Helvetica, Arial, sans-serif; font-size: 15px; background-color: rgb(255, 255, 255);&quot;&gt;&lt;u&gt;Больше информации о фибрилляции предсердий.&lt;/u&gt;&lt;/div&gt;&lt;div style=&quot;color: rgb(26, 26, 26); font-family: &amp;quot;YS Text&amp;quot;, &amp;quot;Helvetica Neue&amp;quot;, Helvetica, Arial, sans-serif; font-size: 15px; background-color: rgb(255, 255, 255);&quot;&gt;&lt;u&gt;Тест «Измерь возраст своего сердца!»&lt;/u&gt;&lt;/div&gt;&lt;div style=&quot;color: rgb(26, 26, 26); font-family: &amp;quot;YS Text&amp;quot;, &amp;quot;Helvetica Neue&amp;quot;, Helvetica, Arial, sans-serif; font-size: 15px; background-color: rgb(255, 255, 255);&quot;&gt;&lt;u&gt;&lt;br&gt;&lt;/u&gt;&lt;/div&gt;&lt;div style=&quot;color: rgb(26, 26, 26); font-family: &amp;quot;YS Text&amp;quot;, &amp;quot;Helvetica Neue&amp;quot;, Helvetica, Arial, sans-serif; font-size: 15px; background-color: rgb(255, 255, 255);&quot;&gt;&lt;u&gt;(бот не может ответит на запрос)&lt;/u&gt;&lt;/div&gt;" style="connectable=0;recursiveResize=0;strokeColor=inherit;fillColor=inherit;whiteSpace=wrap;html=1;align=left;spacing=10;fontSize=15;" parent="iybK_Iyhg3pvKeD9KzFa-163" vertex="1">
          <mxGeometry x="400" width="610" height="246" as="geometry">
            <mxRectangle width="610" height="246" as="alternateBounds" />
          </mxGeometry>
        </mxCell>
        <mxCell id="iybK_Iyhg3pvKeD9KzFa-160" style="shape=tableRow;horizontal=0;startSize=0;swimlaneHead=0;swimlaneBody=0;top=0;left=0;bottom=0;right=0;dropTarget=0;collapsible=0;recursiveResize=0;expand=0;fontStyle=1;strokeColor=inherit;fillColor=#EAF2D3;" parent="iybK_Iyhg3pvKeD9KzFa-41" vertex="1">
          <mxGeometry y="14185" width="1010" height="350" as="geometry" />
        </mxCell>
        <mxCell id="iybK_Iyhg3pvKeD9KzFa-161" value="&lt;div style=&quot;color: rgb(26, 26, 26); font-family: &amp;quot;YS Text&amp;quot;, &amp;quot;Helvetica Neue&amp;quot;, Helvetica, Arial, sans-serif; font-size: 15px; background-color: rgb(255, 255, 255);&quot;&gt;&amp;nbsp; &amp;nbsp; &amp;nbsp; &amp;nbsp;Блок запроса № 38&lt;br&gt;&lt;/div&gt;&lt;div style=&quot;color: rgb(26, 26, 26); font-family: &amp;quot;YS Text&amp;quot;, &amp;quot;Helvetica Neue&amp;quot;, Helvetica, Arial, sans-serif; font-size: 15px; background-color: rgb(255, 255, 255);&quot;&gt;&lt;br&gt;&lt;/div&gt;&lt;div style=&quot;color: rgb(26, 26, 26); font-family: &amp;quot;YS Text&amp;quot;, &amp;quot;Helvetica Neue&amp;quot;, Helvetica, Arial, sans-serif; font-size: 15px; background-color: rgb(255, 255, 255);&quot;&gt;&lt;ol&gt;&lt;li&gt;Гипертония и инсульт&lt;/li&gt;&lt;li&gt;Гипертония риск инсульта&lt;/li&gt;&lt;li&gt;Повышенное давление и инсульт&lt;/li&gt;&lt;li&gt;Повышенное давление риск инсульта&lt;/li&gt;&lt;/ol&gt;&lt;/div&gt;" style="connectable=0;recursiveResize=0;strokeColor=inherit;fillColor=inherit;whiteSpace=wrap;html=1;align=left;spacing=10;fontSize=15;" parent="iybK_Iyhg3pvKeD9KzFa-160" vertex="1">
          <mxGeometry width="400" height="350" as="geometry">
            <mxRectangle width="400" height="350" as="alternateBounds" />
          </mxGeometry>
        </mxCell>
        <mxCell id="iybK_Iyhg3pvKeD9KzFa-162" value="&lt;div style=&quot;font-size: 15px;&quot;&gt;Артериальная гипертония — один из ведущих факторов риска развития инсульта и других опасных заболеваний.&lt;/div&gt;&lt;div style=&quot;font-size: 15px;&quot;&gt;&lt;br style=&quot;font-size: 15px;&quot;&gt;&lt;/div&gt;&lt;div style=&quot;font-size: 15px;&quot;&gt;Артериальная гипертония или повышенное давление — это состояние, при котором давление крови на стенку сосуда оказывается повышенным продолжительное время.&lt;/div&gt;&lt;div style=&quot;font-size: 15px;&quot;&gt;&lt;br style=&quot;font-size: 15px;&quot;&gt;&lt;/div&gt;&lt;div style=&quot;font-size: 15px;&quot;&gt;Артериальная гипертония, вопреки расхожему мнению, в большинстве случаев протекает без каких-либо симптомов. Многие годы можно жить, не испытывая никакого дискомфорта, и не подозревать о наличии заболевания.&lt;/div&gt;&lt;div style=&quot;font-size: 15px;&quot;&gt;&lt;br style=&quot;font-size: 15px;&quot;&gt;&lt;/div&gt;&lt;div style=&quot;font-size: 15px;&quot;&gt;Крайне важно регулярно контролировать свое артериальное давление, даже если вы чувствуете себя хорошо. В этом вам поможет тонометр. Если вы зафиксировали подъем давления, обратитесь к кардиологу, он определит дальнейшие действия.&lt;/div&gt;&lt;div style=&quot;font-size: 15px;&quot;&gt;&lt;br style=&quot;font-size: 15px;&quot;&gt;&lt;/div&gt;&lt;div style=&quot;font-size: 15px;&quot;&gt;Подробнее о гипертонии (&lt;a href=&quot;https://orbifond.ru/about-stroke/hypertension/&quot;&gt;https://orbifond.ru/about-stroke/hypertension/&lt;/a&gt;).&lt;/div&gt;&lt;div style=&quot;font-size: 15px;&quot;&gt;&lt;br style=&quot;font-size: 15px;&quot;&gt;&lt;/div&gt;&lt;div style=&quot;font-size: 15px;&quot;&gt;Как измерять давление (&lt;a href=&quot;https://orbifond.ru/about-stroke/measure-pressure/&quot;&gt;https://orbifond.ru/about-stroke/measure-pressure/&lt;/a&gt;).&lt;/div&gt;" style="connectable=0;recursiveResize=0;strokeColor=inherit;fillColor=inherit;whiteSpace=wrap;html=1;align=left;fontSize=15;spacing=10;" parent="iybK_Iyhg3pvKeD9KzFa-160" vertex="1">
          <mxGeometry x="400" width="610" height="350" as="geometry">
            <mxRectangle width="610" height="350" as="alternateBounds" />
          </mxGeometry>
        </mxCell>
        <mxCell id="iybK_Iyhg3pvKeD9KzFa-205" style="shape=tableRow;horizontal=0;startSize=0;swimlaneHead=0;swimlaneBody=0;top=0;left=0;bottom=0;right=0;dropTarget=0;collapsible=0;recursiveResize=0;expand=0;fontStyle=1;strokeColor=inherit;fillColor=#EAF2D3;" parent="iybK_Iyhg3pvKeD9KzFa-41" vertex="1">
          <mxGeometry y="14535" width="1010" height="240" as="geometry" />
        </mxCell>
        <mxCell id="iybK_Iyhg3pvKeD9KzFa-206" value="&lt;div style=&quot;color: rgb(26, 26, 26); font-family: &amp;quot;YS Text&amp;quot;, &amp;quot;Helvetica Neue&amp;quot;, Helvetica, Arial, sans-serif; font-size: 15px; background-color: rgb(255, 255, 255);&quot;&gt;&amp;nbsp; &amp;nbsp; &amp;nbsp; &amp;nbsp;Блок запроса № 39&lt;br&gt;&lt;/div&gt;&lt;div style=&quot;color: rgb(26, 26, 26); font-family: &amp;quot;YS Text&amp;quot;, &amp;quot;Helvetica Neue&amp;quot;, Helvetica, Arial, sans-serif; font-size: 15px; background-color: rgb(255, 255, 255);&quot;&gt;&lt;br&gt;&lt;/div&gt;&lt;div style=&quot;color: rgb(26, 26, 26); font-family: &amp;quot;YS Text&amp;quot;, &amp;quot;Helvetica Neue&amp;quot;, Helvetica, Arial, sans-serif; font-size: 15px; background-color: rgb(255, 255, 255);&quot;&gt;&lt;ol&gt;&lt;li&gt;Нужна помощь психолога&lt;/li&gt;&lt;li&gt;Мне нужен психолог&lt;/li&gt;&lt;li&gt;Нужен психолог после инсульта&lt;/li&gt;&lt;li&gt;Психологическая помощь&lt;/li&gt;&lt;li&gt;Психологические консультации&lt;/li&gt;&lt;/ol&gt;&lt;/div&gt;" style="connectable=0;recursiveResize=0;strokeColor=inherit;fillColor=inherit;whiteSpace=wrap;html=1;align=left;fontSize=15;spacing=10;" parent="iybK_Iyhg3pvKeD9KzFa-205" vertex="1">
          <mxGeometry width="400" height="240" as="geometry">
            <mxRectangle width="400" height="240" as="alternateBounds" />
          </mxGeometry>
        </mxCell>
        <mxCell id="iybK_Iyhg3pvKeD9KzFa-207" value="&lt;div style=&quot;background-color: rgb(255, 255, 255);&quot;&gt;&lt;div style=&quot;&quot;&gt;&lt;font face=&quot;YS Text, Helvetica Neue, Helvetica, Arial, sans-serif&quot; color=&quot;#1a1a1a&quot;&gt;Инсульт настигает человека и его близких внезапно. Еще вчера можно было вести привычный образ жизни и заниматься повседневными делами, и вдруг все рушится.&lt;/font&gt;&lt;/div&gt;&lt;div style=&quot;&quot;&gt;&lt;font face=&quot;YS Text, Helvetica Neue, Helvetica, Arial, sans-serif&quot; color=&quot;#1a1a1a&quot;&gt;&lt;br&gt;&lt;/font&gt;&lt;/div&gt;&lt;div style=&quot;&quot;&gt;&lt;font face=&quot;YS Text, Helvetica Neue, Helvetica, Arial, sans-serif&quot; color=&quot;#1a1a1a&quot;&gt;Если вам или вашему близкому нужна поддержка специалистов, оставьте заявку на бесплатные психологические консультации (&lt;a href=&quot;https://orbifond.ru/psychology/&quot;&gt;https://orbifond.ru/psychology/&lt;/a&gt;), которые проводит команда фонда ОРБИ.&lt;/font&gt;&lt;/div&gt;&lt;div style=&quot;&quot;&gt;&lt;font face=&quot;YS Text, Helvetica Neue, Helvetica, Arial, sans-serif&quot; color=&quot;#1a1a1a&quot;&gt;&lt;br&gt;&lt;/font&gt;&lt;/div&gt;&lt;div style=&quot;&quot;&gt;&lt;font face=&quot;YS Text, Helvetica Neue, Helvetica, Arial, sans-serif&quot; color=&quot;#1a1a1a&quot;&gt;Консультации проводят опытные психологи, у которых есть большой опыт работы с людьми, перенесшими инсульт, и их родственниками.&lt;/font&gt;&lt;/div&gt;&lt;/div&gt;" style="connectable=0;recursiveResize=0;strokeColor=inherit;fillColor=inherit;whiteSpace=wrap;html=1;align=left;fontSize=15;spacing=10;" parent="iybK_Iyhg3pvKeD9KzFa-205" vertex="1">
          <mxGeometry x="400" width="610" height="240" as="geometry">
            <mxRectangle width="610" height="240" as="alternateBounds" />
          </mxGeometry>
        </mxCell>
        <mxCell id="iybK_Iyhg3pvKeD9KzFa-202" style="shape=tableRow;horizontal=0;startSize=0;swimlaneHead=0;swimlaneBody=0;top=0;left=0;bottom=0;right=0;dropTarget=0;collapsible=0;recursiveResize=0;expand=0;fontStyle=1;strokeColor=inherit;fillColor=#EAF2D3;" parent="iybK_Iyhg3pvKeD9KzFa-41" vertex="1">
          <mxGeometry y="14775" width="1010" height="290" as="geometry" />
        </mxCell>
        <mxCell id="iybK_Iyhg3pvKeD9KzFa-203" value="&lt;div style=&quot;color: rgb(26, 26, 26); font-family: &amp;quot;YS Text&amp;quot;, &amp;quot;Helvetica Neue&amp;quot;, Helvetica, Arial, sans-serif; font-size: 15px; background-color: rgb(255, 255, 255);&quot;&gt;&amp;nbsp; &amp;nbsp; &amp;nbsp; Блок запроса № 40&lt;br&gt;&lt;/div&gt;&lt;div style=&quot;color: rgb(26, 26, 26); font-family: &amp;quot;YS Text&amp;quot;, &amp;quot;Helvetica Neue&amp;quot;, Helvetica, Arial, sans-serif; font-size: 15px; background-color: rgb(255, 255, 255);&quot;&gt;&lt;br&gt;&lt;/div&gt;&lt;div style=&quot;color: rgb(26, 26, 26); font-family: &amp;quot;YS Text&amp;quot;, &amp;quot;Helvetica Neue&amp;quot;, Helvetica, Arial, sans-serif; font-size: 15px; background-color: rgb(255, 255, 255);&quot;&gt;&lt;ol&gt;&lt;li&gt;Депрессия после инсульта&lt;/li&gt;&lt;li&gt;Как понять что депрессия&lt;/li&gt;&lt;li&gt;Как общаться при депрессии&lt;/li&gt;&lt;li&gt;Как общаться если депрессия&lt;/li&gt;&lt;li&gt;Признаки депрессии&lt;/li&gt;&lt;li&gt;Симптомы депрессии&lt;/li&gt;&lt;li&gt;Что делать депрессия&lt;/li&gt;&lt;/ol&gt;&lt;/div&gt;" style="connectable=0;recursiveResize=0;strokeColor=inherit;fillColor=inherit;whiteSpace=wrap;html=1;align=left;fontSize=15;spacing=10;" parent="iybK_Iyhg3pvKeD9KzFa-202" vertex="1">
          <mxGeometry width="400" height="290" as="geometry">
            <mxRectangle width="400" height="290" as="alternateBounds" />
          </mxGeometry>
        </mxCell>
        <mxCell id="iybK_Iyhg3pvKeD9KzFa-204" value="&lt;div style=&quot;font-size: 15px;&quot;&gt;Депрессия — частое осложнение инсульта. Оно связано с нарушением работы головного мозга. Если у человека несколько дней плохое настроение и снижена мотивация, то лучше проконсультироваться с врачом-психотерапевтом или клиническим психологом.&lt;/div&gt;&lt;div style=&quot;font-size: 15px;&quot;&gt;&lt;br style=&quot;font-size: 15px;&quot;&gt;&lt;/div&gt;&lt;div style=&quot;font-size: 15px;&quot;&gt;Еще можно воспользоваться шкалой HADS – это самый простой и доступный предварительный тест на наличие депрессии и тревоги. Если тест покажет риски, тогда уже точно нужно приглашать специалиста. Затягивать не стоит, так как депрессия быстро прогрессирует.&lt;/div&gt;&lt;div style=&quot;font-size: 15px;&quot;&gt;&lt;br style=&quot;font-size: 15px;&quot;&gt;&lt;/div&gt;&lt;div style=&quot;font-size: 15px;&quot;&gt;Если вам или вашему близкому нужна поддержка специалистов, оставьте заявку на бесплатные психологические консультации (&lt;a href=&quot;https://orbifond.ru/psychology/&quot;&gt;https://orbifond.ru/psychology/&lt;/a&gt;).&lt;/div&gt;&lt;div style=&quot;font-size: 15px;&quot;&gt;&lt;br style=&quot;font-size: 15px;&quot;&gt;&lt;/div&gt;&lt;div style=&quot;font-size: 15px;&quot;&gt;Их проводят опытные психологи, у которых есть большой опыт работы с людьми, перенесшими инсульт, и их родственниками.&lt;/div&gt;" style="connectable=0;recursiveResize=0;strokeColor=inherit;fillColor=inherit;whiteSpace=wrap;html=1;align=left;fontSize=15;spacing=10;" parent="iybK_Iyhg3pvKeD9KzFa-202" vertex="1">
          <mxGeometry x="400" width="610" height="290" as="geometry">
            <mxRectangle width="610" height="290" as="alternateBounds" />
          </mxGeometry>
        </mxCell>
        <mxCell id="iybK_Iyhg3pvKeD9KzFa-199" style="shape=tableRow;horizontal=0;startSize=0;swimlaneHead=0;swimlaneBody=0;top=0;left=0;bottom=0;right=0;dropTarget=0;collapsible=0;recursiveResize=0;expand=0;fontStyle=1;strokeColor=inherit;fillColor=#EAF2D3;" parent="iybK_Iyhg3pvKeD9KzFa-41" vertex="1">
          <mxGeometry y="15065" width="1010" height="220" as="geometry" />
        </mxCell>
        <mxCell id="iybK_Iyhg3pvKeD9KzFa-200" value="&amp;nbsp; &amp;nbsp; &amp;nbsp; Блок запроса № 41&lt;br&gt;&lt;br&gt;&lt;ol&gt;&lt;li&gt;Устал ухаживать&lt;/li&gt;&lt;/ol&gt;" style="connectable=0;recursiveResize=0;strokeColor=inherit;fillColor=inherit;whiteSpace=wrap;html=1;align=left;fontSize=15;spacing=10;" parent="iybK_Iyhg3pvKeD9KzFa-199" vertex="1">
          <mxGeometry width="400" height="220" as="geometry">
            <mxRectangle width="400" height="220" as="alternateBounds" />
          </mxGeometry>
        </mxCell>
        <mxCell id="iybK_Iyhg3pvKeD9KzFa-201" value="&lt;div style=&quot;font-size: 15px;&quot;&gt;Инсульт – заболевание, которое затрагивает всю семью. На близких тоже ложится бремя ухода и поддержки.&lt;/div&gt;&lt;div style=&quot;font-size: 15px;&quot;&gt;&lt;br style=&quot;font-size: 15px;&quot;&gt;&lt;/div&gt;&lt;div style=&quot;font-size: 15px;&quot;&gt;Не бойтесь просить помощи: у врачей, друзей, родственников и психологов. Важно восстанавливать свои моральные и физические силы.&lt;/div&gt;&lt;div style=&quot;font-size: 15px;&quot;&gt;&lt;br style=&quot;font-size: 15px;&quot;&gt;&lt;/div&gt;&lt;div style=&quot;font-size: 15px;&quot;&gt;Если вам или вашему близкому нужна поддержка специалистов, оставьте заявку на бесплатные психологические консультации (&lt;a href=&quot;https://orbifond.ru/psychology/&quot;&gt;https://orbifond.ru/psychology/&lt;/a&gt;).&lt;/div&gt;&lt;div style=&quot;font-size: 15px;&quot;&gt;&lt;br style=&quot;font-size: 15px;&quot;&gt;&lt;/div&gt;&lt;div style=&quot;font-size: 15px;&quot;&gt;Их проводят опытные психологи, у которых есть большой опыт работы с людьми, перенесшими инсульт, и их родственниками.&lt;/div&gt;" style="connectable=0;recursiveResize=0;strokeColor=inherit;fillColor=inherit;whiteSpace=wrap;html=1;align=left;fontSize=15;spacing=10;" parent="iybK_Iyhg3pvKeD9KzFa-199" vertex="1">
          <mxGeometry x="400" width="610" height="220" as="geometry">
            <mxRectangle width="610" height="220" as="alternateBounds" />
          </mxGeometry>
        </mxCell>
        <mxCell id="iybK_Iyhg3pvKeD9KzFa-196" style="shape=tableRow;horizontal=0;startSize=0;swimlaneHead=0;swimlaneBody=0;top=0;left=0;bottom=0;right=0;dropTarget=0;collapsible=0;recursiveResize=0;expand=0;fontStyle=1;strokeColor=inherit;fillColor=#EAF2D3;" parent="iybK_Iyhg3pvKeD9KzFa-41" vertex="1">
          <mxGeometry y="15285" width="1010" height="440" as="geometry" />
        </mxCell>
        <mxCell id="iybK_Iyhg3pvKeD9KzFa-197" value="&lt;div style=&quot;color: rgb(26, 26, 26); font-family: &amp;quot;YS Text&amp;quot;, &amp;quot;Helvetica Neue&amp;quot;, Helvetica, Arial, sans-serif; font-size: 15px; background-color: rgb(255, 255, 255);&quot;&gt;&amp;nbsp; &amp;nbsp; &amp;nbsp; Блок зароса № 42&lt;br&gt;&lt;/div&gt;&lt;div style=&quot;color: rgb(26, 26, 26); font-family: &amp;quot;YS Text&amp;quot;, &amp;quot;Helvetica Neue&amp;quot;, Helvetica, Arial, sans-serif; font-size: 15px; background-color: rgb(255, 255, 255);&quot;&gt;&lt;br&gt;&lt;/div&gt;&lt;div style=&quot;color: rgb(26, 26, 26); font-family: &amp;quot;YS Text&amp;quot;, &amp;quot;Helvetica Neue&amp;quot;, Helvetica, Arial, sans-serif; font-size: 15px; background-color: rgb(255, 255, 255);&quot;&gt;&lt;ol&gt;&lt;li&gt;Тяжело общаться после инсульта&lt;/li&gt;&lt;li&gt;Злиться после инсульта&lt;/li&gt;&lt;li&gt;Не хочет делать упражнения&lt;/li&gt;&lt;li&gt;Отказывает от реабилитации&lt;/li&gt;&lt;li&gt;Агрессия после инсульта&lt;/li&gt;&lt;li&gt;Как общаться после инсульта&lt;/li&gt;&lt;/ol&gt;&lt;/div&gt;" style="connectable=0;recursiveResize=0;strokeColor=inherit;fillColor=inherit;whiteSpace=wrap;html=1;align=left;fontSize=15;spacing=10;" parent="iybK_Iyhg3pvKeD9KzFa-196" vertex="1">
          <mxGeometry width="400" height="440" as="geometry">
            <mxRectangle width="400" height="440" as="alternateBounds" />
          </mxGeometry>
        </mxCell>
        <mxCell id="iybK_Iyhg3pvKeD9KzFa-198" value="&lt;div style=&quot;font-size: 15px;&quot;&gt;Иногда после серьезной болезни, психика может немного регрессировать. В таком случае рядом ему нужен человек, который находится в менее уязвимой позиции.&lt;/div&gt;&lt;div style=&quot;font-size: 15px;&quot;&gt;&lt;br style=&quot;font-size: 15px;&quot;&gt;&lt;/div&gt;&lt;div style=&quot;font-size: 15px;&quot;&gt;Ухаживающему близкому приходится быть более устойчивым, чтобы помочь человеку после инсульта справиться с его эмоциями. Например, гневом и агрессией, которые часто возникают из-за отказа принять новое состояние.&lt;/div&gt;&lt;div style=&quot;font-size: 15px;&quot;&gt;&lt;br style=&quot;font-size: 15px;&quot;&gt;&lt;/div&gt;&lt;div style=&quot;font-size: 15px;&quot;&gt;Если ваш близкий испытывает злость, надо набраться сил и терпения. Гнев и отрицание — это одни из стадий на пути к принятию ситуации. Хорошо, что человек их проходит. В этот момент вы можете поддержать близкого, проговаривая его эмоции: «я понимаю, что ты расстроился», «я вижу, что ты сильно злишься».&lt;/div&gt;&lt;div style=&quot;font-size: 15px;&quot;&gt;&lt;br style=&quot;font-size: 15px;&quot;&gt;&lt;/div&gt;&lt;div style=&quot;font-size: 15px;&quot;&gt;Внутри человека, который пережил инсульт, кипят разные чувства. Важно, чтобы человек почувствовал себя понятым и принятым.&lt;/div&gt;&lt;div style=&quot;font-size: 15px;&quot;&gt;&lt;br style=&quot;font-size: 15px;&quot;&gt;&lt;/div&gt;&lt;div style=&quot;font-size: 15px;&quot;&gt;Как поддержать близкого, рассказываем здесь (&lt;a href=&quot;https://orbifond.ru/about-stroke/communication-after-stroke/&quot;&gt;https://orbifond.ru/about-stroke/communication-after-stroke/&lt;/a&gt;).&lt;/div&gt;&lt;div style=&quot;font-size: 15px;&quot;&gt;&lt;br style=&quot;font-size: 15px;&quot;&gt;&lt;/div&gt;&lt;div style=&quot;font-size: 15px;&quot;&gt;Если вам или вашему близкому нужна поддержка специалистов, оставьте заявку на бесплатные психологические консультации (&lt;a href=&quot;https://orbifond.ru/psychology/&quot;&gt;https://orbifond.ru/psychology/&lt;/a&gt;).&lt;/div&gt;&lt;div style=&quot;font-size: 15px;&quot;&gt;&lt;br style=&quot;font-size: 15px;&quot;&gt;&lt;/div&gt;&lt;div style=&quot;font-size: 15px;&quot;&gt;Их проводят опытные психологи, у которых есть большой опыт работы с людьми, перенесшими инсульт, и их родственниками.&lt;/div&gt;" style="connectable=0;recursiveResize=0;strokeColor=inherit;fillColor=inherit;whiteSpace=wrap;html=1;align=left;fontSize=15;spacing=10;" parent="iybK_Iyhg3pvKeD9KzFa-196" vertex="1">
          <mxGeometry x="400" width="610" height="440" as="geometry">
            <mxRectangle width="610" height="440" as="alternateBounds" />
          </mxGeometry>
        </mxCell>
        <mxCell id="iybK_Iyhg3pvKeD9KzFa-193" style="shape=tableRow;horizontal=0;startSize=0;swimlaneHead=0;swimlaneBody=0;top=0;left=0;bottom=0;right=0;dropTarget=0;collapsible=0;recursiveResize=0;expand=0;fontStyle=1;strokeColor=inherit;fillColor=#EAF2D3;" parent="iybK_Iyhg3pvKeD9KzFa-41" vertex="1">
          <mxGeometry y="15725" width="1010" height="284" as="geometry" />
        </mxCell>
        <mxCell id="iybK_Iyhg3pvKeD9KzFa-194" value="&lt;div style=&quot;color: rgb(26, 26, 26); font-family: &amp;quot;YS Text&amp;quot;, &amp;quot;Helvetica Neue&amp;quot;, Helvetica, Arial, sans-serif; font-size: 15px; background-color: rgb(255, 255, 255);&quot;&gt;&amp;nbsp; &amp;nbsp; &amp;nbsp; Блок зароса № 43&lt;br&gt;&lt;/div&gt;&lt;div style=&quot;color: rgb(26, 26, 26); font-family: &amp;quot;YS Text&amp;quot;, &amp;quot;Helvetica Neue&amp;quot;, Helvetica, Arial, sans-serif; font-size: 15px; background-color: rgb(255, 255, 255);&quot;&gt;&lt;br&gt;&lt;/div&gt;&lt;div style=&quot;color: rgb(26, 26, 26); font-family: &amp;quot;YS Text&amp;quot;, &amp;quot;Helvetica Neue&amp;quot;, Helvetica, Arial, sans-serif; font-size: 15px; background-color: rgb(255, 255, 255);&quot;&gt;&lt;ol&gt;&lt;li&gt;Как подать заявку на помощь&lt;/li&gt;&lt;li&gt;Как получить помощь фонда&lt;/li&gt;&lt;li&gt;Мне нужна реабилитация&lt;/li&gt;&lt;li&gt;Маме нужна реабилитация&lt;/li&gt;&lt;li&gt;Папе нужна реабилитация&lt;/li&gt;&lt;li&gt;Мужу нужна реабилитация&lt;/li&gt;&lt;li&gt;Жене нужна реабилитация&lt;/li&gt;&lt;li&gt;Сыну нужна реабилитация&lt;/li&gt;&lt;li&gt;Дочери нужна реабилитация&lt;/li&gt;&lt;li&gt;Брату нужна реабилитация&lt;/li&gt;&lt;li&gt;Сестре нужна реабилитация&lt;/li&gt;&lt;/ol&gt;&lt;/div&gt;" style="connectable=0;recursiveResize=0;strokeColor=inherit;fillColor=inherit;whiteSpace=wrap;html=1;align=left;fontSize=15;spacing=10;" parent="iybK_Iyhg3pvKeD9KzFa-193" vertex="1">
          <mxGeometry width="400" height="284" as="geometry">
            <mxRectangle width="400" height="284" as="alternateBounds" />
          </mxGeometry>
        </mxCell>
        <mxCell id="iybK_Iyhg3pvKeD9KzFa-195" value="&lt;div style=&quot;font-size: 15px;&quot;&gt;Адресная помощь фонда ОРБИ — это единоразовая оплата курса восстановления после инсульта, который гражданин РФ может пройти в реабилитационном центре на территории России. Помощь не выдается на руки и может быть перечислена только на расчетный счет центра, в котором будет восстанавливаться наш подопечный.&lt;/div&gt;&lt;div style=&quot;font-size: 15px;&quot;&gt;&lt;br style=&quot;font-size: 15px;&quot;&gt;&lt;/div&gt;&lt;div style=&quot;font-size: 15px;&quot;&gt;Все заявки на адресную помощь проходят экспертную комиссию фонда, которая позволяет убедиться, что финансовая поддержка будет оказана наиболее нуждающимся в ней людям.&lt;/div&gt;&lt;div style=&quot;font-size: 15px;&quot;&gt;&lt;br style=&quot;font-size: 15px;&quot;&gt;&lt;/div&gt;&lt;div style=&quot;font-size: 15px;&quot;&gt;Узнать больше про адресную помощь и подать заявку (&lt;a href=&quot;https://orbifond.ru/gethelp/&quot;&gt;https://orbifond.ru/gethelp/&lt;/a&gt;).&lt;/div&gt;" style="connectable=0;recursiveResize=0;strokeColor=inherit;fillColor=inherit;whiteSpace=wrap;html=1;align=left;fontSize=15;spacing=10;" parent="iybK_Iyhg3pvKeD9KzFa-193" vertex="1">
          <mxGeometry x="400" width="610" height="284" as="geometry">
            <mxRectangle width="610" height="284" as="alternateBounds" />
          </mxGeometry>
        </mxCell>
        <mxCell id="iybK_Iyhg3pvKeD9KzFa-190" style="shape=tableRow;horizontal=0;startSize=0;swimlaneHead=0;swimlaneBody=0;top=0;left=0;bottom=0;right=0;dropTarget=0;collapsible=0;recursiveResize=0;expand=0;fontStyle=1;strokeColor=inherit;fillColor=#EAF2D3;" parent="iybK_Iyhg3pvKeD9KzFa-41" vertex="1">
          <mxGeometry y="16009" width="1010" height="220" as="geometry" />
        </mxCell>
        <mxCell id="iybK_Iyhg3pvKeD9KzFa-191" value="&lt;div style=&quot;color: rgb(26, 26, 26); font-family: &amp;quot;YS Text&amp;quot;, &amp;quot;Helvetica Neue&amp;quot;, Helvetica, Arial, sans-serif; font-size: 15px; background-color: rgb(255, 255, 255);&quot;&gt;&amp;nbsp; &amp;nbsp; &amp;nbsp; Блок зароса № 44&lt;br&gt;&lt;/div&gt;&lt;div style=&quot;color: rgb(26, 26, 26); font-family: &amp;quot;YS Text&amp;quot;, &amp;quot;Helvetica Neue&amp;quot;, Helvetica, Arial, sans-serif; font-size: 15px; background-color: rgb(255, 255, 255);&quot;&gt;&lt;br&gt;&lt;/div&gt;&lt;div style=&quot;color: rgb(26, 26, 26); font-family: &amp;quot;YS Text&amp;quot;, &amp;quot;Helvetica Neue&amp;quot;, Helvetica, Arial, sans-serif; font-size: 15px; background-color: rgb(255, 255, 255);&quot;&gt;&lt;ol&gt;&lt;li&gt;Мне нужна помощь ОРБИ&lt;/li&gt;&lt;li&gt;Как получить помощь фонда?&lt;/li&gt;&lt;li&gt;Как фонд может мне помочь&lt;/li&gt;&lt;li&gt;Как обратиться в фонд?&lt;/li&gt;&lt;/ol&gt;&lt;/div&gt;" style="connectable=0;recursiveResize=0;strokeColor=inherit;fillColor=inherit;whiteSpace=wrap;html=1;align=left;fontSize=15;spacing=10;" parent="iybK_Iyhg3pvKeD9KzFa-190" vertex="1">
          <mxGeometry width="400" height="220" as="geometry">
            <mxRectangle width="400" height="220" as="alternateBounds" />
          </mxGeometry>
        </mxCell>
        <mxCell id="iybK_Iyhg3pvKeD9KzFa-192" value="&lt;div style=&quot;font-size: 15px;&quot;&gt;У фонда ОРБИ есть несколько программ:&lt;/div&gt;&lt;div style=&quot;font-size: 15px;&quot;&gt;&lt;br style=&quot;font-size: 15px;&quot;&gt;&lt;/div&gt;&lt;div style=&quot;font-size: 15px;&quot;&gt;&amp;nbsp; &amp;nbsp; •&amp;nbsp; Если вам или вашему близкому нужна реабилитация после инсульта и вы хотите обратиться за помощью фонда, вся информация собрана здесь (&lt;a href=&quot;https://orbifond.ru/gethelp/&quot;&gt;https://orbifond.ru/gethelp/&lt;/a&gt;).&lt;/div&gt;&lt;div style=&quot;font-size: 15px;&quot;&gt;&amp;nbsp; &amp;nbsp; •&amp;nbsp; Если вам или вашему близкому нужна психологическая поддержка, оставьте заявку на бесплатные консультации (&lt;a href=&quot;https://orbifond.ru/psychology/&quot;&gt;https://orbifond.ru/psychology/&lt;/a&gt;).&lt;/div&gt;&lt;div style=&quot;font-size: 15px;&quot;&gt;&amp;nbsp; &amp;nbsp; •&amp;nbsp; Ответы на разные вопросы, связанные с инсультом, вы можете поискать в материалах (&lt;a href=&quot;https://orbifond.ru/about-strokes/&quot;&gt;https://orbifond.ru/about-strokes/&lt;/a&gt;) на сайте фонда. Или позвоните на бесплатную горячую линию по инсульту 8 800 707 52 29.&lt;/div&gt;" style="connectable=0;recursiveResize=0;strokeColor=inherit;fillColor=inherit;whiteSpace=wrap;html=1;align=left;fontSize=15;spacing=10;" parent="iybK_Iyhg3pvKeD9KzFa-190" vertex="1">
          <mxGeometry x="400" width="610" height="220" as="geometry">
            <mxRectangle width="610" height="220" as="alternateBounds" />
          </mxGeometry>
        </mxCell>
        <mxCell id="iybK_Iyhg3pvKeD9KzFa-187" style="shape=tableRow;horizontal=0;startSize=0;swimlaneHead=0;swimlaneBody=0;top=0;left=0;bottom=0;right=0;dropTarget=0;collapsible=0;recursiveResize=0;expand=0;fontStyle=1;strokeColor=inherit;fillColor=#EAF2D3;" parent="iybK_Iyhg3pvKeD9KzFa-41" vertex="1">
          <mxGeometry y="16229" width="1010" height="210" as="geometry" />
        </mxCell>
        <mxCell id="iybK_Iyhg3pvKeD9KzFa-188" value="&lt;div style=&quot;color: rgb(26, 26, 26); font-family: &amp;quot;YS Text&amp;quot;, &amp;quot;Helvetica Neue&amp;quot;, Helvetica, Arial, sans-serif; font-size: 15px; background-color: rgb(255, 255, 255);&quot;&gt;&amp;nbsp; &amp;nbsp; &amp;nbsp; Блок зароса № 45&lt;br&gt;&lt;/div&gt;&lt;div style=&quot;color: rgb(26, 26, 26); font-family: &amp;quot;YS Text&amp;quot;, &amp;quot;Helvetica Neue&amp;quot;, Helvetica, Arial, sans-serif; font-size: 15px; background-color: rgb(255, 255, 255);&quot;&gt;&lt;br&gt;&lt;/div&gt;&lt;div style=&quot;color: rgb(26, 26, 26); font-family: &amp;quot;YS Text&amp;quot;, &amp;quot;Helvetica Neue&amp;quot;, Helvetica, Arial, sans-serif; font-size: 15px; background-color: rgb(255, 255, 255);&quot;&gt;&lt;ol&gt;&lt;li&gt;Как сделать пожертвование&lt;/li&gt;&lt;li&gt;Хочу пожертвовать&lt;/li&gt;&lt;li&gt;Как пожертвовать&lt;/li&gt;&lt;li&gt;Как помочь фонду&lt;/li&gt;&lt;li&gt;Как я могу помочь&lt;/li&gt;&lt;/ol&gt;&lt;/div&gt;" style="connectable=0;recursiveResize=0;strokeColor=inherit;fillColor=inherit;whiteSpace=wrap;html=1;align=left;fontSize=15;spacing=10;" parent="iybK_Iyhg3pvKeD9KzFa-187" vertex="1">
          <mxGeometry width="400" height="210" as="geometry">
            <mxRectangle width="400" height="210" as="alternateBounds" />
          </mxGeometry>
        </mxCell>
        <mxCell id="iybK_Iyhg3pvKeD9KzFa-189" value="&lt;div style=&quot;font-size: 15px;&quot;&gt;Большое спасибо, что помогаете фонду ОРБИ и людям, которые борются с последствиями инсульта!&lt;/div&gt;&lt;div style=&quot;font-size: 15px;&quot;&gt;&lt;br style=&quot;font-size: 15px;&quot;&gt;&lt;/div&gt;&lt;div style=&quot;font-size: 15px;&quot;&gt;Вы можете сделать пожертвование здесь (&lt;a href=&quot;https://orbifond.ru/campaign/podderzhivaya-fond-orbi-vy-spasaete-zhizni/&quot;&gt;https://orbifond.ru/campaign/podderzhivaya-fond-orbi-vy-spasaete-zhizni/&lt;/a&gt;).&lt;/div&gt;&lt;div style=&quot;font-size: 15px;&quot;&gt;&lt;br style=&quot;font-size: 15px;&quot;&gt;&lt;/div&gt;&lt;div style=&quot;font-size: 15px;&quot;&gt;Или выбрать другие способы помочь (&lt;a href=&quot;https://orbifond.ru/kak-pomoch/&quot;&gt;https://orbifond.ru/kak-pomoch/&lt;/a&gt;).&lt;/div&gt;" style="connectable=0;recursiveResize=0;strokeColor=inherit;fillColor=inherit;whiteSpace=wrap;html=1;align=left;spacing=10;fontSize=15;" parent="iybK_Iyhg3pvKeD9KzFa-187" vertex="1">
          <mxGeometry x="400" width="610" height="210" as="geometry">
            <mxRectangle width="610" height="210" as="alternateBounds" />
          </mxGeometry>
        </mxCell>
        <mxCell id="iybK_Iyhg3pvKeD9KzFa-184" style="shape=tableRow;horizontal=0;startSize=0;swimlaneHead=0;swimlaneBody=0;top=0;left=0;bottom=0;right=0;dropTarget=0;collapsible=0;recursiveResize=0;expand=0;fontStyle=1;strokeColor=inherit;fillColor=#EAF2D3;" parent="iybK_Iyhg3pvKeD9KzFa-41" vertex="1">
          <mxGeometry y="16439" width="1010" height="200" as="geometry" />
        </mxCell>
        <mxCell id="iybK_Iyhg3pvKeD9KzFa-185" value="&lt;br&gt;&lt;div style=&quot;color: rgb(26, 26, 26); font-family: &amp;quot;YS Text&amp;quot;, &amp;quot;Helvetica Neue&amp;quot;, Helvetica, Arial, sans-serif; font-size: 15px; font-style: normal; font-variant-ligatures: normal; font-variant-caps: normal; font-weight: 400; letter-spacing: normal; orphans: 2; text-indent: 0px; text-transform: none; widows: 2; word-spacing: 0px; -webkit-text-stroke-width: 0px; background-color: rgb(255, 255, 255); text-decoration-thickness: initial; text-decoration-style: initial; text-decoration-color: initial;&quot;&gt;&amp;nbsp; &amp;nbsp; &amp;nbsp; Блок зароса № 46&lt;br&gt;&lt;/div&gt;&lt;div style=&quot;color: rgb(26, 26, 26); font-family: &amp;quot;YS Text&amp;quot;, &amp;quot;Helvetica Neue&amp;quot;, Helvetica, Arial, sans-serif; font-size: 15px; font-style: normal; font-variant-ligatures: normal; font-variant-caps: normal; font-weight: 400; letter-spacing: normal; orphans: 2; text-indent: 0px; text-transform: none; widows: 2; word-spacing: 0px; -webkit-text-stroke-width: 0px; background-color: rgb(255, 255, 255); text-decoration-thickness: initial; text-decoration-style: initial; text-decoration-color: initial;&quot;&gt;&lt;br&gt;&lt;/div&gt;&lt;div style=&quot;color: rgb(26, 26, 26); font-family: &amp;quot;YS Text&amp;quot;, &amp;quot;Helvetica Neue&amp;quot;, Helvetica, Arial, sans-serif; font-size: 15px; font-style: normal; font-variant-ligatures: normal; font-variant-caps: normal; font-weight: 400; letter-spacing: normal; orphans: 2; text-indent: 0px; text-transform: none; widows: 2; word-spacing: 0px; -webkit-text-stroke-width: 0px; background-color: rgb(255, 255, 255); text-decoration-thickness: initial; text-decoration-style: initial; text-decoration-color: initial;&quot;&gt;&lt;ol&gt;&lt;li&gt;Хочу стать волонтером&lt;/li&gt;&lt;li&gt;Вам нужны волонтеры&lt;/li&gt;&lt;li&gt;Как стать волонтером&lt;/li&gt;&lt;/ol&gt;&lt;/div&gt;" style="connectable=0;recursiveResize=0;strokeColor=inherit;fillColor=inherit;whiteSpace=wrap;html=1;align=left;fontSize=15;spacing=10;" parent="iybK_Iyhg3pvKeD9KzFa-184" vertex="1">
          <mxGeometry width="400" height="200" as="geometry">
            <mxRectangle width="400" height="200" as="alternateBounds" />
          </mxGeometry>
        </mxCell>
        <mxCell id="iybK_Iyhg3pvKeD9KzFa-186" value="&lt;div style=&quot;font-size: 15px;&quot;&gt;Большое спасибо, что помогаете фонду ОРБИ и людям, которые борются с последствиями инсульта!&lt;/div&gt;&lt;div style=&quot;font-size: 15px;&quot;&gt;&lt;br style=&quot;font-size: 15px;&quot;&gt;&lt;/div&gt;&lt;div style=&quot;font-size: 15px;&quot;&gt;Вы можете открыть волонтерский сбор в пользу наших подопечных, например, в день рождения или по другому поводу. Как открыть сбор. (&lt;a href=&quot;https://orbifond.ru/sobytie-v-polzu-orbi/&quot;&gt;https://orbifond.ru/sobytie-v-polzu-orbi/&lt;/a&gt;)&lt;/div&gt;&lt;div style=&quot;font-size: 15px;&quot;&gt;&lt;br style=&quot;font-size: 15px;&quot;&gt;&lt;/div&gt;&lt;div style=&quot;font-size: 15px;&quot;&gt;Если у вас есть вопросы или вы хотите помочь как-то еще, напишите нашему комьюнити-менеджеру Екатерине Дубыниной: edubynina@orbifond.ru&lt;/div&gt;" style="connectable=0;recursiveResize=0;strokeColor=inherit;fillColor=inherit;whiteSpace=wrap;html=1;align=left;fontSize=15;spacing=10;" parent="iybK_Iyhg3pvKeD9KzFa-184" vertex="1">
          <mxGeometry x="400" width="610" height="200" as="geometry">
            <mxRectangle width="610" height="200" as="alternateBounds" />
          </mxGeometry>
        </mxCell>
        <mxCell id="nhxSbMsK15WyxhYmptND-7" style="edgeStyle=orthogonalEdgeStyle;rounded=0;orthogonalLoop=1;jettySize=auto;html=1;entryX=-0.001;entryY=0.847;entryDx=0;entryDy=0;entryPerimeter=0;" edge="1" parent="1" source="iybK_Iyhg3pvKeD9KzFa-16" target="iybK_Iyhg3pvKeD9KzFa-42">
          <mxGeometry relative="1" as="geometry" />
        </mxCell>
      </root>
    </mxGraphModel>
  </diagram>
</mxfile>
